<svg width="40" height="30" viewBox="0 0 40 30" fill="none" xmlns="http://www.w3.org/2000/svg">
<path fill-rule="evenodd" clip-rule="evenodd" d="M35.1468 15.312C35.3073 14.7743 35.4205 14.2193 35.4205 13.6332C35.4205 10.2048 32.4751 7.42455 28.8401 7.42455C28.4322 7.42455 28.0386 7.47174 27.653 7.53755C25.7368 3.79997 21.6899 1.21594 16.9955 1.21594C10.4533 1.21594 5.15085 6.22008 5.15085 12.3914C5.15085 12.497 5.16533 12.5988 5.16796 12.7031C2.77271 14.2726 1.20264 16.8827 1.20264 19.8418C1.20264 24.6435 5.3272 28.5338 10.4151 28.5338H16.9955H22.2598H30.1562C34.5164 28.5338 38.0526 25.1986 38.0526 21.0835C38.0526 18.7553 36.9195 16.6779 35.1468 15.312Z" fill="white" stroke="#4169E1" stroke-width="2" stroke-linecap="round" stroke-linejoin="round"/>
<path fill-rule="evenodd" clip-rule="evenodd" d="M1.20264 19.8423C1.20264 15.0418 5.3272 11.1503 10.4151 11.1503L1.20264 19.8423Z" fill="white"/>
<path d="M1.20264 19.8423C1.20264 15.0418 5.3272 11.1503 10.4151 11.1503" stroke="#4169E1" stroke-width="2" stroke-linecap="round" stroke-linejoin="round"/>
<path fill-rule="evenodd" clip-rule="evenodd" d="M16.9956 1.21655C23.5378 1.21655 28.8403 6.21945 28.8403 12.3921L16.9956 1.21655Z" fill="white"/>
<path d="M16.9956 1.21655C23.5378 1.21655 28.8403 6.21945 28.8403 12.3921" stroke="#4169E1" stroke-width="2" stroke-linecap="round" stroke-linejoin="round"/>
<path fill-rule="evenodd" clip-rule="evenodd" d="M10.415 23.5675C8.23823 23.5675 6.4668 21.8961 6.4668 19.8423L10.415 23.5675Z" fill="white"/>
<path d="M10.415 23.5675C8.23823 23.5675 6.4668 21.8961 6.4668 19.8423" stroke="#4169E1" stroke-width="2" stroke-linecap="round" stroke-linejoin="round"/>
</svg>
