<svg width="46" height="45" viewBox="0 0 46 45" fill="none" xmlns="http://www.w3.org/2000/svg">
<path fill-rule="evenodd" clip-rule="evenodd" d="M24.1534 30.051V23.0684H26.4896L26.8712 19.9651H24.1534V18.4537C24.1534 17.6546 24.1759 16.8617 25.4065 16.8617H26.6529V14.6428C26.6529 14.6094 25.5823 14.5342 24.4992 14.5342C22.2372 14.5342 20.8208 15.8197 20.8208 18.1806V19.9651H18.3213V23.0684H20.8208V30.051H24.1534Z" fill="#DBDBDB"/>
<path d="M45.3036 22.1668C45.3036 34.1179 35.2896 43.8337 22.902 43.8337C10.5145 43.8337 0.500488 34.1179 0.500488 22.1668C0.500488 10.2158 10.5145 0.5 22.902 0.5C35.2896 0.5 45.3036 10.2158 45.3036 22.1668Z" stroke="#DBDBDB"/>
</svg>
