<svg width="47" height="54" viewBox="0 0 47 54" fill="none" xmlns="http://www.w3.org/2000/svg">
<path d="M44.0258 18.9597H42.7512V12.8182C42.7501 12.7791 42.7464 12.7402 42.7399 12.7017C42.7417 12.455 42.6535 12.2161 42.4918 12.0296L32.2608 0.356737L32.2533 0.349227C32.192 0.283125 32.1225 0.225081 32.0465 0.176491L31.9788 0.135184C31.9138 0.0990936 31.8451 0.0701355 31.7739 0.0488159L31.7175 0.0300407C31.6394 0.010591 31.5592 0.000506586 31.4787 0H6.32996C5.18128 0 4.2488 0.933151 4.2488 2.07847V18.9578H2.97416C1.33104 18.9578 0 20.2871 0 21.9281V37.3768C0 39.0159 1.33292 40.3471 2.97416 40.3471H4.2488V50.9215C4.2488 52.0669 5.18128 53 6.32996 53H40.67C41.8168 53 42.7512 52.0669 42.7512 50.9215V40.3471H44.0258C45.6671 40.3471 47 39.0177 47 37.3768V21.9281C47 20.289 45.669 18.9597 44.0258 18.9597ZM6.32996 2.07847H30.4372V12.713C30.4372 13.2876 30.9034 13.7513 31.4787 13.7513H40.6719V18.9578H6.32996V2.07847ZM40.67 50.362H6.32996V40.3489H40.67V50.362Z" fill="#4169E1"/>
<path d="M3.71248 25.76V28.97H7.77748V30.5825H3.71248V35H1.68748V24.155H8.52748V25.76H3.71248ZM16.5361 33.335V35H10.1836V24.155H12.2011V33.335H16.5361ZM27.9382 29.5775C27.9382 30.3725 27.8057 31.11 27.5407 31.79C27.2807 32.465 26.9107 33.05 26.4307 33.545C25.9507 34.04 25.3732 34.4275 24.6982 34.7075C24.0232 34.9825 23.2732 35.12 22.4482 35.12C21.6282 35.12 20.8807 34.9825 20.2057 34.7075C19.5307 34.4275 18.9507 34.04 18.4657 33.545C17.9857 33.05 17.6132 32.465 17.3482 31.79C17.0832 31.11 16.9507 30.3725 16.9507 29.5775C16.9507 28.7825 17.0832 28.0475 17.3482 27.3725C17.6132 26.6925 17.9857 26.105 18.4657 25.61C18.9507 25.115 19.5307 24.73 20.2057 24.455C20.8807 24.175 21.6282 24.035 22.4482 24.035C22.9982 24.035 23.5157 24.1 24.0007 24.23C24.4857 24.355 24.9307 24.535 25.3357 24.77C25.7407 25 26.1032 25.2825 26.4232 25.6175C26.7482 25.9475 27.0232 26.3175 27.2482 26.7275C27.4732 27.1375 27.6432 27.5825 27.7582 28.0625C27.8782 28.5425 27.9382 29.0475 27.9382 29.5775ZM25.8757 29.5775C25.8757 28.9825 25.7957 28.45 25.6357 27.98C25.4757 27.505 25.2482 27.1025 24.9532 26.7725C24.6582 26.4425 24.2982 26.19 23.8732 26.015C23.4532 25.84 22.9782 25.7525 22.4482 25.7525C21.9182 25.7525 21.4407 25.84 21.0157 26.015C20.5957 26.19 20.2357 26.4425 19.9357 26.7725C19.6407 27.1025 19.4132 27.505 19.2532 27.98C19.0932 28.45 19.0132 28.9825 19.0132 29.5775C19.0132 30.1725 19.0932 30.7075 19.2532 31.1825C19.4132 31.6525 19.6407 32.0525 19.9357 32.3825C20.2357 32.7075 20.5957 32.9575 21.0157 33.1325C21.4407 33.3075 21.9182 33.395 22.4482 33.395C22.9782 33.395 23.4532 33.3075 23.8732 33.1325C24.2982 32.9575 24.6582 32.7075 24.9532 32.3825C25.2482 32.0525 25.4757 31.6525 25.6357 31.1825C25.7957 30.7075 25.8757 30.1725 25.8757 29.5775ZM35.103 30.905L33.783 27.2975C33.718 27.1375 33.6505 26.9475 33.5805 26.7275C33.5105 26.5075 33.4405 26.27 33.3705 26.015C33.3055 26.27 33.238 26.51 33.168 26.735C33.098 26.955 33.0305 27.1475 32.9655 27.3125L31.653 30.905H35.103ZM38.6655 35H37.1055C36.9305 35 36.788 34.9575 36.678 34.8725C36.568 34.7825 36.4855 34.6725 36.4305 34.5425L35.6205 32.33H31.128L30.318 34.5425C30.278 34.6575 30.2005 34.7625 30.0855 34.8575C29.9705 34.9525 29.828 35 29.658 35H28.083L32.3505 24.155H34.4055L38.6655 35ZM46.3084 25.8125H43.0384V35H41.0209V25.8125H37.7509V24.155H46.3084V25.8125Z" fill="white"/>
</svg>
