<svg width="48" height="55" viewBox="0 0 48 55" fill="none" xmlns="http://www.w3.org/2000/svg">
<path d="M44.8859 19.3155H43.5889V13.0581C43.5878 13.0184 43.584 12.9787 43.5774 12.9395C43.5795 12.6878 43.4905 12.4439 43.3268 12.2527L32.9144 0.361555L32.9067 0.353904C32.7745 0.210413 32.606 0.10532 32.4189 0.0497379L32.3615 0.0306075C32.2821 0.0107908 32.2005 0.000516144 32.1186 0H6.52846C5.35962 0 4.41077 0.950759 4.41077 2.11769V19.3155H3.11376C1.4418 19.3155 0.0874023 20.6699 0.0874023 22.3419V38.082C0.0874023 39.752 1.44372 41.1084 3.11376 41.1084H4.41077V51.8843C4.41077 53.0512 5.35962 54.002 6.52846 54.002H41.4712C42.6382 54.002 43.5889 53.0512 43.5889 51.8843V41.1084H44.8859C46.5579 41.1084 47.9123 39.752 47.9123 38.082V22.3419C47.9123 20.6699 46.556 19.3155 44.8859 19.3155ZM6.52846 2.11769H31.0588V12.9529C31.0588 13.5383 31.5332 14.0108 32.1186 14.0108H41.4731V19.3155H6.52846V2.11769ZM41.4712 51.3104H6.52846V41.1084H41.4712V51.3104Z" fill="#4169E1"/>
<path d="M17.342 30.475V35.74C16.682 36.226 15.977 36.583 15.227 36.811C14.483 37.033 13.685 37.144 12.833 37.144C11.771 37.144 10.808 36.979 9.94404 36.649C9.08604 36.319 8.35104 35.86 7.73904 35.272C7.13304 34.684 6.66504 33.982 6.33504 33.166C6.00504 32.35 5.84004 31.459 5.84004 30.493C5.84004 29.515 5.99904 28.618 6.31704 27.802C6.63504 26.986 7.08504 26.284 7.66704 25.696C8.25504 25.108 8.96604 24.652 9.80004 24.328C10.634 24.004 11.57 23.842 12.608 23.842C13.136 23.842 13.628 23.884 14.084 23.968C14.546 24.052 14.972 24.169 15.362 24.319C15.758 24.463 16.118 24.64 16.442 24.85C16.766 25.06 17.063 25.291 17.333 25.543L16.64 26.641C16.532 26.815 16.391 26.923 16.217 26.965C16.043 27.001 15.854 26.956 15.65 26.83C15.452 26.716 15.254 26.602 15.056 26.488C14.858 26.374 14.636 26.275 14.39 26.191C14.15 26.107 13.877 26.038 13.571 25.984C13.271 25.93 12.923 25.903 12.527 25.903C11.885 25.903 11.303 26.011 10.781 26.227C10.265 26.443 9.82404 26.752 9.45804 27.154C9.09204 27.556 8.81004 28.039 8.61204 28.603C8.41404 29.167 8.31504 29.797 8.31504 30.493C8.31504 31.237 8.42004 31.903 8.63004 32.491C8.84604 33.073 9.14604 33.568 9.53004 33.976C9.92004 34.378 10.388 34.687 10.934 34.903C11.48 35.113 12.089 35.218 12.761 35.218C13.241 35.218 13.67 35.167 14.048 35.065C14.426 34.963 14.795 34.825 15.155 34.651V32.293H13.517C13.361 32.293 13.238 32.251 13.148 32.167C13.064 32.077 13.022 31.969 13.022 31.843V30.475H17.342ZM22.1046 25.912V29.521H26.6586V31.384H22.1046V35.065H27.8826V37H19.6746V23.986H27.8826V25.912H22.1046ZM42.1579 30.493C42.1579 31.447 41.9989 32.332 41.6809 33.148C41.3689 33.958 40.9249 34.66 40.3489 35.254C39.7729 35.848 39.0799 36.313 38.2699 36.649C37.4599 36.979 36.5599 37.144 35.5699 37.144C34.5859 37.144 33.6889 36.979 32.8789 36.649C32.0689 36.313 31.3729 35.848 30.7909 35.254C30.2149 34.66 29.7679 33.958 29.4499 33.148C29.1319 32.332 28.9729 31.447 28.9729 30.493C28.9729 29.539 29.1319 28.657 29.4499 27.847C29.7679 27.031 30.2149 26.326 30.7909 25.732C31.3729 25.138 32.0689 24.676 32.8789 24.346C33.6889 24.01 34.5859 23.842 35.5699 23.842C36.2299 23.842 36.8509 23.92 37.4329 24.076C38.0149 24.226 38.5489 24.442 39.0349 24.724C39.5209 25 39.9559 25.339 40.3399 25.741C40.7299 26.137 41.0599 26.581 41.3299 27.073C41.5999 27.565 41.8039 28.099 41.9419 28.675C42.0859 29.251 42.1579 29.857 42.1579 30.493ZM39.6829 30.493C39.6829 29.779 39.5869 29.14 39.3949 28.576C39.2029 28.006 38.9299 27.523 38.5759 27.127C38.2219 26.731 37.7899 26.428 37.2799 26.218C36.7759 26.008 36.2059 25.903 35.5699 25.903C34.9339 25.903 34.3609 26.008 33.8509 26.218C33.3469 26.428 32.9149 26.731 32.5549 27.127C32.2009 27.523 31.9279 28.006 31.7359 28.576C31.5439 29.14 31.4479 29.779 31.4479 30.493C31.4479 31.207 31.5439 31.849 31.7359 32.419C31.9279 32.983 32.2009 33.463 32.5549 33.859C32.9149 34.249 33.3469 34.549 33.8509 34.759C34.3609 34.969 34.9339 35.074 35.5699 35.074C36.2059 35.074 36.7759 34.969 37.2799 34.759C37.7899 34.549 38.2219 34.249 38.5759 33.859C38.9299 33.463 39.2029 32.983 39.3949 32.419C39.5869 31.849 39.6829 31.207 39.6829 30.493Z" fill="white"/>
</svg>
