<svg width="21" height="18" viewBox="0 0 21 18" fill="none" xmlns="http://www.w3.org/2000/svg">
<path fill-rule="evenodd" clip-rule="evenodd" d="M9.05596 9.85287C5.55867 6.91166 6.05818 6.49157 6.05818 6.49157L7.55742 5.23131C8.10922 4.76725 8.10922 4.01442 7.55742 3.55095L4.44872 0.935948C3.92236 0.493875 3.07735 0.465354 2.52061 0.880094C1.60425 1.56222 0.368539 2.6882 0.0633201 3.97104C-0.436193 6.07148 2.06208 9.01269 6.05818 12.374C10.055 15.7347 13.5523 17.8357 16.0498 17.4156C17.5752 17.159 18.9141 16.1197 19.7252 15.3491C20.2183 14.8809 20.1844 14.1702 19.6588 13.7275L16.5494 11.1131C15.9983 10.6491 15.1031 10.6491 14.5513 11.1131L13.0528 12.374C13.0528 12.374 12.5533 12.7941 9.05596 9.85287Z" fill="#DBDBDB"/>
<mask id="mask0_437_1551" style="mask-type:alpha" maskUnits="userSpaceOnUse" x="0" y="0" width="21" height="18">
<path fill-rule="evenodd" clip-rule="evenodd" d="M9.05596 9.85287C5.55867 6.91166 6.05818 6.49157 6.05818 6.49157L7.55742 5.23131C8.10922 4.76725 8.10922 4.01442 7.55742 3.55095L4.44872 0.935948C3.92236 0.493875 3.07735 0.465354 2.52061 0.880094C1.60425 1.56222 0.368539 2.6882 0.0633201 3.97104C-0.436193 6.07148 2.06208 9.01269 6.05818 12.374C10.055 15.7347 13.5523 17.8357 16.0498 17.4156C17.5752 17.159 18.9141 16.1197 19.7252 15.3491C20.2183 14.8809 20.1844 14.1702 19.6588 13.7275L16.5494 11.1131C15.9983 10.6491 15.1031 10.6491 14.5513 11.1131L13.0528 12.374C13.0528 12.374 12.5533 12.7941 9.05596 9.85287Z" fill="white"/>
</mask>
<g mask="url(#mask0_437_1551)">
<rect y="0.585938" width="20.4892" height="17.2313" fill="white"/>
</g>
</svg>
