<svg width="64" height="62" viewBox="0 0 64 62" fill="none" xmlns="http://www.w3.org/2000/svg">
<path d="M19.25 30.7053C19.25 14.6698 25.027 1.67053 32.15 1.67053C39.2729 1.67053 45.05 14.6698 45.05 30.7053" stroke="#2061D6" stroke-width="3" stroke-linecap="round" stroke-linejoin="round"/>
<path d="M2.05005 30.7053C2.05005 30.7053 6.35005 28.6313 10.65 28.6313C14.95 28.6313 19.25 30.7053 19.25 30.7053C19.25 30.7053 25.7 28.6313 32.15 28.6313C38.6 28.6313 45.0501 30.7053 45.0501 30.7053C45.0501 30.7053 49.35 28.6313 53.65 28.6313C57.9501 28.6313 62.25 30.7053 62.25 30.7053" stroke="#2061D6" stroke-width="3" stroke-linecap="round" stroke-linejoin="round"/>
<path d="M62.25 30.7053C62.25 14.6698 48.7738 1.67053 32.15 1.67053C15.5262 1.67053 2.05005 14.6698 2.05005 30.7053" stroke="#2061D6" stroke-width="3" stroke-linecap="round" stroke-linejoin="round"/>
<path d="M32.1501 28.6313V55.5922C32.1501 57.8818 30.2237 59.74 27.85 59.74C25.4764 59.74 23.55 57.8818 23.55 55.5922V53.5183" stroke="#2061D6" stroke-width="3" stroke-linecap="round" stroke-linejoin="round"/>
<path d="M6.35015 43.1487V51.4443" stroke="#2061D6" stroke-width="3" stroke-linecap="round" stroke-linejoin="round"/>
<path d="M2.05005 47.2966H10.65" stroke="#2061D6" stroke-width="3" stroke-linecap="round" stroke-linejoin="round"/>
<path d="M57.95 51.4443V59.74" stroke="#2061D6" stroke-width="3" stroke-linecap="round" stroke-linejoin="round"/>
<path d="M53.6501 55.5923H62.2501" stroke="#2061D6" stroke-width="3" stroke-linecap="round" stroke-linejoin="round"/>
</svg>
