<svg width="40" height="40" viewBox="0 0 40 40" fill="none" xmlns="http://www.w3.org/2000/svg">
<path opacity="0.8" d="M33.3333 25.7501C31.25 25.7501 29.25 25.4167 27.3833 24.8001C27.2167 24.7501 27.0333 24.7167 26.8667 24.7167C26.4333 24.7167 26.0167 24.8834 25.6833 25.2001L22.0167 28.8667C17.3 26.4667 13.4333 22.6167 11.0333 17.8834L14.7 14.2001C15.1667 13.7667 15.3 13.1167 15.1167 12.5334C14.5 10.6667 14.1667 8.66675 14.1667 6.58341C14.1667 5.66675 13.4167 4.91675 12.5 4.91675H6.66667C5.75 4.91675 5 5.66675 5 6.58341C5 22.2334 17.6833 34.9167 33.3333 34.9167C34.25 34.9167 35 34.1667 35 33.2501V27.4167C35 26.5001 34.25 25.7501 33.3333 25.7501ZM8.38333 8.25008H10.8833C11 9.71675 11.25 11.1667 11.6333 12.5501L9.63333 14.5667C8.96667 12.5501 8.53333 10.4501 8.38333 8.25008ZM31.6667 31.5334C29.4667 31.3834 27.3333 30.9501 25.3333 30.2667L27.3333 28.2667C28.75 28.6667 30.2 28.9167 31.6667 29.0167V31.5334ZM30 9.91675V4.91675H26.6667V9.91675H21.6667V13.2501H26.6667V18.2501H30V13.2501H35V9.91675H30Z" fill="#323232"/>
</svg>
