<svg width="110" height="110" viewBox="0 0 110 110" fill="none" xmlns="http://www.w3.org/2000/svg">
<path d="M84.8931 59.5403C84.8931 68.8303 80.3946 77.7294 72.9472 83.2752C65.6286 88.7256 55.907 90.4704 47.1025 88.1326C38.2526 85.7827 30.8241 79.2501 27.3321 70.7894C24.6626 64.3205 25.1102 57.485 25.1102 50.6502C25.1102 49.5446 25.1102 48.4389 25.1102 47.3332C25.1102 46.866 26.6218 47.1242 26.9967 47.1242H84.3554C84.9385 47.1242 84.8931 47.0598 84.8931 47.6248C84.8931 51.5969 84.8931 55.569 84.8931 59.5403ZM34.1699 41.28C34.1699 31.8227 40.5896 22.7744 49.8243 20.2692C58.8734 17.8148 68.3004 22.2761 72.9064 30.2763C75.1215 34.1242 75.8614 38.2682 75.8614 42.653C75.8614 42.7825 75.9038 44.026 75.8258 44.026H70.0218C69.7105 44.026 69.8824 43.1453 69.8824 42.8969C69.8824 41.8049 69.8771 40.7158 69.7802 39.6268C69.6613 38.2955 69.5606 36.6021 68.9683 35.3821C68.4072 34.2264 66.6994 34.2507 66.1663 35.4177C65.8967 36.0076 66.1186 36.562 66.2579 37.152C66.4238 37.8563 66.5457 38.5704 66.6305 39.2883C66.7646 40.4213 66.7842 41.5564 66.7842 42.6954C66.7842 42.8113 66.8093 44.026 66.7631 44.026H43.3197C42.9441 44.026 43.5613 38.3364 43.6492 37.8843C44.2444 34.8103 45.6356 31.6947 48.374 29.9703C50.0037 28.945 51.9243 28.5421 53.8327 28.5421C55.545 28.5421 57.2876 28.4467 58.965 28.8556C60.0048 29.1093 61.2824 30.0847 62.3169 29.3865C63.549 28.5549 62.9386 27.0653 61.8087 26.5625C59.636 25.5961 57.355 25.4439 55.0156 25.4439C51.326 25.4439 47.8136 26.0717 44.9994 28.6519C40.7956 32.505 40.1625 38.2902 40.1625 43.6663C40.1625 44.3002 39.4597 44.026 38.9023 44.026C37.8027 44.026 36.7038 44.026 35.6042 44.026C35.3096 44.026 34.1699 44.2154 34.1699 43.8595C34.1699 42.9999 34.1699 42.1404 34.1699 41.28ZM86.4456 44.026C84.007 44.026 81.5685 44.026 79.1375 44.026C78.7437 44.026 78.9633 41.7299 78.9557 41.28C78.9557 38.8665 78.6051 36.456 77.9137 34.1431C75.2593 25.2697 67.5968 18.045 58.3152 16.725C49.1639 15.4232 40.1989 19.8678 35.187 27.5409C32.5849 31.5251 31.1308 36.2227 31.074 40.9847C31.0687 41.4459 31.2028 44.026 30.9589 44.026H23.5683C22.1423 44.026 22.012 45.3286 22.012 46.3926C22.012 49.3817 22.012 52.3716 22.012 55.3607C22.012 57.9931 21.9242 60.646 22.2233 63.2655C22.7451 67.8458 24.2529 72.2964 26.618 76.2534C31.3012 84.0893 39.2265 89.7487 48.1794 91.5655C57.096 93.3747 66.6177 91.5276 74.0741 86.2825C81.5685 81.0078 86.6273 72.6531 87.7481 63.5472C88.0738 60.8959 87.9905 58.2158 87.9905 55.55C87.9905 52.5329 87.9905 49.5158 87.9905 46.4987C87.9905 45.4172 87.9299 44.026 86.4456 44.026Z" fill="#4790CD"/>
</svg>
