<svg width="64" height="65" viewBox="0 0 64 65" fill="none" xmlns="http://www.w3.org/2000/svg">
<path fill-rule="evenodd" clip-rule="evenodd" d="M12.8858 58.8193H6.41438C4.0329 58.8193 2.1001 56.8723 2.1001 54.4734V50.1276C2.1001 47.7287 4.0329 45.7817 6.41438 45.7817H12.8858V58.8193Z" stroke="#2061D6" stroke-width="3" stroke-linecap="round" stroke-linejoin="round"/>
<path fill-rule="evenodd" clip-rule="evenodd" d="M19.3572 63.1652H15.0429C13.85 63.1652 12.8857 62.1939 12.8857 60.9922V43.6088C12.8857 42.4072 13.85 41.4359 15.0429 41.4359H19.3572C20.5501 41.4359 21.5143 42.4072 21.5143 43.6088V60.9922C21.5143 62.1939 20.5501 63.1652 19.3572 63.1652Z" stroke="#2061D6" stroke-width="3" stroke-linecap="round" stroke-linejoin="round"/>
<path fill-rule="evenodd" clip-rule="evenodd" d="M51.7144 58.8193H58.1858C60.5673 58.8193 62.5001 56.8723 62.5001 54.4734V50.1276C62.5001 47.7287 60.5673 45.7817 58.1858 45.7817H51.7144V58.8193Z" stroke="#2061D6" stroke-width="3" stroke-linecap="round" stroke-linejoin="round"/>
<path fill-rule="evenodd" clip-rule="evenodd" d="M45.2428 63.1652H49.5571C50.75 63.1652 51.7143 62.1939 51.7143 60.9922V43.6088C51.7143 42.4072 50.75 41.4359 49.5571 41.4359H45.2428C44.0499 41.4359 43.0857 42.4072 43.0857 43.6088V60.9922C43.0857 62.1939 44.0499 63.1652 45.2428 63.1652Z" stroke="#2061D6" stroke-width="3" stroke-linecap="round" stroke-linejoin="round"/>
<path d="M51.7166 13.3259C55.7418 17.9217 58.1858 23.9602 58.1858 30.5724V45.7829" stroke="#2061D6" stroke-width="3" stroke-linecap="round" stroke-linejoin="round"/>
<path d="M6.41431 45.7818V30.5713C6.41431 23.9591 8.85835 17.9205 12.8857 13.3226" stroke="#2061D6" stroke-width="3" stroke-linecap="round" stroke-linejoin="round"/>
<path fill-rule="evenodd" clip-rule="evenodd" d="M51.7143 12.895C51.7143 16.1805 47.9975 18.0253 45.3895 16.0523C41.5498 13.1471 37.0759 11.0154 32.3 11.0154C27.5241 11.0154 23.0502 13.1471 19.2104 16.0523C16.6003 18.0275 12.8835 16.1826 12.8835 12.895V12.882C12.8835 11.7716 13.2805 10.6765 14.0613 9.8942C18.7402 5.21589 25.1857 2.32373 32.3 2.32373C39.4142 2.32373 45.8576 5.21372 50.5365 9.89203C51.3174 10.6765 51.7143 11.7694 51.7143 12.8798V12.895Z" stroke="#2061D6" stroke-width="3" stroke-linecap="round" stroke-linejoin="round"/>
</svg>
