<svg width="47" height="45" viewBox="0 0 47 45" fill="none" xmlns="http://www.w3.org/2000/svg">
<path d="M46.1376 22.2928C46.1376 34.2439 36.1236 43.9597 23.736 43.9597C11.3485 43.9597 1.33447 34.2439 1.33447 22.2928C1.33447 10.3418 11.3485 0.625977 23.736 0.625977C36.1236 0.625977 46.1376 10.3418 46.1376 22.2928Z" stroke="#DBDBDB"/>
<path d="M31 15.5668L28.1528 30.3339C28.1528 30.3339 27.7544 31.3578 26.66 30.8667L20.0907 25.6848L20.0602 25.6695C20.9476 24.8498 27.8286 18.4849 28.1293 18.1963C28.5949 17.7495 28.3059 17.4835 27.7653 17.821L17.6012 24.4616L13.6799 23.1042C13.6799 23.1042 13.0628 22.8784 13.0034 22.3874C12.9433 21.8956 13.7002 21.6295 13.7002 21.6295L29.6861 15.1778C29.6861 15.1778 31 14.5839 31 15.5668Z" fill="#DBDBDB"/>
</svg>
