<svg width="47" height="45" viewBox="0 0 47 45" fill="none" xmlns="http://www.w3.org/2000/svg">
<path d="M45.6815 22.2928C45.6815 34.2439 35.6675 43.9597 23.28 43.9597C10.8924 43.9597 0.878418 34.2439 0.878418 22.2928C0.878418 10.3418 10.8924 0.625977 23.28 0.625977C35.6675 0.625977 45.6815 10.3418 45.6815 22.2928Z" stroke="#DCDCDC"/>
<path fill-rule="evenodd" clip-rule="evenodd" d="M21.0913 28.9427C26.7086 28.9427 29.781 24.2517 29.781 20.1841C29.781 20.0505 29.781 19.9178 29.7721 19.7857C30.3698 19.3506 30.8856 18.8104 31.2957 18.1923C30.7389 18.4413 30.1472 18.6049 29.5421 18.6769C30.1792 18.2921 30.6563 17.6874 30.8848 16.9739C30.2849 17.3325 29.6292 17.5854 28.9452 17.7211C27.7885 16.4818 25.8541 16.4218 24.6238 17.5876C23.8311 18.3393 23.4939 19.4601 23.7403 20.5292C21.2848 20.4046 18.9969 19.2358 17.4457 17.313C16.6352 18.7197 17.0498 20.5187 18.3917 21.4219C17.9057 21.4077 17.4301 21.2756 17.0051 21.0371V21.0761C17.0059 22.5412 18.0308 23.8031 19.4553 24.0934C19.0058 24.2172 18.5339 24.2352 18.0769 24.1459C18.4766 25.4003 19.6236 26.2593 20.9298 26.284C19.8483 27.1408 18.5123 27.6059 17.1368 27.6044C16.8942 27.6036 16.6516 27.5894 16.4097 27.5601C17.8067 28.4634 19.4315 28.9427 21.0913 28.9405" fill="#DBDBDB"/>
</svg>
