<svg width="64" height="63" viewBox="0 0 64 63" fill="none" xmlns="http://www.w3.org/2000/svg">
<path d="M32.15 24.4382V60.9434" stroke="#2060D5" stroke-width="3" stroke-linecap="round" stroke-linejoin="round"/>
<path d="M21.3999 37.0407L32.1499 24.4377L42.8999 37.0407" stroke="#2060D5" stroke-width="3" stroke-linecap="round" stroke-linejoin="round"/>
<path d="M40.9431 50.0783H49.3496C56.4747 50.0783 62.2496 44.2396 62.2496 37.0407C62.2496 32.9665 60.3984 29.3312 57.5024 26.941C57.7647 26.0001 57.9496 25.0288 57.9496 24.0032C57.9496 18.0037 53.1379 13.1385 47.1996 13.1385C46.5352 13.1385 45.8902 13.2189 45.2603 13.3363C42.1299 6.79578 35.5208 2.27393 27.8496 2.27393C17.1619 2.27393 8.49956 11.0286 8.49956 21.8302C8.49956 22.0128 8.52106 22.1931 8.52751 22.3735C4.61666 25.1222 2.04956 29.6897 2.04956 34.8678C2.04956 43.2683 8.78766 50.0783 17.0996 50.0783H23.4657" stroke="#2060D5" stroke-width="3" stroke-linecap="round" stroke-linejoin="round"/>
<path d="M2.05005 34.8678C2.05005 26.4673 8.78815 19.6573 17.1 19.6573" stroke="#2060D5" stroke-width="3" stroke-linecap="round" stroke-linejoin="round"/>
<path d="M27.8501 2.27393C38.5377 2.27393 47.2001 11.0286 47.2001 21.8302" stroke="#2060D5" stroke-width="3" stroke-linecap="round" stroke-linejoin="round"/>
</svg>
