<svg width="100" height="100" viewBox="0 0 100 100" fill="none" xmlns="http://www.w3.org/2000/svg">
<path d="M13.7222 19.158H83.8831C84.3269 19.158 84.6882 19.5193 84.6882 19.9631V23.9572H12.918V19.9631C12.918 19.5193 13.2793 19.158 13.7222 19.158ZM48.3648 71.0088H13.7222C13.2793 71.0088 12.918 70.6475 12.918 70.2037V27.4343H84.6882V34.0529C84.6882 35.0128 85.467 35.7923 86.4268 35.7923C87.3867 35.7923 88.1654 35.0128 88.1654 34.0529V19.9631C88.1654 17.6013 86.2449 15.6799 83.8831 15.6799H13.7222C11.3613 15.6799 9.43994 17.6013 9.43994 19.9631V70.2037C9.43994 72.5655 11.3613 74.4869 13.7222 74.4869H48.3648C49.3247 74.4869 50.1034 73.7081 50.1034 72.7483C50.1034 71.7876 49.3247 71.0088 48.3648 71.0088Z" fill="#2770EC"/>
<path d="M80.7942 23.1371H81.3868C82.3467 23.1371 83.1254 22.3583 83.1254 21.3985C83.1254 20.4387 82.3467 19.6599 81.3868 19.6599H80.7942C79.8344 19.6599 79.0557 20.4387 79.0557 21.3985C79.0557 22.3583 79.8344 23.1371 80.7942 23.1371Z" fill="#2770EC"/>
<path d="M74.8591 23.1371H75.4499C76.4097 23.1371 77.1885 22.3583 77.1885 21.3985C77.1885 20.4387 76.4097 19.6599 75.4499 19.6599H74.8591C73.8984 19.6599 73.1196 20.4387 73.1196 21.3985C73.1196 22.3583 73.8984 23.1371 74.8591 23.1371Z" fill="#2770EC"/>
<path d="M68.9217 23.1371H69.5143C70.4741 23.1371 71.2529 22.3583 71.2529 21.3985C71.2529 20.4387 70.4741 19.6599 69.5143 19.6599H68.9217C67.9618 19.6599 67.1831 20.4387 67.1831 21.3985C67.1831 22.3583 67.9618 23.1371 68.9217 23.1371Z" fill="#2770EC"/>
<path d="M74.2283 66.6328C71.0708 66.6328 68.5025 64.0636 68.5025 60.9061C68.5025 57.7486 71.0708 55.1802 74.2283 55.1802C77.3858 55.1802 79.9551 57.7486 79.9551 60.9061C79.9551 64.0636 77.3858 66.6328 74.2283 66.6328ZM74.2283 51.7021C69.1528 51.7021 65.0244 55.8306 65.0244 60.9061C65.0244 65.9816 69.1528 70.1108 74.2283 70.1108C79.3038 70.1108 83.4323 65.9816 83.4323 60.9061C83.4323 55.8306 79.3038 51.7021 74.2283 51.7021Z" fill="#2770EC"/>
<path d="M97.1418 63.9619C97.1418 64.4839 96.7175 64.9082 96.1955 64.9082H92.1386C92.1173 64.9082 92.0969 64.9141 92.0748 64.915C91.9991 64.9175 91.926 64.9252 91.852 64.9371C91.8121 64.9439 91.7738 64.9515 91.7347 64.9609C91.6633 64.9779 91.5944 64.9991 91.5264 65.0255C91.4881 65.04 91.4508 65.0544 91.4142 65.0714C91.3505 65.1011 91.2892 65.1343 91.2289 65.1717C91.1932 65.1938 91.1591 65.2159 91.1251 65.2397C91.0699 65.2797 91.018 65.3239 90.967 65.3707C90.9347 65.4004 90.9024 65.4301 90.8726 65.4633C90.8284 65.5092 90.7893 65.5585 90.7502 65.6104C90.7196 65.6521 90.6907 65.6937 90.6626 65.738C90.6337 65.7864 90.6074 65.8357 90.5819 65.8876C90.5555 65.942 90.5317 65.9981 90.5104 66.0568C90.5011 66.0814 90.4875 66.1035 90.479 66.129C90.2299 66.9273 89.8924 67.7418 89.4775 68.5528C89.4597 68.5868 89.4512 68.6225 89.4359 68.6574C89.424 68.6855 89.4146 68.7118 89.4044 68.7398C89.3338 68.9277 89.2965 69.1199 89.2931 69.3129C89.2922 69.3384 89.2939 69.3631 89.2947 69.3894C89.2998 69.5866 89.3364 69.7796 89.4061 69.9633C89.4163 69.9896 89.4274 70.0134 89.4393 70.0389C89.52 70.2243 89.6314 70.3943 89.7742 70.5431C89.7836 70.5533 89.7862 70.566 89.7955 70.5762L92.6597 73.4413C92.8391 73.619 92.9368 73.857 92.9368 74.1095C92.9368 74.362 92.8391 74.5992 92.6597 74.7786L88.3298 79.1076C87.9736 79.4656 87.3504 79.4656 86.9925 79.1076L84.113 76.2298C84.1045 76.2205 84.0917 76.2179 84.0824 76.2086C83.9319 76.0649 83.7601 75.9518 83.5739 75.8711C83.5493 75.8609 83.5264 75.8498 83.5017 75.8405C83.3181 75.7708 83.1242 75.7334 82.9261 75.7283C82.8998 75.7274 82.8751 75.7266 82.8488 75.7274C82.6575 75.7308 82.4662 75.7682 82.2792 75.8379C82.2494 75.8489 82.2213 75.8592 82.1924 75.8719C82.1567 75.8881 82.1202 75.8966 82.0845 75.9153C81.3261 76.3063 80.5117 76.6447 79.6649 76.9176C79.6411 76.9261 79.6207 76.9389 79.5969 76.9482C79.5408 76.9686 79.4864 76.9933 79.4328 77.0196C79.3818 77.0451 79.3316 77.0707 79.284 77.1013C79.2381 77.1293 79.1956 77.1608 79.1531 77.1931C79.1046 77.2297 79.0579 77.2662 79.0145 77.307C78.9771 77.3419 78.9431 77.3801 78.9091 77.4184C78.8691 77.4626 78.83 77.5068 78.7952 77.5553C78.7637 77.5986 78.7365 77.6445 78.7093 77.6904C78.6804 77.7397 78.6523 77.7882 78.6277 77.8401C78.6047 77.8894 78.586 77.9412 78.5673 77.9931C78.5478 78.0484 78.5299 78.1028 78.5155 78.1589C78.5036 78.2099 78.4951 78.2617 78.4866 78.3145C78.4772 78.3774 78.4704 78.4394 78.4678 78.5041C78.467 78.527 78.461 78.5491 78.461 78.5729V82.6367C78.461 83.1587 78.036 83.583 77.5139 83.583H71.3936C70.8716 83.583 70.4473 83.1587 70.4473 82.6367V78.5516C70.4473 78.5261 70.4414 78.5032 70.4397 78.4777C70.4372 78.4139 70.4304 78.351 70.421 78.2881C70.4125 78.2354 70.4032 78.1835 70.3904 78.1316C70.3768 78.0755 70.359 78.022 70.3394 77.9676C70.3207 77.9149 70.3012 77.863 70.2774 77.8128C70.2535 77.7618 70.2255 77.7142 70.1974 77.6658C70.1694 77.619 70.1405 77.5731 70.109 77.5289C70.0742 77.4813 70.0359 77.4371 69.9968 77.3937C69.9619 77.3555 69.9279 77.3172 69.8897 77.2824C69.8463 77.2416 69.7995 77.205 69.7519 77.1684C69.7086 77.1361 69.6661 77.1055 69.6202 77.0766C69.5717 77.0469 69.5215 77.0205 69.4697 76.995C69.417 76.9695 69.3626 76.9457 69.3064 76.9253C69.2818 76.916 69.2589 76.9015 69.2325 76.893C68.441 76.6439 67.6342 76.3089 66.8316 75.8966C66.7976 75.8796 66.7619 75.8711 66.727 75.8558C66.699 75.8439 66.6718 75.8337 66.6429 75.8235C66.4558 75.7538 66.2645 75.7164 66.0724 75.7121C66.046 75.7121 66.0206 75.7138 65.9934 75.7138C65.7961 75.7197 65.6031 75.7563 65.4195 75.826C65.3948 75.8354 65.3719 75.8464 65.3472 75.8575C65.1602 75.9382 64.9885 76.0513 64.838 76.195C64.8295 76.2035 64.8175 76.2061 64.8082 76.2146L61.9151 79.1076C61.5589 79.4656 60.9357 79.4656 60.5778 79.1076L56.2487 74.7769C56.0693 74.5992 55.9707 74.362 55.9707 74.1095C55.9707 73.857 56.0693 73.619 56.2487 73.4405L59.1478 70.5397C59.1572 70.5303 59.1597 70.5184 59.1682 70.5091C59.3119 70.3586 59.4241 70.1877 59.5057 70.0007C59.5159 69.976 59.527 69.953 59.5372 69.9284C59.6069 69.7448 59.6434 69.5509 59.6486 69.3528C59.6494 69.3265 59.6511 69.3018 59.6511 69.2763C59.6468 69.0842 59.6094 68.8937 59.5397 68.7067C59.5287 68.6761 59.5184 68.6481 59.5057 68.6183C59.4912 68.5852 59.4827 68.5503 59.4657 68.518C59.0687 67.7409 58.7354 66.935 58.4761 66.1197C58.4685 66.0942 58.4541 66.0729 58.4456 66.0483C58.4243 65.9913 58.4005 65.9369 58.3733 65.8825C58.3486 65.8323 58.3231 65.783 58.2942 65.7362C58.2645 65.6895 58.233 65.6453 58.1999 65.6019C58.1642 65.5543 58.1276 65.5075 58.0868 65.465C58.0528 65.4276 58.0154 65.3936 57.9771 65.3596C57.9321 65.3188 57.887 65.2797 57.8377 65.244C57.7969 65.2142 57.7535 65.1879 57.7101 65.1615C57.6583 65.1301 57.6056 65.1003 57.5503 65.0748C57.5053 65.0535 57.4585 65.0366 57.4109 65.0187C57.3514 64.9974 57.2919 64.9779 57.2298 64.9626C57.1839 64.9515 57.1371 64.943 57.0895 64.9354C57.0224 64.9252 56.9544 64.9175 56.8855 64.915C56.8634 64.9141 56.8421 64.9082 56.8192 64.9082H52.7197C52.1977 64.9082 51.7734 64.4839 51.7734 63.9619V57.8348C51.7734 57.3128 52.1977 56.8885 52.7197 56.8885H56.8192C56.9884 56.8885 57.1491 56.8571 57.3038 56.8112C57.3352 56.8018 57.3659 56.7933 57.3965 56.7831C57.5469 56.7296 57.6898 56.6598 57.8181 56.5689C57.8368 56.5561 57.8521 56.54 57.8691 56.5272C57.9856 56.4379 58.0894 56.3342 58.1803 56.2194C58.1982 56.1965 58.2177 56.1778 58.2339 56.154C58.3274 56.0231 58.3996 55.8769 58.454 55.7221C58.4591 55.706 58.471 55.694 58.4761 55.677C58.7312 54.877 59.0636 54.0719 59.4666 53.2838C59.4845 53.2498 59.4921 53.215 59.5074 53.181C59.5193 53.1529 59.5287 53.1265 59.5389 53.0993C59.6103 52.9106 59.6477 52.7176 59.6511 52.5238C59.6519 52.4991 59.6502 52.4761 59.6494 52.4515C59.6443 52.2526 59.6069 52.0579 59.5363 51.8734C59.527 51.8487 59.5167 51.8266 59.5057 51.802C59.4249 51.6149 59.3119 51.4432 59.1682 51.2936C59.1589 51.2842 59.1572 51.2715 59.1478 51.263L56.2487 48.3622C56.0693 48.1845 55.9707 47.9473 55.9707 47.6948C55.9707 47.4423 56.0693 47.2043 56.2487 47.0258L60.5786 42.6958C60.934 42.3388 61.558 42.3388 61.9159 42.6958L64.8082 45.589C64.8235 45.6034 64.8431 45.6077 64.8584 45.6221C64.9935 45.748 65.1457 45.8457 65.3098 45.9222C65.36 45.9452 65.4067 45.9673 65.4578 45.9852C65.6439 46.0515 65.8361 46.0973 66.035 46.0973L66.0392 46.0982C66.2339 46.0982 66.4286 46.0532 66.6199 45.9852C66.659 45.9707 66.6965 45.9596 66.7347 45.9426C66.7662 45.929 66.8001 45.9231 66.8316 45.9069C67.6342 45.4946 68.441 45.1596 69.2325 44.9105C69.2589 44.902 69.2818 44.8876 69.3073 44.8782C69.3626 44.8578 69.417 44.8348 69.4697 44.8085C69.5215 44.783 69.5717 44.7566 69.6202 44.7269C69.6661 44.6988 69.7086 44.6674 69.7511 44.6359C69.7995 44.5993 69.8455 44.5619 69.8897 44.5211C69.9279 44.4863 69.9619 44.4489 69.9968 44.4098C70.0359 44.3664 70.0742 44.3222 70.109 44.2746C70.1405 44.2304 70.1694 44.1854 70.1966 44.1386C70.2255 44.0901 70.2535 44.0417 70.2774 43.9907C70.3012 43.9405 70.3207 43.8886 70.3394 43.8359C70.359 43.7815 70.3768 43.728 70.3904 43.6718C70.4032 43.62 70.4125 43.5681 70.421 43.5154C70.4304 43.4525 70.4372 43.3896 70.4397 43.3258C70.4414 43.3012 70.4473 43.2773 70.4473 43.2518V39.1608C70.4473 38.6388 70.8716 38.2138 71.3936 38.2138H77.5139C78.036 38.2138 78.461 38.6388 78.461 39.1608V43.2306C78.461 43.2544 78.467 43.2765 78.4678 43.3003C78.4704 43.3641 78.4772 43.427 78.4866 43.4899C78.4951 43.5418 78.5036 43.5936 78.5155 43.6447C78.5299 43.7008 78.5478 43.756 78.5673 43.8104C78.586 43.8631 78.6047 43.9142 78.6277 43.9635C78.6523 44.0153 78.6804 44.0638 78.7093 44.1131C78.7365 44.1598 78.7637 44.2049 78.7952 44.2482C78.83 44.2967 78.8691 44.3409 78.9082 44.3851C78.9431 44.4234 78.9771 44.4616 79.0145 44.4965C79.0579 44.5373 79.1046 44.5747 79.1531 44.6113C79.1956 44.6436 79.2381 44.6742 79.2831 44.7022C79.3316 44.7328 79.3818 44.7583 79.4328 44.7838C79.4864 44.8102 79.5408 44.8348 79.5969 44.8552C79.6207 44.8646 79.6411 44.8782 79.6649 44.8859C80.5117 45.1588 81.3261 45.4971 82.0845 45.8891C82.1168 45.9052 82.1516 45.9112 82.184 45.9256C82.2239 45.9435 82.263 45.9562 82.3038 45.9707C82.4943 46.0387 82.6881 46.0837 82.8828 46.0837L82.8836 46.0829C82.8845 46.0829 82.8853 46.0829 82.8862 46.0829C83.0851 46.0829 83.2773 46.037 83.4635 45.9707C83.5145 45.9528 83.5612 45.9307 83.6113 45.9078C83.7763 45.8313 83.9293 45.7326 84.0645 45.6068C84.079 45.5924 84.0985 45.5881 84.113 45.5745L86.9933 42.6958C87.3487 42.3388 87.9727 42.3388 88.3307 42.6958L92.6597 47.0266C92.8391 47.2043 92.9368 47.4423 92.9368 47.6948C92.9368 47.9473 92.8391 48.1845 92.6597 48.3639L89.7955 51.2281C89.7862 51.2366 89.7836 51.2494 89.7751 51.2587C89.6314 51.4092 89.5183 51.5801 89.4376 51.7671C89.4265 51.7918 89.4155 51.8147 89.4061 51.8394C89.3364 52.0239 89.299 52.2177 89.2939 52.4158C89.2939 52.4413 89.2922 52.4651 89.2931 52.4914C89.2965 52.6836 89.3338 52.8766 89.4044 53.0645C89.4146 53.0925 89.4248 53.1189 89.4367 53.1461C89.452 53.1826 89.4614 53.2201 89.4801 53.2558C89.8745 54.0184 90.2121 54.8345 90.4824 55.6805C90.4875 55.6966 90.4994 55.7085 90.5054 55.7247C90.5598 55.8794 90.632 56.0248 90.7264 56.1565C90.7426 56.1795 90.7612 56.1982 90.7783 56.2203C90.8701 56.3359 90.9738 56.4396 91.0911 56.5289C91.1082 56.5417 91.1226 56.5569 91.1404 56.5697C91.2688 56.6607 91.4116 56.7296 91.5621 56.7831C91.5936 56.7942 91.6242 56.8027 91.6557 56.812C91.8104 56.8571 91.9702 56.8885 92.1386 56.8885H96.1955C96.7175 56.8885 97.1418 57.3128 97.1418 57.8348V63.9619ZM96.1955 53.4105H93.3526C93.2752 53.215 93.1962 53.0211 93.1128 52.829L95.1192 50.8234C95.9541 49.9886 96.4149 48.8766 96.4149 47.6948C96.4149 46.5122 95.9541 45.4011 95.1192 44.5662L90.791 40.2371C89.1196 38.5657 86.2018 38.5657 84.5338 40.2371L82.5129 42.2563C82.3233 42.1747 82.1321 42.0956 81.9383 42.0191V39.1608C81.9383 36.7208 79.9539 34.7366 77.5139 34.7366H71.3936C68.9545 34.7366 66.9694 36.7208 66.9694 39.1608V42.0378C66.7823 42.1118 66.597 42.1908 66.4099 42.2716L64.3755 40.2371C62.7049 38.5657 59.7871 38.5657 58.1183 40.2371L53.7892 44.5653C52.9543 45.4011 52.4935 46.5122 52.4935 47.6948C52.4935 48.8766 52.9543 49.9886 53.7892 50.8226L55.8321 52.8647C55.7531 53.0466 55.6774 53.2277 55.6052 53.4105H52.7197C50.2797 53.4105 48.2954 55.3948 48.2954 57.8348V63.9619C48.2954 66.4019 50.2797 68.3862 52.7197 68.3862H55.6043C55.6774 68.5716 55.754 68.7535 55.833 68.9371L53.7892 70.98C52.9543 71.8158 52.4935 72.927 52.4935 74.1095C52.4935 75.2913 52.9543 76.4033 53.7892 77.2373L58.1174 81.5664C58.9531 82.4021 60.0651 82.8628 61.2469 82.8628C62.4286 82.8628 63.5406 82.4021 64.3746 81.5664L66.4099 79.5319C66.597 79.6127 66.7823 79.6918 66.9694 79.7657V82.6367C66.9694 85.0758 68.9545 87.061 71.3936 87.061H77.5139C79.9539 87.061 81.9383 85.0758 81.9383 82.6367V79.7844C82.1321 79.7079 82.3233 79.6297 82.5129 79.5472L84.5321 81.5664C85.3678 82.4021 86.4798 82.8628 87.6616 82.8628C88.8433 82.8628 89.9553 82.4021 90.7893 81.5664L95.1192 77.2382C95.9541 76.4033 96.4149 75.2913 96.4149 74.1095C96.4149 72.927 95.9541 71.8158 95.1192 70.9809L93.1111 68.9737C93.197 68.7773 93.2786 68.5826 93.356 68.3862H96.1955C98.6355 68.3862 100.62 66.4019 100.62 63.9619V57.8348C100.62 55.3948 98.6355 53.4105 96.1955 53.4105Z" fill="#2770EC"/>
</svg>
