<svg width="651" height="426" viewBox="0 0 651 426" fill="none" xmlns="http://www.w3.org/2000/svg">
<path opacity="0.5" d="M324.662 242.948C332.157 242.948 338.232 239.806 338.232 235.931C338.232 232.055 332.157 228.914 324.662 228.914C317.168 228.914 311.092 232.055 311.092 235.931C311.092 239.806 317.168 242.948 324.662 242.948Z" fill="url(#paint0_linear_278_2454)"/>
<path d="M306.865 197.835L307.379 198.672C310.582 203.881 311.668 209.973 310.441 215.854L308.131 226.925C307.33 230.766 309.262 234.651 312.939 236.596L312.975 236.615C316.041 238.238 319.812 238.233 322.874 236.602C326.535 234.652 328.455 230.775 327.656 226.944L325.359 215.934C324.122 210.004 325.236 203.862 328.499 198.626L328.992 197.835H306.865V197.835Z" fill="url(#paint1_linear_278_2454)"/>
<path d="M328.991 197.836C328.991 198.798 327.294 199.652 324.66 200.197C322.794 200.582 320.461 200.811 317.928 200.811C315.395 200.811 313.059 200.582 311.194 200.197C308.562 199.652 306.865 198.798 306.865 197.836C306.865 196.192 311.817 194.859 317.928 194.859C324.037 194.859 328.991 196.192 328.991 197.836Z" fill="url(#paint2_linear_278_2454)"/>
<path d="M324.662 200.169C324.662 200.178 324.662 200.188 324.66 200.197C322.794 200.582 320.461 200.811 317.928 200.811C315.395 200.811 313.059 200.582 311.194 200.197C311.192 200.188 311.192 200.178 311.192 200.169C311.192 199.167 314.207 198.357 317.928 198.357C321.647 198.357 324.662 199.167 324.662 200.169Z" fill="url(#paint3_linear_278_2454)"/>
<path d="M320.41 199.874C320.41 199.874 326.58 125.688 315.724 124.106C304.867 122.525 317.034 199.836 317.034 199.836L320.41 199.874Z" fill="url(#paint4_linear_278_2454)"/>
<path d="M313.899 199.874C313.899 199.874 293.192 144.066 303.545 141.292C313.899 138.518 318.527 199.874 318.527 199.874H313.899Z" fill="url(#paint5_linear_278_2454)"/>
<path d="M320.41 199.874C320.41 199.874 333.819 163.736 327.115 161.94C320.411 160.144 317.413 199.874 317.413 199.874H320.41Z" fill="url(#paint6_linear_278_2454)"/>
<path opacity="0.5" d="M611.032 381.088C611.032 381.088 606.267 406.906 587.522 404.816L527.969 372.592C520.722 368.957 521.807 362.497 528.823 358.494L536.144 354.318L611.032 381.088Z" fill="url(#paint7_linear_278_2454)"/>
<path d="M550.262 332.866L550.263 326.098L531.202 336.25L537.609 339.663L550.262 332.866Z" fill="url(#paint8_linear_278_2454)"/>
<path d="M531.202 348.922V336.25L594.739 370.092V390.396L538.368 360.372C533.934 358.01 531.202 353.645 531.202 348.922Z" fill="url(#paint9_linear_278_2454)"/>
<path d="M606.859 383.94L594.739 390.395V370.091L613.799 359.938V372.85C613.799 377.426 611.153 381.653 606.859 383.94Z" fill="url(#paint10_linear_278_2454)"/>
<path d="M613.799 359.939L550.263 326.098L550.262 332.866L607.445 363.323L613.799 359.939Z" fill="url(#paint11_linear_278_2454)"/>
<path d="M537.609 339.663L550.262 332.866L607.445 363.323L594.738 370.092L537.609 339.663Z" fill="url(#paint12_linear_278_2454)"/>
<path d="M550.263 342.516C550.263 342.516 555.377 329.299 566.061 333.399C576.744 337.499 563.274 347.665 577.827 340.779C592.379 333.893 588.96 362.814 588.96 362.814L550.263 342.516Z" fill="url(#paint13_linear_278_2454)"/>
<path d="M545.572 340.055C545.572 340.055 546.127 322.676 554.726 323.553C563.325 324.43 551.534 351.499 563.535 339.935C575.536 328.371 572.153 353.162 584.14 350.123C596.127 347.083 604 329.666 604.744 348.443C605.488 367.22 594.804 365.88 594.804 365.88L545.572 340.055Z" fill="url(#paint14_linear_278_2454)"/>
<path opacity="0.5" d="M448.976 296.364C448.976 296.364 444.211 322.182 425.465 320.092L365.912 287.868C358.665 284.233 359.751 277.773 366.767 273.77L374.087 269.594L448.976 296.364Z" fill="url(#paint15_linear_278_2454)"/>
<path d="M388.206 248.142L388.207 241.374L369.146 251.526L375.553 254.939L388.206 248.142Z" fill="url(#paint16_linear_278_2454)"/>
<path d="M369.146 264.198V251.526L432.683 285.368V305.672L376.312 275.648C371.878 273.286 369.146 268.922 369.146 264.198Z" fill="url(#paint17_linear_278_2454)"/>
<path d="M444.803 299.217L432.683 305.672V285.368L451.743 275.215V288.127C451.743 292.702 449.097 296.929 444.803 299.217Z" fill="url(#paint18_linear_278_2454)"/>
<path d="M451.743 275.215L388.207 241.374L388.206 248.142L445.389 278.599L451.743 275.215Z" fill="url(#paint19_linear_278_2454)"/>
<path d="M375.552 254.939L388.206 248.142L445.389 278.599L432.682 285.368L375.552 254.939Z" fill="url(#paint20_linear_278_2454)"/>
<path d="M388.207 257.792C388.207 257.792 393.321 244.575 404.005 248.675C414.688 252.775 401.219 262.941 415.771 256.055C430.323 249.169 426.904 278.09 426.904 278.09L388.207 257.792Z" fill="url(#paint21_linear_278_2454)"/>
<path d="M383.515 255.331C383.515 255.331 384.07 237.952 392.669 238.829C401.268 239.706 389.477 266.775 401.478 255.211C413.479 243.647 410.096 268.438 422.083 265.399C434.07 262.359 441.943 244.942 442.688 263.719C443.432 282.496 432.747 281.156 432.747 281.156L383.515 255.331Z" fill="url(#paint22_linear_278_2454)"/>
<path d="M179.161 207.223L239.489 239.355V271.486L179.16 239.355L179.161 207.223Z" fill="url(#paint23_linear_278_2454)"/>
<path d="M299.818 207.223L239.489 239.355V271.486L299.819 239.355L299.818 207.223Z" fill="url(#paint24_linear_278_2454)"/>
<path d="M179.161 207.223L239.489 175.09L299.818 207.223L239.489 239.355L179.161 207.223Z" fill="url(#paint25_linear_278_2454)"/>
<path d="M200.023 207.223L239.489 186.202L278.955 207.223L239.489 228.243L200.023 207.223Z" fill="url(#paint26_linear_278_2454)"/>
<path d="M208.022 211.483L239.489 194.723L270.956 211.483L239.489 228.243L208.022 211.483Z" fill="url(#paint27_linear_278_2454)"/>
<path d="M187.339 175.09L239.489 202.867V230.641L187.338 202.865L187.339 175.09Z" fill="#4169E1"/>
<path d="M291.64 175.09L239.489 202.867V230.641L291.641 202.865L291.64 175.09Z" fill="#4169E1"/>
<path d="M179.161 175.09L239.489 207.223V223.805L179.16 191.674L179.161 175.09Z" fill="url(#paint28_linear_278_2454)"/>
<path d="M299.818 175.09L239.489 207.223V223.805L299.819 191.674L299.818 175.09Z" fill="url(#paint29_linear_278_2454)"/>
<path d="M179.161 175.09L239.489 142.958L299.818 175.09L239.489 207.223L179.161 175.09Z" fill="url(#paint30_linear_278_2454)"/>
<path d="M200.023 175.09L239.489 154.07L278.955 175.09L239.489 196.111L200.023 175.09Z" fill="url(#paint31_linear_278_2454)"/>
<path d="M208.022 179.35L239.489 162.59L270.956 179.35L239.489 196.111L208.022 179.35Z" fill="url(#paint32_linear_278_2454)"/>
<path d="M187.339 142.958L239.489 170.734V198.508L187.338 170.733L187.339 142.958Z" fill="#4169E1"/>
<path d="M291.64 142.958L239.489 170.734V198.508L291.641 170.733L291.64 142.958Z" fill="#4169E1"/>
<path d="M179.161 142.958L239.489 175.09V191.672L179.16 159.541L179.161 142.958Z" fill="url(#paint33_linear_278_2454)"/>
<path d="M299.818 142.958L239.489 175.09V191.672L299.819 159.541L299.818 142.958Z" fill="url(#paint34_linear_278_2454)"/>
<path d="M179.161 142.958L239.489 110.825L299.818 142.958L239.489 175.09L179.161 142.958Z" fill="url(#paint35_linear_278_2454)"/>
<path d="M200.023 142.958L239.489 121.937L278.955 142.958L239.489 163.978L200.023 142.958Z" fill="url(#paint36_linear_278_2454)"/>
<path d="M208.022 147.218L239.489 130.458L270.956 147.218L239.489 163.978L208.022 147.218Z" fill="url(#paint37_linear_278_2454)"/>
<path d="M239.489 121.937V130.458L208.022 147.218L200.023 142.958L239.489 121.937Z" fill="url(#paint38_linear_278_2454)"/>
<path d="M187.339 110.825L239.489 138.602V166.376L187.338 138.6L187.339 110.825Z" fill="#4169E1"/>
<path d="M291.64 110.825L239.489 138.602V166.376L291.641 138.6L291.64 110.825Z" fill="#4169E1"/>
<path d="M179.161 94.7607L239.489 126.893V159.022L179.16 126.891L179.161 94.7607Z" fill="url(#paint39_linear_278_2454)"/>
<path d="M299.818 94.7607L239.489 126.893V159.022L299.819 126.891L299.818 94.7607Z" fill="url(#paint40_linear_278_2454)"/>
<path d="M179.161 94.7607L239.489 62.6281L299.818 94.7607L239.489 126.893L179.161 94.7607Z" fill="url(#paint41_linear_278_2454)"/>
<path d="M200.023 94.7607L239.489 73.74L278.955 94.7607L239.489 115.781L200.023 94.7607Z" fill="url(#paint42_linear_278_2454)"/>
<path d="M208.022 99.0211L239.489 82.2607L270.956 99.0211L239.489 115.781L208.022 99.0211Z" fill="#4169E1"/>
<path d="M239.489 73.74V82.2608L208.022 99.0211L200.023 94.7607L239.489 73.74Z" fill="url(#paint43_linear_278_2454)"/>
<path d="M285.513 160.966L291.24 157.917L289.837 157.165L285.513 159.468V160.966Z" fill="url(#paint44_linear_278_2454)"/>
<path d="M291.24 154.07V157.917L289.837 157.165V154.861L291.24 154.07Z" fill="url(#paint45_linear_278_2454)"/>
<path d="M285.513 159.468V157.165L289.837 154.861V157.165L285.513 159.468Z" fill="url(#paint46_linear_278_2454)"/>
<path d="M276.747 165.402L282.473 162.353L281.071 161.601L276.747 163.904V165.402Z" fill="url(#paint47_linear_278_2454)"/>
<path d="M282.473 158.505V162.353L281.071 161.601V159.297L282.473 158.505Z" fill="url(#paint48_linear_278_2454)"/>
<path d="M276.747 163.904V161.601L281.071 159.297V161.601L276.747 163.904Z" fill="url(#paint49_linear_278_2454)"/>
<path d="M256.835 208.886L262.562 205.836L261.16 205.084L256.835 207.387V208.886Z" fill="url(#paint50_linear_278_2454)"/>
<path d="M262.561 201.989V205.836L261.159 205.084V202.78L262.561 201.989Z" fill="url(#paint51_linear_278_2454)"/>
<path d="M256.835 207.387V205.084L261.16 202.78V205.084L256.835 207.387Z" fill="url(#paint52_linear_278_2454)"/>
<path d="M248.07 213.321L253.796 210.272L252.394 209.52L248.07 211.823V213.321Z" fill="url(#paint53_linear_278_2454)"/>
<path d="M253.796 206.425V210.272L252.394 209.52V207.216L253.796 206.425Z" fill="url(#paint54_linear_278_2454)"/>
<path d="M248.07 211.823V209.52L252.394 207.216V209.52L248.07 211.823Z" fill="url(#paint55_linear_278_2454)"/>
<path d="M193.465 161.94L187.739 158.89L189.141 158.138L193.465 160.442V161.94Z" fill="url(#paint56_linear_278_2454)"/>
<path d="M187.739 155.043V158.89L189.141 158.138V155.835L187.739 155.043Z" fill="url(#paint57_linear_278_2454)"/>
<path d="M193.466 160.442V158.138L189.141 155.835V158.138L193.466 160.442Z" fill="url(#paint58_linear_278_2454)"/>
<path d="M202.232 166.376L196.505 163.326L197.908 162.574L202.232 164.877V166.376Z" fill="url(#paint59_linear_278_2454)"/>
<path d="M196.505 159.479V163.326L197.908 162.574V160.27L196.505 159.479Z" fill="url(#paint60_linear_278_2454)"/>
<path d="M202.233 164.877V162.574L197.908 160.27V162.574L202.233 164.877Z" fill="url(#paint61_linear_278_2454)"/>
<path d="M222.144 209.859L216.417 206.809L217.819 206.057L222.144 208.361V209.859Z" fill="url(#paint62_linear_278_2454)"/>
<path d="M216.417 202.962V206.809L217.819 206.057V203.754L216.417 202.962Z" fill="url(#paint63_linear_278_2454)"/>
<path d="M222.144 208.361V206.057L217.819 203.754V206.057L222.144 208.361Z" fill="url(#paint64_linear_278_2454)"/>
<path d="M230.91 214.295L225.183 211.245L226.585 210.494L230.91 212.797V214.295Z" fill="url(#paint65_linear_278_2454)"/>
<path d="M225.183 207.398V211.245L226.585 210.494V208.19L225.183 207.398Z" fill="url(#paint66_linear_278_2454)"/>
<path d="M230.911 212.797V210.494L226.586 208.19V210.494L230.911 212.797Z" fill="url(#paint67_linear_278_2454)"/>
<path d="M376.68 0L651 146.107L650.997 348.416L376.68 202.307V0Z" fill="white"/>
<path d="M497.746 206.729L539.674 229.058V306.813C539.674 314.339 535.321 321.293 528.256 325.056L492.996 343.817L450.577 321.223L485.909 302.589C492.995 298.854 497.381 291.913 497.413 284.384L497.746 206.729Z" fill="url(#paint68_linear_278_2454)"/>
<path d="M493.275 205.157L535.203 227.485V305.24C535.203 312.766 530.851 319.721 523.785 323.483L492.996 339.88L450.577 317.286L481.438 301.016C488.524 297.28 492.91 290.34 492.942 282.811L493.275 205.157Z" fill="url(#paint69_linear_278_2454)"/>
<path d="M450.578 317.286V321.223L492.996 343.816V339.879L450.578 317.286Z" fill="url(#paint70_linear_278_2454)"/>
<path d="M368.413 4.59985L642.733 150.707L642.729 353.015L368.413 206.907V4.59985Z" fill="url(#paint71_linear_278_2454)"/>
<path d="M368.413 4.59985L642.733 150.707L642.731 330.422L368.414 184.314L368.413 4.59985Z" fill="#1D1D1B"/>
<path d="M372.926 14.3617L636.076 154.519L636.073 319.586L372.926 179.427V14.3617Z" fill="#4169E1"/>
<path d="M642.729 353.015L650.997 348.416L650.999 146.107L642.732 150.707L642.729 353.015Z" fill="url(#paint72_linear_278_2454)"/>
<path d="M368.413 4.59985L376.68 0L651 146.107L642.733 150.707L368.413 4.59985Z" fill="url(#paint73_linear_278_2454)"/>
<path d="M489.495 260.635C489.495 257.336 492.029 255.986 495.126 257.635C498.223 259.284 500.757 263.333 500.757 266.632C500.757 269.931 498.223 271.282 495.126 269.632C492.029 267.983 489.495 263.934 489.495 260.635Z" fill="url(#paint74_linear_278_2454)"/>
<path fill-rule="evenodd" clip-rule="evenodd" d="M458.265 169.8C458.273 172.305 458.912 174.951 459.913 177.105C460.308 177.955 460.76 178.726 461.253 179.382C461.806 180.132 462.413 180.729 463.048 181.127C463.377 181.332 463.698 181.474 464.008 181.556C465.035 181.827 465.94 181.44 466.605 180.524L496.414 229.777C496.292 230.441 496.226 231.189 496.231 231.995C496.247 236.602 498.395 241.683 501.018 243.323C501.347 243.529 501.668 243.671 501.978 243.752C504.139 244.323 505.759 241.973 505.742 237.943C505.74 237.109 505.666 236.251 505.534 235.406L535.362 223.914C536.226 225.948 537.412 227.617 538.717 228.431C539.044 228.636 539.362 228.777 539.669 228.858C539.906 228.921 540.136 228.948 540.358 228.941C540.856 228.935 541.312 228.752 541.714 228.425C542.778 227.564 543.453 225.658 543.444 223.052C543.43 218.915 541.696 214.392 539.442 212.328L539.3 171.681C541.64 172.305 543.258 169.952 543.244 165.921C543.235 163.316 542.544 160.558 541.471 158.356C541.067 157.529 540.608 156.78 540.109 156.142C539.594 155.488 539.041 154.962 538.46 154.598C538.131 154.392 537.81 154.25 537.5 154.168C536.449 153.89 535.526 154.304 534.859 155.266L504.985 106.466C505.177 105.674 505.28 104.754 505.278 103.726C505.262 99.1185 503.114 94.0372 500.495 92.3986C500.165 92.1926 499.844 92.0506 499.534 91.969C497.372 91.3983 495.75 93.7474 495.764 97.777C495.769 98.8066 495.879 99.8596 496.078 100.896L466.414 112.469C465.537 110.132 464.237 108.189 462.792 107.285C462.465 107.08 462.146 106.94 461.838 106.859C461.548 106.782 461.267 106.758 460.998 106.784C460.51 106.829 460.06 107.034 459.671 107.397C458.68 108.305 458.059 110.166 458.067 112.665C458.082 116.807 459.813 121.328 462.069 123.394L462.211 164.041C459.873 163.418 458.25 165.771 458.265 169.8ZM466.013 117.634C466.016 118.983 465.751 120.047 465.302 120.73C464.974 121.238 464.543 121.533 464.054 121.583C463.912 121.598 463.769 121.592 463.626 121.566C463.582 121.558 463.537 121.548 463.493 121.537C463.283 121.481 463.065 121.384 462.843 121.242C462.573 121.074 462.309 120.855 462.061 120.586C460.675 119.107 459.642 116.264 459.633 113.646C459.627 112.171 459.948 111.029 460.483 110.364C460.834 109.91 461.284 109.677 461.792 109.694C461.912 109.698 462.035 109.716 462.162 109.749C462.37 109.804 462.585 109.899 462.804 110.038C463.664 110.577 464.45 111.67 465.027 113.009C465.406 113.886 465.697 114.862 465.86 115.864C465.96 116.454 466.011 117.055 466.013 117.634ZM485.781 138.599C483.614 135.149 481.608 131.344 479.802 127.292C476.593 132.705 474.665 140.705 474.577 150.636L483.622 156.291C483.665 149.595 484.43 143.651 485.781 138.599ZM480.58 126.061C484.247 120.667 489.344 118.334 495.155 119.868C496.075 120.111 497.011 120.45 497.963 120.889C492.858 123.214 488.759 128.775 486.273 136.883C484.211 133.578 482.3 129.936 480.58 126.061ZM499.951 151.911L499.851 122.683C494.358 124.553 489.957 130.139 487.383 138.609C491.182 144.341 495.444 148.952 499.951 151.911ZM499.958 154.111L500.002 166.53L484.873 157.071C484.917 150.747 485.632 145.122 486.894 140.326C490.846 146.264 495.277 151.041 499.958 154.111ZM500.053 180.916L500.009 168.492L484.88 159.033C484.969 165.441 485.725 171.984 487.029 178.385C489.348 177.789 491.84 177.808 494.457 178.499C496.268 178.977 498.139 179.777 500.053 180.916ZM500.061 183.112L500.161 212.34C494.631 203.58 490.174 192.453 487.528 180.723C489.774 180.131 492.189 180.142 494.725 180.811C496.452 181.268 498.235 182.028 500.061 183.112ZM480.787 184.805C485.095 196.395 491.3 206.276 498.282 211.783C493.132 203.039 488.978 192.324 486.424 181.062C484.377 181.802 482.486 183.059 480.787 184.805ZM479.992 182.591C476.738 173.137 474.741 162.683 474.585 152.598L483.626 158.252C483.719 165.029 484.529 171.959 485.919 178.722C483.77 179.479 481.778 180.783 479.992 182.591ZM473.797 158.301C473.586 155.828 473.467 153.36 473.458 150.916C473.45 148.394 473.558 145.994 473.764 143.712C471.622 139.718 469.589 135.458 467.688 130.958C466.776 128.803 465.906 126.618 465.08 124.408C464.685 124.538 464.253 124.543 463.634 124.374L463.776 165.021C464.291 165.497 464.781 166.096 465.226 166.796C466.042 165.615 466.9 164.506 467.798 163.484C469.672 161.354 471.678 159.626 473.797 158.301ZM503.712 102.746C503.713 103.273 503.673 103.764 503.598 104.198C503.454 105.014 503.182 105.65 502.819 106.085C502.385 106.602 501.821 106.81 501.187 106.643C500.979 106.588 500.764 106.493 500.542 106.354C499.646 105.794 498.832 104.635 498.252 103.232C497.883 102.34 497.605 101.356 497.457 100.358C497.376 99.8222 497.334 99.2849 497.33 98.7574C497.322 96.0514 498.407 94.4781 499.858 94.8613C500.066 94.9163 500.283 95.0118 500.504 95.1502C502.263 96.2502 503.7 99.6541 503.712 102.746ZM532.414 169.487C533.3 168.486 534.142 167.396 534.939 166.234C534.196 164.301 533.741 162.088 533.733 159.977C533.731 158.892 533.847 157.934 534.057 157.112L504.209 108.355C503.533 109.373 502.588 109.818 501.508 109.533C501.199 109.451 500.879 109.31 500.551 109.105C499.074 108.181 497.751 106.168 496.87 103.766L467.232 115.333C467.453 116.423 467.573 117.528 467.578 118.614C467.586 120.819 467.107 122.514 466.316 123.508C467.101 125.597 467.923 127.669 468.787 129.706C470.448 133.643 472.221 137.38 474.078 140.921C474.931 134.586 476.633 129.337 478.989 125.414C479.242 124.988 479.505 124.583 479.773 124.188C483.596 118.613 488.893 116.206 494.932 117.801C495.893 118.054 496.872 118.409 497.867 118.868C498.622 119.221 499.387 119.63 500.162 120.101C500.225 120.138 500.29 120.178 500.356 120.219L500.397 120.244C500.43 120.266 500.463 120.287 500.495 120.308C500.544 120.339 500.591 120.369 500.639 120.401C501.411 120.897 502.179 121.443 502.935 122.036C510.178 127.745 516.621 137.968 521.114 149.98C521.388 150.708 521.657 151.447 521.912 152.19C524.347 159.183 526.116 166.704 527.011 174.247C528.913 172.998 530.722 171.415 532.414 169.487ZM521.111 153.064C524.384 162.539 526.387 173.019 526.544 183.124L517.499 177.474C517.406 170.676 516.596 163.726 515.197 156.943C517.346 156.187 519.332 154.877 521.111 153.064ZM502.85 123.941C507.989 132.666 512.137 143.368 514.691 154.604C516.732 153.863 518.62 152.597 520.316 150.851C516.011 139.289 509.816 129.44 502.85 123.941ZM526.552 185.09C526.464 195.042 524.523 203.059 521.302 208.472C519.502 204.422 517.5 200.618 515.339 197.161C516.696 192.106 517.464 186.144 517.507 179.435L526.552 185.09ZM505.962 215.854C511.765 217.386 516.856 215.066 520.52 209.695C518.806 205.822 516.899 202.185 514.844 198.877C512.358 206.965 508.265 212.512 503.163 214.837C504.112 215.274 505.046 215.612 505.962 215.854ZM501.278 213.04L501.178 183.812C505.678 186.782 509.941 191.409 513.733 197.143C511.159 205.6 506.762 211.172 501.278 213.04ZM501.127 169.192L501.171 181.616C505.849 184.697 510.277 189.486 514.221 195.429C515.493 190.627 516.208 184.991 516.256 178.651L501.127 169.192ZM501.12 167.23L501.079 154.807C502.97 155.926 504.82 156.713 506.61 157.186C509.244 157.882 511.753 157.897 514.087 157.286C515.397 163.701 516.156 170.261 516.248 176.69L501.12 167.23ZM500.968 123.383L501.071 152.611C502.877 153.678 504.642 154.428 506.352 154.88C508.903 155.553 511.332 155.56 513.588 154.956C510.942 143.238 506.488 132.128 500.968 123.383ZM539.293 168.874C539.248 168.865 539.202 168.855 539.157 168.843C538.946 168.788 538.731 168.691 538.508 168.553C538.239 168.384 537.978 168.162 537.724 167.892C537.53 167.688 537.342 167.448 537.164 167.186C536.68 166.495 536.26 165.632 535.944 164.698C535.542 163.515 535.305 162.205 535.299 160.957C535.298 160.374 535.348 159.84 535.439 159.371C535.599 158.571 535.883 157.953 536.254 157.549C536.681 157.083 537.223 156.898 537.829 157.058C538.036 157.113 538.25 157.208 538.47 157.345C538.769 157.533 539.055 157.782 539.328 158.089C539.846 158.667 540.314 159.439 540.69 160.307C541.299 161.702 541.676 163.365 541.68 164.945C541.688 167.563 540.672 169.124 539.293 168.874ZM536.119 215.135C535.724 215.824 535.494 216.832 535.5 218.084C535.501 218.907 535.604 219.748 535.791 220.566C536.015 221.568 536.363 222.53 536.789 223.36C537.324 224.4 537.989 225.231 538.71 225.684C538.927 225.82 539.142 225.914 539.348 225.969C539.422 225.988 539.495 226.003 539.566 226.012C540.08 226.083 540.546 225.894 540.916 225.49C541.518 224.851 541.883 223.652 541.877 222.072C541.868 219.462 540.838 216.619 539.452 215.132C539.201 214.867 538.941 214.645 538.671 214.476C538.446 214.337 538.23 214.241 538.021 214.186C537.976 214.174 537.931 214.164 537.887 214.156C537.69 214.116 537.503 214.119 537.325 214.158C536.847 214.25 536.432 214.59 536.119 215.135ZM533.643 204.651C531.693 200.038 529.603 195.675 527.399 191.591C527.582 189.435 527.678 187.177 527.67 184.81C527.661 182.366 527.542 179.898 527.331 177.424C529.524 176.082 531.598 174.317 533.53 172.121C534.451 171.077 535.327 169.943 536.159 168.726C536.639 169.513 537.17 170.184 537.736 170.701L537.878 211.352C537.205 211.169 536.735 211.187 536.305 211.35C535.462 209.091 534.573 206.853 533.643 204.651ZM497.833 232.127C497.809 232.396 497.796 232.676 497.797 232.976C497.806 236.067 499.247 239.476 501.006 240.575C501.227 240.713 501.442 240.808 501.65 240.863C503.1 241.246 504.188 239.671 504.176 236.967C504.176 236.631 504.159 236.294 504.124 235.953C504.027 234.952 503.793 233.947 503.465 233.026C502.875 231.381 501.974 229.997 500.968 229.367C500.746 229.228 500.53 229.133 500.322 229.078C499.563 228.878 498.905 229.217 498.451 229.974C498.134 230.498 497.914 231.229 497.833 232.127ZM466.475 169.252C467.25 168.137 468.063 167.092 468.914 166.122C470.55 164.262 472.289 162.72 474.12 161.493C475.012 169.002 476.771 176.492 479.188 183.456C479.449 184.201 479.714 184.939 479.985 185.67C484.481 197.711 490.938 207.966 498.193 213.687C498.949 214.279 499.718 214.831 500.49 215.326L500.728 215.473C500.807 215.523 500.887 215.572 500.966 215.621C501.741 216.093 502.506 216.502 503.261 216.855C504.255 217.314 505.235 217.668 506.195 217.922C512.22 219.513 517.507 217.122 521.326 211.572C521.598 211.182 521.861 210.774 522.113 210.351C524.532 206.345 526.268 200.948 527.105 194.413C529.016 198.035 530.837 201.869 532.541 205.904C533.437 208.023 534.288 210.166 535.098 212.336C534.367 213.345 533.926 214.994 533.931 217.104C533.937 218.425 534.117 219.789 534.434 221.095L504.827 232.508C503.956 229.861 502.546 227.61 500.958 226.621C500.628 226.415 500.306 226.272 499.996 226.19C498.797 225.874 497.766 226.455 497.088 227.72L467.426 178.709C467.656 177.875 467.778 176.875 467.775 175.749C467.768 173.544 467.275 171.24 466.475 169.252ZM462.22 166.849C460.84 166.602 459.821 168.163 459.83 170.78C459.836 172.256 460.169 173.805 460.708 175.146C461.068 176.043 461.52 176.838 462.029 177.458C462.347 177.846 462.687 178.154 463.039 178.377C463.259 178.514 463.473 178.609 463.68 178.663C464.265 178.818 464.79 178.652 465.211 178.222C465.591 177.836 465.884 177.225 466.051 176.439C466.155 175.948 466.211 175.384 466.209 174.769C466.204 173.423 465.931 172.019 465.475 170.773C465.14 169.847 464.707 169.012 464.214 168.347C464.075 168.156 463.931 167.985 463.785 167.829C463.534 167.56 463.27 167.337 463.001 167.169C462.781 167.028 462.566 166.935 462.36 166.88C462.313 166.868 462.266 166.858 462.22 166.849Z" fill="url(#paint75_linear_278_2454)"/>
<path opacity="0.2" d="M534.017 272.518L460.944 53.8837L642.732 150.707L642.731 330.422L534.017 272.518Z" fill="url(#paint76_linear_278_2454)"/>
<path opacity="0.2" d="M445.327 45.5658L479.321 243.385L436.711 220.69L399.808 21.3219L445.327 45.5658Z" fill="url(#paint77_linear_278_2454)"/>
<path opacity="0.5" d="M349.838 275.545C360.097 275.545 368.413 273.511 368.413 271.001C368.413 268.492 360.097 266.457 349.838 266.457C339.58 266.457 331.264 268.492 331.264 271.001C331.264 273.511 339.58 275.545 349.838 275.545Z" fill="url(#paint78_linear_278_2454)"/>
<path d="M353.401 271.001L347.758 267.77L348.357 261.943L352.827 218.529L347.841 216.934L347.701 221.373L346.424 262.309L346.247 267.907L346.197 269.509L353.401 271.001Z" fill="url(#paint79_linear_278_2454)"/>
<path d="M346.424 262.308L348.357 261.943L349.845 261.663L353.689 216.96L347.701 221.372L346.424 262.308Z" fill="#1D1D1B"/>
<path d="M346.247 267.907L346.197 269.509L353.401 271.001L347.758 267.77L346.247 267.907Z" fill="#1D1D1B"/>
<path d="M345.908 272.235L340.265 269.004L340.863 263.176L345.334 219.762L340.348 218.167L340.208 222.606L338.93 263.542L338.754 269.14L338.704 270.742L345.908 272.235Z" fill="url(#paint80_linear_278_2454)"/>
<path d="M338.93 263.541L340.864 263.176L342.352 262.896L346.196 218.193L340.208 222.605L338.93 263.541Z" fill="#1D1D1B"/>
<path d="M338.754 269.14L338.704 270.742L345.908 272.234L340.265 269.004L338.754 269.14Z" fill="#1D1D1B"/>
<path d="M359.622 201.933L356.826 204.507L349.895 200.498L355.721 192.782L359.622 201.933Z" fill="url(#paint81_linear_278_2454)"/>
<path d="M350.282 190.839L345.909 191.565C342.254 192.172 339.59 195.097 339.572 198.522L338.136 224.769C342.942 226.96 348.736 226.007 352.424 222.417L356.76 218.195L356.865 196.274C357.111 192.918 353.871 190.243 350.282 190.839Z" fill="url(#paint82_linear_278_2454)"/>
<path d="M351.058 201.171L346.544 215.137L356.76 218.196L361.724 204.714L351.058 201.171Z" fill="url(#paint83_linear_278_2454)"/>
<path d="M347.531 189.07C347.531 189.07 347.697 191.687 348.122 191.964C348.546 192.241 350.751 194.414 349.623 190.083C348.496 185.753 347.531 189.07 347.531 189.07Z" fill="url(#paint84_linear_278_2454)"/>
<path d="M349.96 190.874C351.484 190.874 352.719 189.735 352.719 188.329C352.719 186.924 351.484 185.784 349.96 185.784C348.437 185.784 347.201 186.924 347.201 188.329C347.201 189.735 348.437 190.874 349.96 190.874Z" fill="url(#paint85_linear_278_2454)"/>
<path d="M349.95 212.774L350.588 214.276L352.71 209.918L341.205 209.741L343.76 202.438L341.289 194.088C338.827 196.657 336.948 199.626 336.159 201.879C329.471 220.976 342.121 214.638 347.184 211.891C348.204 211.337 349.517 211.757 349.95 212.774Z" fill="url(#paint86_linear_278_2454)"/>
<path d="M335.911 201.092L342.618 205.553L344.599 200.147C344.705 199.721 344.853 199.306 344.987 198.888C345.594 196.991 343.51 193.702 341.288 194.088C338.827 196.657 337.08 198.985 335.911 201.092Z" fill="url(#paint87_linear_278_2454)"/>
<path d="M355.303 183.356C355.303 185.464 354.315 187.456 352.687 188.713C352.714 188.479 352.719 188.342 352.707 188.115L350.725 188.153C350.725 188.153 350.388 188.851 349.961 188.81C349.53 188.769 349.458 189.499 349.458 189.499C349.458 189.499 348.809 187.749 348.539 189.034C348.399 189.702 348.881 190.097 348.881 190.097C348.881 190.097 348.55 190.522 347.88 190.522C343.779 190.522 340.458 187.135 340.458 183.356C340.458 179.572 343.779 176.508 347.88 176.508C351.976 176.508 355.303 179.572 355.303 183.356Z" fill="#1D1D1B"/>
<path opacity="0.4" d="M465.195 338.187C459.76 335.291 450.865 335.291 445.429 338.187C440.79 340.658 440.124 344.467 443.401 347.332L436.445 351.036L291.602 274.325C294.783 271.469 294.091 267.705 289.493 265.255C284.058 262.359 275.163 262.359 269.726 265.255C264.29 268.151 264.29 272.889 269.726 275.785C273.688 277.895 279.483 278.46 284.44 277.494L370.449 323.045L199.086 414.28L112.762 368.024C114.986 365.298 114.027 361.997 109.859 359.776C104.425 356.881 95.5294 356.881 90.0928 359.776C84.6562 362.672 84.6562 367.411 90.0928 370.306C94.5057 372.656 101.197 373.099 106.467 371.634L199.075 421.258L377.014 326.522L436.455 358.002L450.631 350.453C455.556 351.379 461.274 350.805 465.196 348.716C470.63 345.821 470.63 341.082 465.195 338.187Z" fill="#4169E1"/>
<path opacity="0.4" d="M139.345 288.121L221.742 244.232L221.741 178.402L139.345 222.288V288.121Z" fill="url(#paint88_linear_278_2454)"/>
<path opacity="0.4" d="M221.742 167.43L221.741 178.402L139.345 222.288V211.317L221.742 167.43Z" fill="url(#paint89_linear_278_2454)"/>
<g opacity="0.4">
<path d="M147.992 265.993C148.062 265.993 148.133 265.977 148.198 265.942L158.161 260.636C158.358 260.531 158.426 260.298 158.312 260.116C158.198 259.934 157.946 259.872 157.748 259.977L147.785 265.283C147.588 265.388 147.521 265.62 147.634 265.803C147.711 265.924 147.85 265.993 147.992 265.993Z" fill="url(#paint90_linear_278_2454)"/>
</g>
<g opacity="0.4">
<path d="M147.992 268.275C148.062 268.275 148.133 268.259 148.198 268.224L158.161 262.918C158.358 262.813 158.426 262.581 158.312 262.399C158.198 262.217 157.946 262.154 157.748 262.259L147.785 267.565C147.588 267.67 147.521 267.903 147.634 268.085C147.711 268.207 147.85 268.275 147.992 268.275Z" fill="url(#paint91_linear_278_2454)"/>
</g>
<g opacity="0.4">
<path d="M147.992 270.557C148.062 270.557 148.133 270.54 148.198 270.506L158.161 265.2C158.358 265.095 158.426 264.863 158.312 264.681C158.198 264.498 157.946 264.436 157.748 264.541L147.785 269.847C147.588 269.952 147.521 270.185 147.634 270.367C147.711 270.489 147.85 270.557 147.992 270.557Z" fill="url(#paint92_linear_278_2454)"/>
</g>
<g opacity="0.4">
<path d="M147.992 272.84C148.062 272.84 148.133 272.823 148.198 272.789L158.161 267.483C158.358 267.378 158.426 267.145 158.312 266.963C158.198 266.781 157.946 266.719 157.748 266.824L147.785 272.13C147.588 272.235 147.521 272.467 147.634 272.649C147.711 272.771 147.85 272.84 147.992 272.84Z" fill="url(#paint93_linear_278_2454)"/>
</g>
<g opacity="0.4">
<path d="M151.567 273.195C151.636 273.195 151.707 273.178 151.772 273.144L158.16 269.765C158.358 269.66 158.425 269.427 158.311 269.245C158.197 269.063 157.945 269.001 157.748 269.106L151.36 272.485C151.162 272.59 151.095 272.822 151.209 273.004C151.286 273.126 151.424 273.195 151.567 273.195Z" fill="url(#paint94_linear_278_2454)"/>
</g>
<path opacity="0.4" d="M158.367 254.372C158.367 253.94 158.035 253.763 157.629 253.979L150.864 257.583C150.458 257.799 150.126 258.33 150.126 258.762V261.578C150.126 262.011 150.458 262.188 150.864 261.971L157.628 258.369C158.034 258.152 158.367 257.621 158.367 257.189V254.372H158.367Z" fill="url(#paint95_linear_278_2454)"/>
<g opacity="0.7">
<path d="M186.791 248.821C187.776 248.821 188.856 248.624 190.049 248.174C196.062 245.905 197.778 237.538 199.438 229.447C200.778 222.911 202.164 216.152 205.768 214.806C206.752 214.438 207.584 214.492 208.388 214.974C212.933 217.697 214.44 232.134 214.638 237.467C214.657 237.982 215.123 238.385 215.682 238.368C216.24 238.35 216.677 237.919 216.658 237.404C216.582 235.342 215.733 217.151 209.489 213.41C208.14 212.602 206.591 212.487 205.01 213.078C200.384 214.806 198.96 221.749 197.452 229.101C195.892 236.702 194.28 244.563 189.285 246.449C184.846 248.124 182.659 245.329 180.127 242.093C177.589 238.85 174.43 234.815 168.525 238.065C167.175 238.809 165.998 239.038 164.927 238.768C162.515 238.159 160.681 235.049 158.906 232.043C156.966 228.754 155.133 225.648 152.248 224.957C150.866 224.626 149.396 224.908 147.877 225.795C147.406 226.071 147.266 226.647 147.564 227.082C147.863 227.517 148.487 227.646 148.959 227.371C150 226.763 150.91 226.563 151.74 226.762C153.777 227.25 155.482 230.139 157.131 232.934C159.107 236.284 161.151 239.748 164.393 240.567C166 240.972 167.739 240.67 169.56 239.667C173.675 237.403 175.542 239.422 178.487 243.186C180.496 245.752 182.899 248.821 186.791 248.821Z" fill="#D882B6"/>
</g>
<path opacity="0.4" d="M214.172 209.726C214.172 204.856 210.431 202.862 205.858 205.297C201.286 207.732 197.545 213.709 197.545 218.58C197.545 223.451 201.286 225.445 205.858 223.01C210.431 220.575 214.172 214.597 214.172 209.726Z" fill="#D882B6"/>
<path opacity="0.6" d="M210.51 211.676C210.51 208.951 208.417 207.836 205.858 209.198C203.3 210.56 201.207 213.905 201.207 216.631C201.207 219.356 203.3 220.472 205.858 219.109C208.417 217.746 210.51 214.402 210.51 211.676Z" fill="#D882B6"/>
<path d="M208.13 212.944C208.13 211.613 207.108 211.068 205.859 211.734C204.609 212.399 203.587 214.032 203.587 215.363C203.587 216.695 204.609 217.239 205.859 216.574C207.108 215.908 208.13 214.275 208.13 212.944Z" fill="url(#paint96_linear_278_2454)"/>
<path d="M238.547 244.305L223.88 235.731L213.048 218.766L207.683 214.391L207.839 216.213C208.014 218.268 210.045 219.752 212.254 219.44L212.531 219.401L220.447 236.61L236.03 247.292L238.547 244.305Z" fill="url(#paint97_linear_278_2454)"/>
<path opacity="0.5" d="M233.038 327.859C244.43 327.859 253.665 325.6 253.665 322.813C253.665 320.026 244.43 317.767 233.038 317.767C221.646 317.767 212.411 320.026 212.411 322.813C212.411 325.6 221.646 327.859 233.038 327.859Z" fill="url(#paint98_linear_278_2454)"/>
<path d="M228.29 278.931L228.822 322.813H224.136L230.187 324.981L232.184 272.57L228.29 278.931Z" fill="url(#paint99_linear_278_2454)"/>
<path d="M232.572 277.694L232.882 297.98L240.128 320.012L236.99 324.752L241.75 321.269L235.544 297.183L237.43 280.356L232.572 277.694Z" fill="url(#paint100_linear_278_2454)"/>
<path d="M220.924 277.694L219.901 281.483C219.621 282.517 219.87 283.613 220.576 284.458L221.958 284.037L222.533 281.952L220.924 277.694Z" fill="url(#paint101_linear_278_2454)"/>
<path d="M229.387 237.752L226.959 243.877C227.405 246.077 227.518 259.547 226.893 261.71L224.317 270.613C224.317 270.613 225.439 286.043 227.416 286.064C227.466 286.065 227.515 286.065 227.564 286.066C238.172 286.139 245.61 276.236 241.761 267.117C240.898 265.071 239.912 263.288 238.797 262.024C235.29 258.051 237.271 252.745 239.203 249.379C241.582 245.233 239.369 239.976 234.464 238.738C234.269 238.689 234.072 238.645 233.872 238.607L229.387 237.752Z" fill="url(#paint102_linear_278_2454)"/>
<path d="M223.647 245.811L225.739 259.899L219.949 281.344L228.2 261.425L228.227 244.641L226.959 243.877C225.413 242.945 223.396 244.122 223.647 245.811Z" fill="url(#paint103_linear_278_2454)"/>
<path d="M223.835 247.08L228.217 251.247L228.228 244.641L229.387 237.752L225.833 239.835C224.11 240.846 223.183 242.69 223.46 244.556L223.835 247.08Z" fill="url(#paint104_linear_278_2454)"/>
<path d="M230.072 236.313C231.71 236.313 233.038 235.088 233.038 233.577C233.038 232.066 231.71 230.841 230.072 230.841C228.434 230.841 227.106 232.066 227.106 233.577C227.106 235.088 228.434 236.313 230.072 236.313Z" fill="url(#paint105_linear_278_2454)"/>
<path d="M227.486 231.711C228.755 232.856 229.555 234.404 229.341 236.029C229.234 236.835 228.948 237.674 228.346 238.42C226.363 240.881 225.164 245.097 228.139 245.804C231.113 246.51 232.767 243.995 234.504 245.883C236.241 247.772 240.702 244.996 237.882 240.396C235.062 235.796 234.676 228.682 229.591 229.781C226.796 230.386 226.861 231.148 227.486 231.711Z" fill="#1D1D1B"/>
<path d="M224.136 322.813H228.822L230.236 323.703L230.187 324.981L224.136 322.813Z" fill="#1D1D1B"/>
<path d="M241.452 320.115L240.127 320.012L236.989 324.752L241.749 321.269L241.452 320.115Z" fill="#1D1D1B"/>
<path d="M0.681153 300.797L61.0095 332.93V365.061L0.680176 332.93L0.681153 300.797Z" fill="url(#paint106_linear_278_2454)"/>
<path d="M121.338 300.797L61.0095 332.93V365.061L121.339 332.93L121.338 300.797Z" fill="url(#paint107_linear_278_2454)"/>
<path d="M0.681152 300.798L61.0095 268.665L121.338 300.798L61.0095 332.93L0.681152 300.798Z" fill="url(#paint108_linear_278_2454)"/>
<path d="M21.5437 300.798L61.0096 279.777L100.476 300.798L61.0096 321.818L21.5437 300.798Z" fill="url(#paint109_linear_278_2454)"/>
<path d="M29.5427 305.058L61.0096 288.298L92.477 305.058L61.0096 321.818L29.5427 305.058Z" fill="url(#paint110_linear_278_2454)"/>
<path d="M8.85913 268.665L61.0096 296.442V324.216L8.85815 296.441L8.85913 268.665Z" fill="#4169E1"/>
<path d="M113.161 268.665L61.0095 296.442V324.216L113.161 296.441L113.161 268.665Z" fill="#4169E1"/>
<path d="M0.681153 268.665L61.0095 300.798V317.38L0.680176 285.249L0.681153 268.665Z" fill="url(#paint111_linear_278_2454)"/>
<path d="M121.338 268.665L61.0095 300.798V317.38L121.339 285.249L121.338 268.665Z" fill="url(#paint112_linear_278_2454)"/>
<path d="M0.681152 268.665L61.0095 236.533L121.338 268.665L61.0095 300.798L0.681152 268.665Z" fill="url(#paint113_linear_278_2454)"/>
<path d="M21.5437 268.665L61.0096 247.645L100.476 268.665L61.0096 289.686L21.5437 268.665Z" fill="url(#paint114_linear_278_2454)"/>
<path d="M29.5427 272.926L61.0096 256.165L92.477 272.926L61.0096 289.686L29.5427 272.926Z" fill="url(#paint115_linear_278_2454)"/>
<path d="M8.85913 236.533L61.0096 264.31V292.083L8.85815 264.308L8.85913 236.533Z" fill="#4169E1"/>
<path d="M113.161 236.533L61.0095 264.31V292.083L113.161 264.308L113.161 236.533Z" fill="#4169E1"/>
<path d="M0.681153 236.533L61.0095 268.665V285.247L0.680176 253.117L0.681153 236.533Z" fill="url(#paint116_linear_278_2454)"/>
<path d="M121.338 236.533L61.0095 268.665V285.247L121.339 253.117L121.338 236.533Z" fill="url(#paint117_linear_278_2454)"/>
<path d="M0.681152 236.533L61.0095 204.4L121.338 236.533L61.0095 268.665L0.681152 236.533Z" fill="url(#paint118_linear_278_2454)"/>
<path d="M21.5437 236.533L61.0096 215.512L100.476 236.533L61.0096 257.553L21.5437 236.533Z" fill="url(#paint119_linear_278_2454)"/>
<path d="M29.5427 240.793L61.0096 224.033L92.477 240.793L61.0096 257.553L29.5427 240.793Z" fill="url(#paint120_linear_278_2454)"/>
<path d="M61.0096 215.512V224.033L29.5427 240.793L21.5437 236.533L61.0096 215.512Z" fill="url(#paint121_linear_278_2454)"/>
<path d="M8.85913 204.4L61.0096 232.177V259.951L8.85815 232.175L8.85913 204.4Z" fill="#4169E1"/>
<path d="M113.161 204.4L61.0095 232.177V259.951L113.161 232.175L113.161 204.4Z" fill="#4169E1"/>
<path d="M0.681153 188.336L61.0095 220.468V252.597L0.680176 220.466L0.681153 188.336Z" fill="url(#paint122_linear_278_2454)"/>
<path d="M121.338 188.336L61.0095 220.468V252.597L121.339 220.466L121.338 188.336Z" fill="url(#paint123_linear_278_2454)"/>
<path d="M0.681152 188.336L61.0095 156.203L121.338 188.336L61.0095 220.468L0.681152 188.336Z" fill="url(#paint124_linear_278_2454)"/>
<path d="M21.5437 188.336L61.0096 167.315L100.476 188.336L61.0096 209.356L21.5437 188.336Z" fill="url(#paint125_linear_278_2454)"/>
<path d="M29.5427 192.596L61.0096 175.836L92.477 192.596L61.0096 209.356L29.5427 192.596Z" fill="#4169E1"/>
<path d="M61.0096 167.315V175.836L29.5427 192.596L21.5437 188.336L61.0096 167.315Z" fill="url(#paint126_linear_278_2454)"/>
<path d="M107.032 254.541L112.759 251.492L111.357 250.74L107.032 253.043V254.541Z" fill="url(#paint127_linear_278_2454)"/>
<path d="M112.759 247.645V251.492L111.356 250.74V248.436L112.759 247.645Z" fill="url(#paint128_linear_278_2454)"/>
<path d="M107.032 253.043V250.74L111.357 248.436V250.74L107.032 253.043Z" fill="url(#paint129_linear_278_2454)"/>
<path d="M98.2661 258.977L103.993 255.927L102.591 255.175L98.2661 257.479V258.977Z" fill="url(#paint130_linear_278_2454)"/>
<path d="M103.993 252.08V255.927L102.591 255.175V252.872L103.993 252.08Z" fill="url(#paint131_linear_278_2454)"/>
<path d="M98.2661 257.479V255.175L102.591 252.872V255.175L98.2661 257.479Z" fill="url(#paint132_linear_278_2454)"/>
<path d="M78.3557 302.46L84.0821 299.411L82.6802 298.659L78.3557 300.962V302.46Z" fill="url(#paint133_linear_278_2454)"/>
<path d="M84.0821 295.564V299.411L82.6802 298.659V296.355L84.0821 295.564Z" fill="url(#paint134_linear_278_2454)"/>
<path d="M78.3557 300.963V298.659L82.6802 296.355V298.659L78.3557 300.963Z" fill="url(#paint135_linear_278_2454)"/>
<path d="M69.5886 306.897L75.3155 303.847L73.9131 303.095L69.5886 305.398V306.897Z" fill="url(#paint136_linear_278_2454)"/>
<path d="M75.3155 300V303.847L73.9131 303.095V300.791L75.3155 300Z" fill="url(#paint137_linear_278_2454)"/>
<path d="M69.5886 305.398V303.095L73.9131 300.791V303.095L69.5886 305.398Z" fill="url(#paint138_linear_278_2454)"/>
<path d="M14.9869 255.515L9.26001 252.465L10.6619 251.713L14.9869 254.016V255.515Z" fill="url(#paint139_linear_278_2454)"/>
<path d="M9.26001 248.618V252.465L10.6619 251.713V249.409L9.26001 248.618Z" fill="url(#paint140_linear_278_2454)"/>
<path d="M14.9871 254.016V251.713L10.6621 249.409V251.713L14.9871 254.016Z" fill="url(#paint141_linear_278_2454)"/>
<path d="M23.7535 259.951L18.0266 256.901L19.429 256.149L23.7535 258.453V259.951Z" fill="url(#paint142_linear_278_2454)"/>
<path d="M18.0266 253.054V256.901L19.429 256.149V253.845L18.0266 253.054Z" fill="url(#paint143_linear_278_2454)"/>
<path d="M23.7532 258.453V256.149L19.4287 253.845V256.149L23.7532 258.453Z" fill="url(#paint144_linear_278_2454)"/>
<path d="M43.6641 303.434L37.9373 300.384L39.3397 299.633L43.6641 301.936V303.434Z" fill="url(#paint145_linear_278_2454)"/>
<path d="M37.9373 296.537V300.385L39.3397 299.633V297.329L37.9373 296.537Z" fill="url(#paint146_linear_278_2454)"/>
<path d="M43.6645 301.936V299.633L39.3401 297.329V299.633L43.6645 301.936Z" fill="url(#paint147_linear_278_2454)"/>
<path d="M52.4307 307.87L46.7043 304.82L48.1063 304.068L52.4307 306.372V307.87Z" fill="url(#paint148_linear_278_2454)"/>
<path d="M46.7043 300.973V304.82L48.1063 304.068V301.764L46.7043 300.973Z" fill="url(#paint149_linear_278_2454)"/>
<path d="M52.4307 306.372V304.068L48.1062 301.764V304.068L52.4307 306.372Z" fill="url(#paint150_linear_278_2454)"/>
<path opacity="0.5" d="M43.1606 392.887C50.6551 392.887 56.7306 389.745 56.7306 385.87C56.7306 381.995 50.6551 378.853 43.1606 378.853C35.6661 378.853 29.5906 381.995 29.5906 385.87C29.5906 389.745 35.6661 392.887 43.1606 392.887Z" fill="url(#paint151_linear_278_2454)"/>
<path d="M25.3635 347.775L25.8781 348.611C29.0811 353.82 30.1668 359.912 28.9399 365.793L26.6301 376.864C25.8287 380.705 27.7603 384.591 31.4378 386.536L31.474 386.555C34.5402 388.177 38.311 388.172 41.3723 386.542C45.0342 384.591 46.954 380.714 46.1551 376.883L43.858 365.873C42.6208 359.943 43.7349 353.801 46.9975 348.565L47.4906 347.774H25.3635V347.775Z" fill="url(#paint152_linear_278_2454)"/>
<path d="M47.4901 347.775C47.4901 348.737 45.793 349.591 43.1583 350.136C41.2932 350.521 38.9599 350.75 36.4268 350.75C33.8937 350.75 31.558 350.521 29.6929 350.136C27.0611 349.591 25.3635 348.737 25.3635 347.775C25.3635 346.131 30.3154 344.798 36.4268 344.798C42.5363 344.798 47.4901 346.131 47.4901 347.775Z" fill="url(#paint153_linear_278_2454)"/>
<path d="M43.1605 350.108C43.1605 350.117 43.1605 350.127 43.1581 350.136C41.2929 350.521 38.9597 350.75 36.4266 350.75C33.8935 350.75 31.5578 350.521 29.6926 350.136C29.6902 350.127 29.6902 350.117 29.6902 350.108C29.6902 349.106 32.7056 348.297 36.4266 348.297C40.1451 348.297 43.1605 349.106 43.1605 350.108Z" fill="url(#paint154_linear_278_2454)"/>
<path d="M38.9085 349.813C38.9085 349.813 45.0785 275.627 34.2219 274.046C23.3654 272.464 35.5325 349.776 35.5325 349.776L38.9085 349.813Z" fill="url(#paint155_linear_278_2454)"/>
<path d="M32.3967 349.814C32.3967 349.814 11.6896 294.006 22.0429 291.232C32.3962 288.458 37.0256 349.814 37.0256 349.814H32.3967Z" fill="url(#paint156_linear_278_2454)"/>
<path d="M38.9082 349.814C38.9082 349.814 52.3169 313.675 45.6128 311.879C38.9087 310.083 35.9109 349.814 35.9109 349.814H38.9082Z" fill="url(#paint157_linear_278_2454)"/>
<path opacity="0.5" d="M400.914 403.145C413.153 403.145 423.074 400.718 423.074 397.724C423.074 394.73 413.153 392.303 400.914 392.303C388.676 392.303 378.754 394.73 378.754 397.724C378.754 400.718 388.676 403.145 400.914 403.145Z" fill="url(#paint158_linear_278_2454)"/>
<path d="M422.007 313.837L412.227 312.172L409.056 325.753L418.482 328.2L422.007 313.837Z" fill="#4169E1"/>
<path d="M391.253 314.022L390.648 325.368L394.542 338.795L395.89 340.142L392.589 326.029L393.948 313.638L391.253 314.022Z" fill="url(#paint159_linear_278_2454)"/>
<path d="M392.876 340.361L394.618 367.861L392.876 398.321L398.33 397.091L394.281 395.868L397.949 367.214L398.973 340.361H392.876Z" fill="url(#paint160_linear_278_2454)"/>
<path d="M392.967 396.732L394.281 395.868L398.33 397.091L392.876 398.321L392.967 396.732Z" fill="#1D1D1B"/>
<path d="M396.81 343.102L400.715 370.602L398.973 401.062L404.426 399.833L400.378 398.609L404.045 369.956L402.719 343.102H396.81Z" fill="url(#paint161_linear_278_2454)"/>
<path d="M399.064 399.473L400.378 398.609L404.427 399.833L398.973 401.062L399.064 399.473Z" fill="#1D1D1B"/>
<path d="M389.14 343.753C389.859 346.993 391.262 346.682 391.004 349.981L390.979 353.168V353.177L393.434 354.234C394.587 354.73 395.928 354.68 397.034 354.101L398.646 353.24C403.33 350.738 406.67 354.606 406.298 349.625L404.232 321.434C405.904 319.837 407.157 317.056 405.562 315.387L401.995 311.011C400.475 309.145 397.922 308.261 395.447 308.743L393.468 309.128C393.468 309.128 390.378 310.48 391.428 316.864C392.266 321.958 396.221 323.612 393.418 328.996C390.784 334.052 388.486 340.814 389.14 343.753Z" fill="url(#paint162_linear_278_2454)"/>
<path d="M397.728 307.099C399.487 307.099 400.914 305.783 400.914 304.16C400.914 302.537 399.487 301.221 397.728 301.221C395.968 301.221 394.542 302.537 394.542 304.16C394.542 305.783 395.968 307.099 397.728 307.099Z" fill="url(#paint163_linear_278_2454)"/>
<path d="M399.861 299.959C400.77 300.219 401.183 301.192 400.729 301.964C399.971 303.252 398.523 305.904 398.495 307.422C398.475 308.483 398.514 309.606 398.708 310.286C398.839 310.744 398.614 311.222 398.145 311.415C395.719 312.414 390.293 314.311 390.291 311.301C390.29 309.789 391.734 305.929 392.052 304.159C392.633 300.919 394.402 300.051 397.777 299.795C398.608 299.733 399.312 299.802 399.861 299.959Z" fill="#1D1D1B"/>
<path d="M398.025 317.347L402.917 328.996L420.032 324.239L422.007 322.371L420.442 320.268L419.767 322.397L417.792 322.031L419.262 323.543L404.152 326.541L401.088 314.92L398.025 317.347Z" fill="url(#paint164_linear_278_2454)"/>
<path d="M400.74 312.016C401.53 312.69 402.323 313.892 402.319 315.994L397.549 318.458C397.549 318.458 393.66 314.167 397.789 311.806C398.717 311.276 399.939 311.332 400.74 312.016Z" fill="url(#paint165_linear_278_2454)"/>
<path opacity="0.5" d="M293.552 425.761C304.72 425.761 313.774 423.546 313.774 420.814C313.774 418.082 304.72 415.867 293.552 415.867C282.384 415.867 273.331 418.082 273.331 420.814C273.331 423.546 282.384 425.761 293.552 425.761Z" fill="url(#paint166_linear_278_2454)"/>
<path d="M289.674 420.814L295.817 417.296L295.166 410.952L290.299 363.69L295.727 361.953L295.879 366.785L297.27 411.351L297.462 417.445L297.517 419.189L289.674 420.814Z" fill="url(#paint167_linear_278_2454)"/>
<path d="M297.27 411.35L295.165 410.952L293.545 410.647L289.36 361.981L295.879 366.785L297.27 411.35Z" fill="#1D1D1B"/>
<path d="M297.462 417.445L297.517 419.189L289.674 420.814L295.817 417.296L297.462 417.445Z" fill="#1D1D1B"/>
<path d="M297.831 422.157L303.973 418.639L303.322 412.295L298.456 365.033L303.883 363.296L304.036 368.128L305.427 412.694L305.618 418.787L305.673 420.532L297.831 422.157Z" fill="url(#paint168_linear_278_2454)"/>
<path d="M305.427 412.693L303.322 412.295L301.702 411.99L297.517 363.324L304.036 368.128L305.427 412.693Z" fill="#1D1D1B"/>
<path d="M305.618 418.787L305.673 420.532L297.831 422.157L303.973 418.639L305.618 418.787Z" fill="#1D1D1B"/>
<path d="M287.148 335.66L278.979 343.58L269.222 330.922L265.197 330.297L262.426 332.15L267.175 333.703C267.175 333.703 273.744 367.187 291.34 342.193L287.148 335.66Z" fill="url(#paint169_linear_278_2454)"/>
<path d="M282.901 339.778L285.946 348.425L293.49 344.06L287.149 335.66L282.901 339.778Z" fill="url(#paint170_linear_278_2454)"/>
<path d="M293.069 333.545L297.831 334.336C301.809 334.996 304.709 338.181 304.729 341.91L306.292 370.482C301.06 372.868 294.753 371.83 290.739 367.922L286.018 363.327L285.903 339.462C285.635 335.808 289.162 332.896 293.069 333.545Z" fill="url(#paint171_linear_278_2454)"/>
<path d="M292.224 344.793L297.138 359.997L286.017 363.327L280.613 348.65L292.224 344.793Z" fill="#4169E1"/>
<path d="M296.065 331.62C296.065 331.62 295.883 334.469 295.421 334.77C294.959 335.072 292.559 337.437 293.786 332.723C295.014 328.008 296.065 331.62 296.065 331.62Z" fill="url(#paint172_linear_278_2454)"/>
<path d="M293.419 333.583C295.078 333.583 296.423 332.343 296.423 330.813C296.423 329.283 295.078 328.042 293.419 328.042C291.761 328.042 290.416 329.283 290.416 330.813C290.416 332.343 291.761 333.583 293.419 333.583Z" fill="url(#paint173_linear_278_2454)"/>
<path d="M290.664 329.712C290.664 329.712 279.508 324.57 281.413 320.079C283.318 315.589 297.139 330.026 297.139 330.026L296.017 332.203C296.017 332.203 296.175 330.384 295.361 330.804C294.546 331.224 294.75 332.628 294.75 332.628L294.211 330.809L290.664 329.712Z" fill="#1D1D1B"/>
<path d="M293.431 357.425L292.736 359.06L290.426 354.315L302.951 354.122L300.169 346.171L302.86 337.082C305.539 339.879 307.586 343.111 308.444 345.563C315.725 366.353 301.953 359.453 296.442 356.463C295.332 355.861 293.901 356.318 293.431 357.425Z" fill="url(#paint174_linear_278_2454)"/>
<path d="M308.715 344.706L301.413 349.564L299.257 343.678C299.142 343.215 298.98 342.763 298.834 342.307C298.174 340.243 300.442 336.662 302.861 337.082C305.54 339.879 307.442 342.413 308.715 344.706Z" fill="url(#paint175_linear_278_2454)"/>
<path opacity="0.4" d="M272.166 357.902L239.717 340.618L239.717 314.693L272.166 331.976V357.902Z" fill="url(#paint176_linear_278_2454)"/>
<g opacity="0.4">
<path d="M243.112 324.024V340.372L247.526 342.724L247.526 326.268L243.112 324.024Z" fill="url(#paint177_linear_278_2454)"/>
<path d="M249.733 333.586V344.027L254.146 346.25V335.937L249.733 333.586Z" fill="url(#paint178_linear_278_2454)"/>
<path d="M256.248 333.215V347.448L260.661 349.67V335.566L256.248 333.215Z" fill="url(#paint179_linear_278_2454)"/>
<path d="M263.002 332.142V350.925L267.387 353.302L267.416 334.493L263.002 332.142Z" fill="url(#paint180_linear_278_2454)"/>
</g>
<path opacity="0.4" d="M239.717 310.372L239.717 314.693L272.166 331.976V327.655L239.717 310.372Z" fill="url(#paint181_linear_278_2454)"/>
<defs>
<linearGradient id="paint0_linear_278_2454" x1="328.727" y1="245.986" x2="328.647" y2="242.751" gradientUnits="userSpaceOnUse">
<stop stop-color="#F6F6F6"/>
<stop offset="1" stop-color="#CCD5ED"/>
</linearGradient>
<linearGradient id="paint1_linear_278_2454" x1="308.557" y1="188.282" x2="274.916" y2="213.219" gradientUnits="userSpaceOnUse">
<stop stop-color="#F6F6F6"/>
<stop offset="1" stop-color="#CCD5ED"/>
</linearGradient>
<linearGradient id="paint2_linear_278_2454" x1="306.865" y1="200.811" x2="328.991" y2="200.811" gradientUnits="userSpaceOnUse">
<stop stop-color="#F6F6F6"/>
<stop offset="1" stop-color="#CCD5ED"/>
</linearGradient>
<linearGradient id="paint3_linear_278_2454" x1="292.372" y1="194.32" x2="292.353" y2="203.76" gradientUnits="userSpaceOnUse">
<stop stop-color="#4790CD"/>
<stop offset="1" stop-color="#EA6FAA"/>
</linearGradient>
<linearGradient id="paint4_linear_278_2454" x1="316.623" y1="103.105" x2="300.549" y2="106.022" gradientUnits="userSpaceOnUse">
<stop stop-color="#4790CD"/>
<stop offset="1" stop-color="#EA6FAA"/>
</linearGradient>
<linearGradient id="paint5_linear_278_2454" x1="301.283" y1="156.165" x2="319.971" y2="196.997" gradientUnits="userSpaceOnUse">
<stop stop-color="#4790CD"/>
<stop offset="1" stop-color="#EA6FAA"/>
</linearGradient>
<linearGradient id="paint6_linear_278_2454" x1="315.509" y1="191.357" x2="332.962" y2="195.879" gradientUnits="userSpaceOnUse">
<stop stop-color="#4790CD"/>
<stop offset="1" stop-color="#EA6FAA"/>
</linearGradient>
<linearGradient id="paint7_linear_278_2454" x1="572.537" y1="413.363" x2="572.862" y2="402.778" gradientUnits="userSpaceOnUse">
<stop stop-color="#F6F6F6"/>
<stop offset="1" stop-color="#CCD5ED"/>
</linearGradient>
<linearGradient id="paint8_linear_278_2454" x1="529.272" y1="324.332" x2="529.272" y2="340.644" gradientUnits="userSpaceOnUse">
<stop stop-color="#F6F6F6"/>
<stop offset="1" stop-color="#CCD5ED"/>
</linearGradient>
<linearGradient id="paint9_linear_278_2454" x1="558.298" y1="343.523" x2="550.464" y2="365.351" gradientUnits="userSpaceOnUse">
<stop stop-color="#F6F6F6"/>
<stop offset="1" stop-color="#CCD5ED"/>
</linearGradient>
<linearGradient id="paint10_linear_278_2454" x1="598.506" y1="370.997" x2="599.356" y2="389.131" gradientUnits="userSpaceOnUse">
<stop stop-color="#F6F6F6"/>
<stop offset="1" stop-color="#CCD5ED"/>
</linearGradient>
<linearGradient id="paint11_linear_278_2454" x1="563.055" y1="357.231" x2="579.656" y2="389.835" gradientUnits="userSpaceOnUse">
<stop stop-color="#F6F6F6"/>
<stop offset="1" stop-color="#CCD5ED"/>
</linearGradient>
<linearGradient id="paint12_linear_278_2454" x1="501.577" y1="319.223" x2="491.688" y2="407.34" gradientUnits="userSpaceOnUse">
<stop stop-color="#4790CD"/>
<stop offset="1" stop-color="#EA6FAA"/>
</linearGradient>
<linearGradient id="paint13_linear_278_2454" x1="592.6" y1="321.383" x2="588.79" y2="328.096" gradientUnits="userSpaceOnUse">
<stop stop-color="#4790CD"/>
<stop offset="1" stop-color="#EA6FAA"/>
</linearGradient>
<linearGradient id="paint14_linear_278_2454" x1="556.13" y1="292.049" x2="527.359" y2="365.671" gradientUnits="userSpaceOnUse">
<stop stop-color="#4790CD"/>
<stop offset="1" stop-color="#EA6FAA"/>
</linearGradient>
<linearGradient id="paint15_linear_278_2454" x1="410.48" y1="328.64" x2="410.805" y2="318.054" gradientUnits="userSpaceOnUse">
<stop stop-color="#F6F6F6"/>
<stop offset="1" stop-color="#CCD5ED"/>
</linearGradient>
<linearGradient id="paint16_linear_278_2454" x1="367.215" y1="239.608" x2="367.215" y2="255.92" gradientUnits="userSpaceOnUse">
<stop stop-color="#F6F6F6"/>
<stop offset="1" stop-color="#CCD5ED"/>
</linearGradient>
<linearGradient id="paint17_linear_278_2454" x1="396.242" y1="258.799" x2="388.409" y2="280.627" gradientUnits="userSpaceOnUse">
<stop stop-color="#F6F6F6"/>
<stop offset="1" stop-color="#CCD5ED"/>
</linearGradient>
<linearGradient id="paint18_linear_278_2454" x1="436.449" y1="286.273" x2="437.3" y2="304.407" gradientUnits="userSpaceOnUse">
<stop stop-color="#F6F6F6"/>
<stop offset="1" stop-color="#CCD5ED"/>
</linearGradient>
<linearGradient id="paint19_linear_278_2454" x1="400.999" y1="272.507" x2="417.6" y2="305.111" gradientUnits="userSpaceOnUse">
<stop stop-color="#F6F6F6"/>
<stop offset="1" stop-color="#CCD5ED"/>
</linearGradient>
<linearGradient id="paint20_linear_278_2454" x1="339.521" y1="234.499" x2="329.632" y2="322.616" gradientUnits="userSpaceOnUse">
<stop stop-color="#4790CD"/>
<stop offset="1" stop-color="#EA6FAA"/>
</linearGradient>
<linearGradient id="paint21_linear_278_2454" x1="430.544" y1="236.659" x2="426.734" y2="243.372" gradientUnits="userSpaceOnUse">
<stop stop-color="#4790CD"/>
<stop offset="1" stop-color="#EA6FAA"/>
</linearGradient>
<linearGradient id="paint22_linear_278_2454" x1="394.074" y1="207.325" x2="365.303" y2="280.947" gradientUnits="userSpaceOnUse">
<stop stop-color="#4790CD"/>
<stop offset="1" stop-color="#EA6FAA"/>
</linearGradient>
<linearGradient id="paint23_linear_278_2454" x1="160.4" y1="240.716" x2="213.458" y2="286.806" gradientUnits="userSpaceOnUse">
<stop stop-color="#F6F6F6"/>
<stop offset="1" stop-color="#CCD5ED"/>
</linearGradient>
<linearGradient id="paint24_linear_278_2454" x1="232.924" y1="254.174" x2="280.466" y2="268.941" gradientUnits="userSpaceOnUse">
<stop stop-color="#F6F6F6"/>
<stop offset="1" stop-color="#CCD5ED"/>
</linearGradient>
<linearGradient id="paint25_linear_278_2454" x1="200.223" y1="205.644" x2="199.173" y2="247.595" gradientUnits="userSpaceOnUse">
<stop stop-color="#F6F6F6"/>
<stop offset="1" stop-color="#CCD5ED"/>
</linearGradient>
<linearGradient id="paint26_linear_278_2454" x1="256.947" y1="238.627" x2="267.196" y2="194.832" gradientUnits="userSpaceOnUse">
<stop stop-color="#F6F6F6"/>
<stop offset="1" stop-color="#CCD5ED"/>
</linearGradient>
<linearGradient id="paint27_linear_278_2454" x1="239.502" y1="195.55" x2="230.082" y2="217.334" gradientUnits="userSpaceOnUse">
<stop stop-color="#F6F6F6"/>
<stop offset="1" stop-color="#CCD5ED"/>
</linearGradient>
<linearGradient id="paint28_linear_278_2454" x1="160.522" y1="195.028" x2="193.456" y2="244.813" gradientUnits="userSpaceOnUse">
<stop stop-color="#F6F6F6"/>
<stop offset="1" stop-color="#CCD5ED"/>
</linearGradient>
<linearGradient id="paint29_linear_278_2454" x1="234.628" y1="207.277" x2="273.297" y2="228.178" gradientUnits="userSpaceOnUse">
<stop stop-color="#F6F6F6"/>
<stop offset="1" stop-color="#CCD5ED"/>
</linearGradient>
<linearGradient id="paint30_linear_278_2454" x1="200.223" y1="173.512" x2="199.173" y2="215.462" gradientUnits="userSpaceOnUse">
<stop stop-color="#F6F6F6"/>
<stop offset="1" stop-color="#CCD5ED"/>
</linearGradient>
<linearGradient id="paint31_linear_278_2454" x1="256.947" y1="206.494" x2="267.196" y2="162.7" gradientUnits="userSpaceOnUse">
<stop stop-color="#F6F6F6"/>
<stop offset="1" stop-color="#CCD5ED"/>
</linearGradient>
<linearGradient id="paint32_linear_278_2454" x1="239.502" y1="163.418" x2="230.082" y2="185.202" gradientUnits="userSpaceOnUse">
<stop stop-color="#F6F6F6"/>
<stop offset="1" stop-color="#CCD5ED"/>
</linearGradient>
<linearGradient id="paint33_linear_278_2454" x1="160.522" y1="162.895" x2="193.455" y2="212.681" gradientUnits="userSpaceOnUse">
<stop stop-color="#F6F6F6"/>
<stop offset="1" stop-color="#CCD5ED"/>
</linearGradient>
<linearGradient id="paint34_linear_278_2454" x1="234.628" y1="175.144" x2="273.297" y2="196.045" gradientUnits="userSpaceOnUse">
<stop stop-color="#F6F6F6"/>
<stop offset="1" stop-color="#CCD5ED"/>
</linearGradient>
<linearGradient id="paint35_linear_278_2454" x1="200.223" y1="141.379" x2="199.173" y2="183.33" gradientUnits="userSpaceOnUse">
<stop stop-color="#F6F6F6"/>
<stop offset="1" stop-color="#CCD5ED"/>
</linearGradient>
<linearGradient id="paint36_linear_278_2454" x1="256.947" y1="174.362" x2="267.196" y2="130.567" gradientUnits="userSpaceOnUse">
<stop stop-color="#F6F6F6"/>
<stop offset="1" stop-color="#CCD5ED"/>
</linearGradient>
<linearGradient id="paint37_linear_278_2454" x1="239.502" y1="131.285" x2="230.082" y2="153.069" gradientUnits="userSpaceOnUse">
<stop stop-color="#F6F6F6"/>
<stop offset="1" stop-color="#CCD5ED"/>
</linearGradient>
<linearGradient id="paint38_linear_278_2454" x1="237.979" y1="135.163" x2="229.8" y2="123.625" gradientUnits="userSpaceOnUse">
<stop stop-color="#F6F6F6"/>
<stop offset="1" stop-color="#CCD5ED"/>
</linearGradient>
<linearGradient id="paint39_linear_278_2454" x1="160.401" y1="128.252" x2="213.456" y2="174.343" gradientUnits="userSpaceOnUse">
<stop stop-color="#F6F6F6"/>
<stop offset="1" stop-color="#CCD5ED"/>
</linearGradient>
<linearGradient id="paint40_linear_278_2454" x1="232.924" y1="141.71" x2="280.466" y2="156.477" gradientUnits="userSpaceOnUse">
<stop stop-color="#F6F6F6"/>
<stop offset="1" stop-color="#CCD5ED"/>
</linearGradient>
<linearGradient id="paint41_linear_278_2454" x1="200.223" y1="93.1821" x2="199.173" y2="135.133" gradientUnits="userSpaceOnUse">
<stop stop-color="#F6F6F6"/>
<stop offset="1" stop-color="#CCD5ED"/>
</linearGradient>
<linearGradient id="paint42_linear_278_2454" x1="256.947" y1="126.165" x2="267.196" y2="82.3704" gradientUnits="userSpaceOnUse">
<stop stop-color="#F6F6F6"/>
<stop offset="1" stop-color="#CCD5ED"/>
</linearGradient>
<linearGradient id="paint43_linear_278_2454" x1="237.979" y1="86.9658" x2="229.8" y2="75.4282" gradientUnits="userSpaceOnUse">
<stop stop-color="#F6F6F6"/>
<stop offset="1" stop-color="#CCD5ED"/>
</linearGradient>
<linearGradient id="paint44_linear_278_2454" x1="284.562" y1="155.203" x2="284.145" y2="160.994" gradientUnits="userSpaceOnUse">
<stop stop-color="#4790CD"/>
<stop offset="1" stop-color="#DA62A5"/>
</linearGradient>
<linearGradient id="paint45_linear_278_2454" x1="290.252" y1="160.654" x2="293.068" y2="160.238" gradientUnits="userSpaceOnUse">
<stop stop-color="#4790CD"/>
<stop offset="1" stop-color="#DA62A5"/>
</linearGradient>
<linearGradient id="paint46_linear_278_2454" x1="286.104" y1="151.726" x2="286.104" y2="155.074" gradientUnits="userSpaceOnUse">
<stop stop-color="#4790CD"/>
<stop offset="1" stop-color="#DA62A5"/>
</linearGradient>
<linearGradient id="paint47_linear_278_2454" x1="275.796" y1="159.639" x2="275.379" y2="165.429" gradientUnits="userSpaceOnUse">
<stop stop-color="#4790CD"/>
<stop offset="1" stop-color="#DA62A5"/>
</linearGradient>
<linearGradient id="paint48_linear_278_2454" x1="281.486" y1="165.09" x2="284.302" y2="164.674" gradientUnits="userSpaceOnUse">
<stop stop-color="#4790CD"/>
<stop offset="1" stop-color="#DA62A5"/>
</linearGradient>
<linearGradient id="paint49_linear_278_2454" x1="277.338" y1="151.726" x2="277.338" y2="155.074" gradientUnits="userSpaceOnUse">
<stop stop-color="#4790CD"/>
<stop offset="1" stop-color="#DA62A5"/>
</linearGradient>
<linearGradient id="paint50_linear_278_2454" x1="255.885" y1="203.122" x2="255.468" y2="208.913" gradientUnits="userSpaceOnUse">
<stop stop-color="#4790CD"/>
<stop offset="1" stop-color="#DA62A5"/>
</linearGradient>
<linearGradient id="paint51_linear_278_2454" x1="261.574" y1="208.575" x2="264.39" y2="208.159" gradientUnits="userSpaceOnUse">
<stop stop-color="#4790CD"/>
<stop offset="1" stop-color="#DA62A5"/>
</linearGradient>
<linearGradient id="paint52_linear_278_2454" x1="257.426" y1="199.645" x2="257.426" y2="202.993" gradientUnits="userSpaceOnUse">
<stop stop-color="#4790CD"/>
<stop offset="1" stop-color="#DA62A5"/>
</linearGradient>
<linearGradient id="paint53_linear_278_2454" x1="247.119" y1="207.558" x2="246.702" y2="213.349" gradientUnits="userSpaceOnUse">
<stop stop-color="#4790CD"/>
<stop offset="1" stop-color="#DA62A5"/>
</linearGradient>
<linearGradient id="paint54_linear_278_2454" x1="252.808" y1="213.009" x2="255.624" y2="212.593" gradientUnits="userSpaceOnUse">
<stop stop-color="#4790CD"/>
<stop offset="1" stop-color="#DA62A5"/>
</linearGradient>
<linearGradient id="paint55_linear_278_2454" x1="248.66" y1="199.645" x2="248.66" y2="202.993" gradientUnits="userSpaceOnUse">
<stop stop-color="#4790CD"/>
<stop offset="1" stop-color="#DA62A5"/>
</linearGradient>
<linearGradient id="paint56_linear_278_2454" x1="185.75" y1="156.801" x2="186.168" y2="162.591" gradientUnits="userSpaceOnUse">
<stop stop-color="#4790CD"/>
<stop offset="1" stop-color="#DA62A5"/>
</linearGradient>
<linearGradient id="paint57_linear_278_2454" x1="189.728" y1="154.845" x2="186.912" y2="154.43" gradientUnits="userSpaceOnUse">
<stop stop-color="#4790CD"/>
<stop offset="1" stop-color="#DA62A5"/>
</linearGradient>
<linearGradient id="paint58_linear_278_2454" x1="189.732" y1="152.699" x2="189.732" y2="156.048" gradientUnits="userSpaceOnUse">
<stop stop-color="#4790CD"/>
<stop offset="1" stop-color="#DA62A5"/>
</linearGradient>
<linearGradient id="paint59_linear_278_2454" x1="194.516" y1="161.237" x2="194.933" y2="167.027" gradientUnits="userSpaceOnUse">
<stop stop-color="#4790CD"/>
<stop offset="1" stop-color="#DA62A5"/>
</linearGradient>
<linearGradient id="paint60_linear_278_2454" x1="198.495" y1="159.282" x2="195.678" y2="158.866" gradientUnits="userSpaceOnUse">
<stop stop-color="#4790CD"/>
<stop offset="1" stop-color="#DA62A5"/>
</linearGradient>
<linearGradient id="paint61_linear_278_2454" x1="198.499" y1="152.699" x2="198.499" y2="156.048" gradientUnits="userSpaceOnUse">
<stop stop-color="#4790CD"/>
<stop offset="1" stop-color="#DA62A5"/>
</linearGradient>
<linearGradient id="paint62_linear_278_2454" x1="214.428" y1="204.72" x2="214.845" y2="210.511" gradientUnits="userSpaceOnUse">
<stop stop-color="#4790CD"/>
<stop offset="1" stop-color="#DA62A5"/>
</linearGradient>
<linearGradient id="paint63_linear_278_2454" x1="218.406" y1="202.765" x2="215.59" y2="202.349" gradientUnits="userSpaceOnUse">
<stop stop-color="#4790CD"/>
<stop offset="1" stop-color="#DA62A5"/>
</linearGradient>
<linearGradient id="paint64_linear_278_2454" x1="218.41" y1="200.619" x2="218.41" y2="203.967" gradientUnits="userSpaceOnUse">
<stop stop-color="#4790CD"/>
<stop offset="1" stop-color="#DA62A5"/>
</linearGradient>
<linearGradient id="paint65_linear_278_2454" x1="223.194" y1="209.156" x2="223.611" y2="214.947" gradientUnits="userSpaceOnUse">
<stop stop-color="#4790CD"/>
<stop offset="1" stop-color="#DA62A5"/>
</linearGradient>
<linearGradient id="paint66_linear_278_2454" x1="227.172" y1="207.202" x2="224.356" y2="206.786" gradientUnits="userSpaceOnUse">
<stop stop-color="#4790CD"/>
<stop offset="1" stop-color="#DA62A5"/>
</linearGradient>
<linearGradient id="paint67_linear_278_2454" x1="227.177" y1="200.619" x2="227.177" y2="203.967" gradientUnits="userSpaceOnUse">
<stop stop-color="#4790CD"/>
<stop offset="1" stop-color="#DA62A5"/>
</linearGradient>
<linearGradient id="paint68_linear_278_2454" x1="499.857" y1="344.675" x2="507.332" y2="320.4" gradientUnits="userSpaceOnUse">
<stop stop-color="#F6F6F6"/>
<stop offset="1" stop-color="#CCD5ED"/>
</linearGradient>
<linearGradient id="paint69_linear_278_2454" x1="496.037" y1="348.996" x2="547.735" y2="314.048" gradientUnits="userSpaceOnUse">
<stop stop-color="#F6F6F6"/>
<stop offset="1" stop-color="#CCD5ED"/>
</linearGradient>
<linearGradient id="paint70_linear_278_2454" x1="442.037" y1="343.816" x2="484.455" y2="343.816" gradientUnits="userSpaceOnUse">
<stop stop-color="#F6F6F6"/>
<stop offset="1" stop-color="#CCD5ED"/>
</linearGradient>
<linearGradient id="paint71_linear_278_2454" x1="496.887" y1="289.321" x2="523.282" y2="236.961" gradientUnits="userSpaceOnUse">
<stop stop-color="#F6F6F6"/>
<stop offset="1" stop-color="#CCD5ED"/>
</linearGradient>
<linearGradient id="paint72_linear_278_2454" x1="671.978" y1="-582.539" x2="610.441" y2="-582.295" gradientUnits="userSpaceOnUse">
<stop stop-color="#F6F6F6"/>
<stop offset="1" stop-color="#CCD5ED"/>
</linearGradient>
<linearGradient id="paint73_linear_278_2454" x1="368.413" y1="150.707" x2="651" y2="150.707" gradientUnits="userSpaceOnUse">
<stop stop-color="#F6F6F6"/>
<stop offset="1" stop-color="#CCD5ED"/>
</linearGradient>
<linearGradient id="paint74_linear_278_2454" x1="528.317" y1="268.215" x2="521.549" y2="266.956" gradientUnits="userSpaceOnUse">
<stop stop-color="#F6F6F6"/>
<stop offset="1" stop-color="#CCD5ED"/>
</linearGradient>
<linearGradient id="paint75_linear_278_2454" x1="532.48" y1="-105.611" x2="287.61" y2="-26.1435" gradientUnits="userSpaceOnUse">
<stop stop-color="#F6F6F6"/>
<stop offset="1" stop-color="#CCD5ED"/>
</linearGradient>
<linearGradient id="paint76_linear_278_2454" x1="351.447" y1="-36.6981" x2="568.846" y2="345.186" gradientUnits="userSpaceOnUse">
<stop stop-color="#F6F6F6"/>
<stop offset="1" stop-color="#CCD5ED"/>
</linearGradient>
<linearGradient id="paint77_linear_278_2454" x1="323.127" y1="14.4339" x2="526.164" y2="120.248" gradientUnits="userSpaceOnUse">
<stop stop-color="#F6F6F6"/>
<stop offset="1" stop-color="#CCD5ED"/>
</linearGradient>
<linearGradient id="paint78_linear_278_2454" x1="309.594" y1="241.748" x2="309.594" y2="261.438" gradientUnits="userSpaceOnUse">
<stop stop-color="#F6F6F6"/>
<stop offset="1" stop-color="#CCD5ED"/>
</linearGradient>
<linearGradient id="paint79_linear_278_2454" x1="351.664" y1="265.726" x2="342.577" y2="260.694" gradientUnits="userSpaceOnUse">
<stop stop-color="#FAD6C7"/>
<stop offset="1" stop-color="#E4857F"/>
</linearGradient>
<linearGradient id="paint80_linear_278_2454" x1="344.17" y1="266.959" x2="335.083" y2="261.927" gradientUnits="userSpaceOnUse">
<stop stop-color="#FAD6C7"/>
<stop offset="1" stop-color="#E4857F"/>
</linearGradient>
<linearGradient id="paint81_linear_278_2454" x1="337.688" y1="194.283" x2="338.99" y2="235.096" gradientUnits="userSpaceOnUse">
<stop stop-color="#4790CD"/>
<stop offset="1" stop-color="#DA62A5"/>
</linearGradient>
<linearGradient id="paint82_linear_278_2454" x1="356.047" y1="220.462" x2="353.305" y2="189.712" gradientUnits="userSpaceOnUse">
<stop stop-color="#F6F6F6"/>
<stop offset="1" stop-color="#CCD5ED"/>
</linearGradient>
<linearGradient id="paint83_linear_278_2454" x1="351.253" y1="190.099" x2="340.202" y2="209.592" gradientUnits="userSpaceOnUse">
<stop stop-color="#4790CD"/>
<stop offset="1" stop-color="#DA62A5"/>
</linearGradient>
<linearGradient id="paint84_linear_278_2454" x1="349.259" y1="192.327" x2="349.304" y2="190.269" gradientUnits="userSpaceOnUse">
<stop stop-color="#FAD6C7"/>
<stop offset="1" stop-color="#E4857F"/>
</linearGradient>
<linearGradient id="paint85_linear_278_2454" x1="351.714" y1="189.241" x2="351.472" y2="186.181" gradientUnits="userSpaceOnUse">
<stop stop-color="#FAD6C7"/>
<stop offset="1" stop-color="#E4857F"/>
</linearGradient>
<linearGradient id="paint86_linear_278_2454" x1="311.199" y1="196.664" x2="313.281" y2="269.604" gradientUnits="userSpaceOnUse">
<stop stop-color="#FAD6C7"/>
<stop offset="1" stop-color="#E4857F"/>
</linearGradient>
<linearGradient id="paint87_linear_278_2454" x1="324.443" y1="195.551" x2="325.82" y2="235.557" gradientUnits="userSpaceOnUse">
<stop stop-color="#4790CD"/>
<stop offset="1" stop-color="#DA62A5"/>
</linearGradient>
<linearGradient id="paint88_linear_278_2454" x1="134.007" y1="277.909" x2="223.348" y2="296.874" gradientUnits="userSpaceOnUse">
<stop stop-color="#4790CD"/>
<stop offset="1" stop-color="#DA62A5"/>
</linearGradient>
<linearGradient id="paint89_linear_278_2454" x1="168.729" y1="162.578" x2="169.27" y2="173.463" gradientUnits="userSpaceOnUse">
<stop stop-color="#4790CD"/>
<stop offset="1" stop-color="#DA62A5"/>
</linearGradient>
<linearGradient id="paint90_linear_278_2454" x1="149.123" y1="261.32" x2="149.423" y2="265.174" gradientUnits="userSpaceOnUse">
<stop stop-color="#4790CD"/>
<stop offset="1" stop-color="#DA62A5"/>
</linearGradient>
<linearGradient id="paint91_linear_278_2454" x1="149.123" y1="263.603" x2="149.423" y2="267.456" gradientUnits="userSpaceOnUse">
<stop stop-color="#4790CD"/>
<stop offset="1" stop-color="#DA62A5"/>
</linearGradient>
<linearGradient id="paint92_linear_278_2454" x1="149.123" y1="265.885" x2="149.423" y2="269.739" gradientUnits="userSpaceOnUse">
<stop stop-color="#4790CD"/>
<stop offset="1" stop-color="#DA62A5"/>
</linearGradient>
<linearGradient id="paint93_linear_278_2454" x1="149.123" y1="268.167" x2="149.423" y2="272.021" gradientUnits="userSpaceOnUse">
<stop stop-color="#4790CD"/>
<stop offset="1" stop-color="#DA62A5"/>
</linearGradient>
<linearGradient id="paint94_linear_278_2454" x1="152.092" y1="269.972" x2="152.313" y2="272.691" gradientUnits="userSpaceOnUse">
<stop stop-color="#4790CD"/>
<stop offset="1" stop-color="#DA62A5"/>
</linearGradient>
<linearGradient id="paint95_linear_278_2454" x1="136.285" y1="256.461" x2="147.636" y2="286.695" gradientUnits="userSpaceOnUse">
<stop stop-color="#4790CD"/>
<stop offset="1" stop-color="#DA62A5"/>
</linearGradient>
<linearGradient id="paint96_linear_278_2454" x1="202.177" y1="211.906" x2="204.625" y2="218.281" gradientUnits="userSpaceOnUse">
<stop stop-color="#F6F6F6"/>
<stop offset="1" stop-color="#CCD5ED"/>
</linearGradient>
<linearGradient id="paint97_linear_278_2454" x1="210.356" y1="239.427" x2="229.613" y2="256.249" gradientUnits="userSpaceOnUse">
<stop stop-color="#FAD6C7"/>
<stop offset="1" stop-color="#E4857F"/>
</linearGradient>
<linearGradient id="paint98_linear_278_2454" x1="188.348" y1="290.328" x2="188.348" y2="312.193" gradientUnits="userSpaceOnUse">
<stop stop-color="#F6F6F6"/>
<stop offset="1" stop-color="#CCD5ED"/>
</linearGradient>
<linearGradient id="paint99_linear_278_2454" x1="231.108" y1="304.376" x2="248.929" y2="294.037" gradientUnits="userSpaceOnUse">
<stop stop-color="#FAD6C7"/>
<stop offset="1" stop-color="#E4857F"/>
</linearGradient>
<linearGradient id="paint100_linear_278_2454" x1="241.111" y1="302.658" x2="261.983" y2="283.13" gradientUnits="userSpaceOnUse">
<stop stop-color="#FAD6C7"/>
<stop offset="1" stop-color="#E4857F"/>
</linearGradient>
<linearGradient id="paint101_linear_278_2454" x1="223.539" y1="280.213" x2="217.308" y2="276.917" gradientUnits="userSpaceOnUse">
<stop stop-color="#FAD6C7"/>
<stop offset="1" stop-color="#E4857F"/>
</linearGradient>
<linearGradient id="paint102_linear_278_2454" x1="240.494" y1="281.995" x2="248.989" y2="245.792" gradientUnits="userSpaceOnUse">
<stop stop-color="#F6F6F6"/>
<stop offset="1" stop-color="#CCD5ED"/>
</linearGradient>
<linearGradient id="paint103_linear_278_2454" x1="226.663" y1="273.493" x2="236.257" y2="272.157" gradientUnits="userSpaceOnUse">
<stop stop-color="#FAD6C7"/>
<stop offset="1" stop-color="#E4857F"/>
</linearGradient>
<linearGradient id="paint104_linear_278_2454" x1="233.441" y1="281.523" x2="239.912" y2="244.538" gradientUnits="userSpaceOnUse">
<stop stop-color="#F6F6F6"/>
<stop offset="1" stop-color="#CCD5ED"/>
</linearGradient>
<linearGradient id="paint105_linear_278_2454" x1="237.305" y1="238.618" x2="239.281" y2="224.058" gradientUnits="userSpaceOnUse">
<stop stop-color="#FAD6C7"/>
<stop offset="1" stop-color="#E4857F"/>
</linearGradient>
<linearGradient id="paint106_linear_278_2454" x1="-18.0791" y1="334.291" x2="34.979" y2="380.381" gradientUnits="userSpaceOnUse">
<stop stop-color="#F6F6F6"/>
<stop offset="1" stop-color="#CCD5ED"/>
</linearGradient>
<linearGradient id="paint107_linear_278_2454" x1="54.4444" y1="347.749" x2="101.987" y2="362.515" gradientUnits="userSpaceOnUse">
<stop stop-color="#F6F6F6"/>
<stop offset="1" stop-color="#CCD5ED"/>
</linearGradient>
<linearGradient id="paint108_linear_278_2454" x1="21.7434" y1="299.219" x2="20.6934" y2="341.17" gradientUnits="userSpaceOnUse">
<stop stop-color="#F6F6F6"/>
<stop offset="1" stop-color="#CCD5ED"/>
</linearGradient>
<linearGradient id="paint109_linear_278_2454" x1="78.4678" y1="332.202" x2="88.7164" y2="288.407" gradientUnits="userSpaceOnUse">
<stop stop-color="#F6F6F6"/>
<stop offset="1" stop-color="#CCD5ED"/>
</linearGradient>
<linearGradient id="paint110_linear_278_2454" x1="61.0229" y1="289.125" x2="51.6025" y2="310.909" gradientUnits="userSpaceOnUse">
<stop stop-color="#F6F6F6"/>
<stop offset="1" stop-color="#CCD5ED"/>
</linearGradient>
<linearGradient id="paint111_linear_278_2454" x1="-17.9579" y1="288.603" x2="14.9754" y2="338.388" gradientUnits="userSpaceOnUse">
<stop stop-color="#F6F6F6"/>
<stop offset="1" stop-color="#CCD5ED"/>
</linearGradient>
<linearGradient id="paint112_linear_278_2454" x1="56.1483" y1="300.852" x2="94.8168" y2="321.753" gradientUnits="userSpaceOnUse">
<stop stop-color="#F6F6F6"/>
<stop offset="1" stop-color="#CCD5ED"/>
</linearGradient>
<linearGradient id="paint113_linear_278_2454" x1="21.7434" y1="267.087" x2="20.6934" y2="309.037" gradientUnits="userSpaceOnUse">
<stop stop-color="#F6F6F6"/>
<stop offset="1" stop-color="#CCD5ED"/>
</linearGradient>
<linearGradient id="paint114_linear_278_2454" x1="78.4674" y1="300.069" x2="88.7162" y2="256.275" gradientUnits="userSpaceOnUse">
<stop stop-color="#F6F6F6"/>
<stop offset="1" stop-color="#CCD5ED"/>
</linearGradient>
<linearGradient id="paint115_linear_278_2454" x1="61.0229" y1="256.992" x2="51.6025" y2="278.777" gradientUnits="userSpaceOnUse">
<stop stop-color="#F6F6F6"/>
<stop offset="1" stop-color="#CCD5ED"/>
</linearGradient>
<linearGradient id="paint116_linear_278_2454" x1="-17.9579" y1="256.47" x2="14.9754" y2="306.256" gradientUnits="userSpaceOnUse">
<stop stop-color="#F6F6F6"/>
<stop offset="1" stop-color="#CCD5ED"/>
</linearGradient>
<linearGradient id="paint117_linear_278_2454" x1="56.1483" y1="268.719" x2="94.8167" y2="289.621" gradientUnits="userSpaceOnUse">
<stop stop-color="#F6F6F6"/>
<stop offset="1" stop-color="#CCD5ED"/>
</linearGradient>
<linearGradient id="paint118_linear_278_2454" x1="21.7437" y1="234.954" x2="20.6937" y2="276.905" gradientUnits="userSpaceOnUse">
<stop stop-color="#F6F6F6"/>
<stop offset="1" stop-color="#CCD5ED"/>
</linearGradient>
<linearGradient id="paint119_linear_278_2454" x1="78.4674" y1="267.937" x2="88.7162" y2="224.142" gradientUnits="userSpaceOnUse">
<stop stop-color="#F6F6F6"/>
<stop offset="1" stop-color="#CCD5ED"/>
</linearGradient>
<linearGradient id="paint120_linear_278_2454" x1="61.0229" y1="224.86" x2="51.6025" y2="246.644" gradientUnits="userSpaceOnUse">
<stop stop-color="#F6F6F6"/>
<stop offset="1" stop-color="#CCD5ED"/>
</linearGradient>
<linearGradient id="paint121_linear_278_2454" x1="59.499" y1="228.738" x2="51.32" y2="217.2" gradientUnits="userSpaceOnUse">
<stop stop-color="#F6F6F6"/>
<stop offset="1" stop-color="#CCD5ED"/>
</linearGradient>
<linearGradient id="paint122_linear_278_2454" x1="-18.0791" y1="221.827" x2="34.9766" y2="267.918" gradientUnits="userSpaceOnUse">
<stop stop-color="#F6F6F6"/>
<stop offset="1" stop-color="#CCD5ED"/>
</linearGradient>
<linearGradient id="paint123_linear_278_2454" x1="54.4446" y1="235.285" x2="101.986" y2="250.052" gradientUnits="userSpaceOnUse">
<stop stop-color="#F6F6F6"/>
<stop offset="1" stop-color="#CCD5ED"/>
</linearGradient>
<linearGradient id="paint124_linear_278_2454" x1="21.7437" y1="186.757" x2="20.6936" y2="228.708" gradientUnits="userSpaceOnUse">
<stop stop-color="#F6F6F6"/>
<stop offset="1" stop-color="#CCD5ED"/>
</linearGradient>
<linearGradient id="paint125_linear_278_2454" x1="78.4674" y1="219.74" x2="88.7162" y2="175.945" gradientUnits="userSpaceOnUse">
<stop stop-color="#F6F6F6"/>
<stop offset="1" stop-color="#CCD5ED"/>
</linearGradient>
<linearGradient id="paint126_linear_278_2454" x1="59.4991" y1="180.541" x2="51.3201" y2="169.003" gradientUnits="userSpaceOnUse">
<stop stop-color="#F6F6F6"/>
<stop offset="1" stop-color="#CCD5ED"/>
</linearGradient>
<linearGradient id="paint127_linear_278_2454" x1="106.082" y1="248.778" x2="105.665" y2="254.569" gradientUnits="userSpaceOnUse">
<stop stop-color="#4790CD"/>
<stop offset="1" stop-color="#DA62A5"/>
</linearGradient>
<linearGradient id="paint128_linear_278_2454" x1="111.771" y1="254.229" x2="114.587" y2="253.813" gradientUnits="userSpaceOnUse">
<stop stop-color="#4790CD"/>
<stop offset="1" stop-color="#DA62A5"/>
</linearGradient>
<linearGradient id="paint129_linear_278_2454" x1="107.623" y1="245.301" x2="107.623" y2="248.649" gradientUnits="userSpaceOnUse">
<stop stop-color="#4790CD"/>
<stop offset="1" stop-color="#DA62A5"/>
</linearGradient>
<linearGradient id="paint130_linear_278_2454" x1="97.3162" y1="253.214" x2="96.899" y2="259.004" gradientUnits="userSpaceOnUse">
<stop stop-color="#4790CD"/>
<stop offset="1" stop-color="#DA62A5"/>
</linearGradient>
<linearGradient id="paint131_linear_278_2454" x1="103.005" y1="258.666" x2="105.821" y2="258.251" gradientUnits="userSpaceOnUse">
<stop stop-color="#4790CD"/>
<stop offset="1" stop-color="#DA62A5"/>
</linearGradient>
<linearGradient id="paint132_linear_278_2454" x1="98.857" y1="245.301" x2="98.857" y2="248.649" gradientUnits="userSpaceOnUse">
<stop stop-color="#4790CD"/>
<stop offset="1" stop-color="#DA62A5"/>
</linearGradient>
<linearGradient id="paint133_linear_278_2454" x1="77.4053" y1="296.697" x2="76.9882" y2="302.488" gradientUnits="userSpaceOnUse">
<stop stop-color="#4790CD"/>
<stop offset="1" stop-color="#DA62A5"/>
</linearGradient>
<linearGradient id="paint134_linear_278_2454" x1="83.0946" y1="302.15" x2="85.9107" y2="301.734" gradientUnits="userSpaceOnUse">
<stop stop-color="#4790CD"/>
<stop offset="1" stop-color="#DA62A5"/>
</linearGradient>
<linearGradient id="paint135_linear_278_2454" x1="78.9464" y1="293.22" x2="78.9464" y2="296.568" gradientUnits="userSpaceOnUse">
<stop stop-color="#4790CD"/>
<stop offset="1" stop-color="#DA62A5"/>
</linearGradient>
<linearGradient id="paint136_linear_278_2454" x1="68.6386" y1="301.133" x2="68.2214" y2="306.924" gradientUnits="userSpaceOnUse">
<stop stop-color="#4790CD"/>
<stop offset="1" stop-color="#DA62A5"/>
</linearGradient>
<linearGradient id="paint137_linear_278_2454" x1="74.3279" y1="306.584" x2="77.1443" y2="306.169" gradientUnits="userSpaceOnUse">
<stop stop-color="#4790CD"/>
<stop offset="1" stop-color="#DA62A5"/>
</linearGradient>
<linearGradient id="paint138_linear_278_2454" x1="70.1796" y1="293.22" x2="70.1796" y2="296.568" gradientUnits="userSpaceOnUse">
<stop stop-color="#4790CD"/>
<stop offset="1" stop-color="#DA62A5"/>
</linearGradient>
<linearGradient id="paint139_linear_278_2454" x1="7.27059" y1="250.376" x2="7.68765" y2="256.166" gradientUnits="userSpaceOnUse">
<stop stop-color="#4790CD"/>
<stop offset="1" stop-color="#DA62A5"/>
</linearGradient>
<linearGradient id="paint140_linear_278_2454" x1="11.2488" y1="248.42" x2="8.43262" y2="248.004" gradientUnits="userSpaceOnUse">
<stop stop-color="#4790CD"/>
<stop offset="1" stop-color="#DA62A5"/>
</linearGradient>
<linearGradient id="paint141_linear_278_2454" x1="11.253" y1="246.274" x2="11.253" y2="249.622" gradientUnits="userSpaceOnUse">
<stop stop-color="#4790CD"/>
<stop offset="1" stop-color="#DA62A5"/>
</linearGradient>
<linearGradient id="paint142_linear_278_2454" x1="16.0374" y1="254.811" x2="16.4545" y2="260.602" gradientUnits="userSpaceOnUse">
<stop stop-color="#4790CD"/>
<stop offset="1" stop-color="#DA62A5"/>
</linearGradient>
<linearGradient id="paint143_linear_278_2454" x1="20.0159" y1="252.857" x2="17.1995" y2="252.441" gradientUnits="userSpaceOnUse">
<stop stop-color="#4790CD"/>
<stop offset="1" stop-color="#DA62A5"/>
</linearGradient>
<linearGradient id="paint144_linear_278_2454" x1="20.0196" y1="246.274" x2="20.0196" y2="249.622" gradientUnits="userSpaceOnUse">
<stop stop-color="#4790CD"/>
<stop offset="1" stop-color="#DA62A5"/>
</linearGradient>
<linearGradient id="paint145_linear_278_2454" x1="35.9478" y1="298.295" x2="36.3649" y2="304.086" gradientUnits="userSpaceOnUse">
<stop stop-color="#4790CD"/>
<stop offset="1" stop-color="#DA62A5"/>
</linearGradient>
<linearGradient id="paint146_linear_278_2454" x1="39.9264" y1="296.341" x2="37.1099" y2="295.925" gradientUnits="userSpaceOnUse">
<stop stop-color="#4790CD"/>
<stop offset="1" stop-color="#DA62A5"/>
</linearGradient>
<linearGradient id="paint147_linear_278_2454" x1="39.9306" y1="294.194" x2="39.9306" y2="297.542" gradientUnits="userSpaceOnUse">
<stop stop-color="#4790CD"/>
<stop offset="1" stop-color="#DA62A5"/>
</linearGradient>
<linearGradient id="paint148_linear_278_2454" x1="44.7151" y1="302.731" x2="45.1323" y2="308.521" gradientUnits="userSpaceOnUse">
<stop stop-color="#4790CD"/>
<stop offset="1" stop-color="#DA62A5"/>
</linearGradient>
<linearGradient id="paint149_linear_278_2454" x1="48.693" y1="300.775" x2="45.8769" y2="300.36" gradientUnits="userSpaceOnUse">
<stop stop-color="#4790CD"/>
<stop offset="1" stop-color="#DA62A5"/>
</linearGradient>
<linearGradient id="paint150_linear_278_2454" x1="48.6973" y1="294.193" x2="48.6973" y2="297.542" gradientUnits="userSpaceOnUse">
<stop stop-color="#4790CD"/>
<stop offset="1" stop-color="#DA62A5"/>
</linearGradient>
<linearGradient id="paint151_linear_278_2454" x1="47.2253" y1="395.925" x2="47.1449" y2="392.69" gradientUnits="userSpaceOnUse">
<stop stop-color="#F6F6F6"/>
<stop offset="1" stop-color="#CCD5ED"/>
</linearGradient>
<linearGradient id="paint152_linear_278_2454" x1="27.0557" y1="338.221" x2="-6.58517" y2="363.158" gradientUnits="userSpaceOnUse">
<stop stop-color="#F6F6F6"/>
<stop offset="1" stop-color="#CCD5ED"/>
</linearGradient>
<linearGradient id="paint153_linear_278_2454" x1="25.3635" y1="350.75" x2="47.4901" y2="350.75" gradientUnits="userSpaceOnUse">
<stop stop-color="#F6F6F6"/>
<stop offset="1" stop-color="#CCD5ED"/>
</linearGradient>
<linearGradient id="paint154_linear_278_2454" x1="10.8703" y1="344.259" x2="10.8511" y2="353.7" gradientUnits="userSpaceOnUse">
<stop stop-color="#4790CD"/>
<stop offset="1" stop-color="#EA6FAA"/>
</linearGradient>
<linearGradient id="paint155_linear_278_2454" x1="35.1213" y1="253.044" x2="19.0467" y2="255.961" gradientUnits="userSpaceOnUse">
<stop stop-color="#4790CD"/>
<stop offset="1" stop-color="#EA6FAA"/>
</linearGradient>
<linearGradient id="paint156_linear_278_2454" x1="19.7804" y1="306.104" x2="38.4683" y2="346.937" gradientUnits="userSpaceOnUse">
<stop stop-color="#4790CD"/>
<stop offset="1" stop-color="#EA6FAA"/>
</linearGradient>
<linearGradient id="paint157_linear_278_2454" x1="34.0063" y1="341.296" x2="51.4597" y2="345.818" gradientUnits="userSpaceOnUse">
<stop stop-color="#4790CD"/>
<stop offset="1" stop-color="#EA6FAA"/>
</linearGradient>
<linearGradient id="paint158_linear_278_2454" x1="352.904" y1="362.825" x2="352.904" y2="386.316" gradientUnits="userSpaceOnUse">
<stop stop-color="#F6F6F6"/>
<stop offset="1" stop-color="#CCD5ED"/>
</linearGradient>
<linearGradient id="paint159_linear_278_2454" x1="395.235" y1="329.242" x2="405.13" y2="319.621" gradientUnits="userSpaceOnUse">
<stop stop-color="#FAD6C7"/>
<stop offset="1" stop-color="#E4857F"/>
</linearGradient>
<linearGradient id="paint160_linear_278_2454" x1="397.134" y1="388.728" x2="406.959" y2="386.689" gradientUnits="userSpaceOnUse">
<stop stop-color="#FAD6C7"/>
<stop offset="1" stop-color="#E4857F"/>
</linearGradient>
<linearGradient id="paint161_linear_278_2454" x1="402.767" y1="365.364" x2="418.235" y2="350.824" gradientUnits="userSpaceOnUse">
<stop stop-color="#FAD6C7"/>
<stop offset="1" stop-color="#E4857F"/>
</linearGradient>
<linearGradient id="paint162_linear_278_2454" x1="406.556" y1="356.374" x2="411.923" y2="308.953" gradientUnits="userSpaceOnUse">
<stop stop-color="#F6F6F6"/>
<stop offset="1" stop-color="#CCD5ED"/>
</linearGradient>
<linearGradient id="paint163_linear_278_2454" x1="406.857" y1="307.279" x2="404.734" y2="291.637" gradientUnits="userSpaceOnUse">
<stop stop-color="#FAD6C7"/>
<stop offset="1" stop-color="#E4857F"/>
</linearGradient>
<linearGradient id="paint164_linear_278_2454" x1="421.617" y1="324.107" x2="420.387" y2="312.276" gradientUnits="userSpaceOnUse">
<stop stop-color="#FAD6C7"/>
<stop offset="1" stop-color="#E4857F"/>
</linearGradient>
<linearGradient id="paint165_linear_278_2454" x1="401.829" y1="317.801" x2="401.965" y2="311.762" gradientUnits="userSpaceOnUse">
<stop stop-color="#F6F6F6"/>
<stop offset="1" stop-color="#CCD5ED"/>
</linearGradient>
<linearGradient id="paint166_linear_278_2454" x1="249.742" y1="388.967" x2="249.742" y2="410.403" gradientUnits="userSpaceOnUse">
<stop stop-color="#F6F6F6"/>
<stop offset="1" stop-color="#CCD5ED"/>
</linearGradient>
<linearGradient id="paint167_linear_278_2454" x1="294.488" y1="420.364" x2="304.381" y2="414.885" gradientUnits="userSpaceOnUse">
<stop stop-color="#FAD6C7"/>
<stop offset="1" stop-color="#E4857F"/>
</linearGradient>
<linearGradient id="paint168_linear_278_2454" x1="302.645" y1="421.707" x2="312.537" y2="416.229" gradientUnits="userSpaceOnUse">
<stop stop-color="#FAD6C7"/>
<stop offset="1" stop-color="#E4857F"/>
</linearGradient>
<linearGradient id="paint169_linear_278_2454" x1="227.324" y1="331.606" x2="226.47" y2="404.25" gradientUnits="userSpaceOnUse">
<stop stop-color="#FAD6C7"/>
<stop offset="1" stop-color="#E4857F"/>
</linearGradient>
<linearGradient id="paint170_linear_278_2454" x1="269.831" y1="336.101" x2="268.413" y2="380.532" gradientUnits="userSpaceOnUse">
<stop stop-color="#4790CD"/>
<stop offset="1" stop-color="#DA62A5"/>
</linearGradient>
<linearGradient id="paint171_linear_278_2454" x1="304.712" y1="367.378" x2="307.697" y2="333.902" gradientUnits="userSpaceOnUse">
<stop stop-color="#F6F6F6"/>
<stop offset="1" stop-color="#CCD5ED"/>
</linearGradient>
<linearGradient id="paint172_linear_278_2454" x1="295.269" y1="335.125" x2="295.22" y2="332.885" gradientUnits="userSpaceOnUse">
<stop stop-color="#FAD6C7"/>
<stop offset="1" stop-color="#E4857F"/>
</linearGradient>
<linearGradient id="paint173_linear_278_2454" x1="295.118" y1="332.091" x2="295.381" y2="328.759" gradientUnits="userSpaceOnUse">
<stop stop-color="#FAD6C7"/>
<stop offset="1" stop-color="#E4857F"/>
</linearGradient>
<linearGradient id="paint174_linear_278_2454" x1="265.95" y1="337.883" x2="263.683" y2="417.289" gradientUnits="userSpaceOnUse">
<stop stop-color="#FAD6C7"/>
<stop offset="1" stop-color="#E4857F"/>
</linearGradient>
<linearGradient id="paint175_linear_278_2454" x1="286.38" y1="337.462" x2="284.881" y2="381.014" gradientUnits="userSpaceOnUse">
<stop stop-color="#4790CD"/>
<stop offset="1" stop-color="#DA62A5"/>
</linearGradient>
<linearGradient id="paint176_linear_278_2454" x1="264.643" y1="308.541" x2="229.459" y2="316.01" gradientUnits="userSpaceOnUse">
<stop stop-color="#4790CD"/>
<stop offset="1" stop-color="#DA62A5"/>
</linearGradient>
<linearGradient id="paint177_linear_278_2454" x1="235.093" y1="317.92" x2="231.473" y2="317.768" gradientUnits="userSpaceOnUse">
<stop stop-color="#4790CD"/>
<stop offset="1" stop-color="#DA62A5"/>
</linearGradient>
<linearGradient id="paint178_linear_278_2454" x1="234.357" y1="321.32" x2="230.631" y2="320.978" gradientUnits="userSpaceOnUse">
<stop stop-color="#4790CD"/>
<stop offset="1" stop-color="#DA62A5"/>
</linearGradient>
<linearGradient id="paint179_linear_278_2454" x1="236.053" y1="317.778" x2="232.406" y2="317.58" gradientUnits="userSpaceOnUse">
<stop stop-color="#4790CD"/>
<stop offset="1" stop-color="#DA62A5"/>
</linearGradient>
<linearGradient id="paint180_linear_278_2454" x1="238.044" y1="313.572" x2="234.447" y2="313.454" gradientUnits="userSpaceOnUse">
<stop stop-color="#4790CD"/>
<stop offset="1" stop-color="#DA62A5"/>
</linearGradient>
<linearGradient id="paint181_linear_278_2454" x1="254.175" y1="308.142" x2="253.962" y2="312.429" gradientUnits="userSpaceOnUse">
<stop stop-color="#4790CD"/>
<stop offset="1" stop-color="#DA62A5"/>
</linearGradient>
</defs>
</svg>
