<svg width="148" height="139" viewBox="0 0 148 139" fill="none" xmlns="http://www.w3.org/2000/svg">
<path d="M18.1558 134.498V136.6C18.1558 137.786 19.2264 138.747 20.5469 138.747H127.959C129.28 138.747 130.351 137.786 130.351 136.6V134.498H18.1558Z" fill="#939598"/>
<path d="M17.4546 133.072H131.131L116.255 119.409H35.1149L17.4546 133.072Z" fill="#AFB1B4"/>
<path d="M120.161 127.342H29.4937L36.6641 121.795H114.121L120.161 127.342Z" fill="#C5C6C8"/>
<path d="M88.8049 132.235H60.8184L63.0308 128.921H86.9412L88.8049 132.235Z" fill="#C5C6C8"/>
<path d="M131.131 133.071H17.4546V135.933H131.131V133.071Z" fill="#BCBEC0"/>
<path d="M117.173 118.155C117.173 119.341 116.254 120.302 115.12 120.302H36.2598C35.1273 120.302 34.208 119.341 34.208 118.155V65.43C34.208 64.2447 35.1273 63.2832 36.2598 63.2832H115.12C116.254 63.2832 117.173 64.2447 117.173 65.43V118.155Z" fill="#E7E8E9"/>
<path d="M116.244 117.276C116.244 118.422 115.347 119.352 114.238 119.352H37.1104C36.0023 119.352 35.104 118.422 35.104 117.276V66.3169C35.104 65.1704 36.0023 64.2415 37.1104 64.2415H114.238C115.347 64.2415 116.244 65.1704 116.244 66.3169V117.276Z" fill="#D1D3D4"/>
<path d="M111.263 68.7683H39.4678V113.86H111.263V68.7683Z" fill="#F15A29"/>
<path d="M64.2862 113.86H39.4678V68.7683H98.2249C95.3865 74.5814 92.1832 80.1981 88.6903 85.5737C83.4292 93.6689 77.3804 101.214 70.6243 107.986C68.586 110.028 66.4668 111.984 64.2862 113.86Z" fill="#F68B42"/>
<path d="M57.3552 119.352H37.1104C36.0023 119.352 35.104 118.422 35.104 117.277V66.3172C35.104 65.1706 36.0023 64.2417 37.1104 64.2417H100.313C99.6313 65.7651 98.924 67.2755 98.1924 68.7734H39.4353V113.865H64.2537C62.9351 115 61.5939 116.105 60.2348 117.184C59.2949 117.929 58.3352 118.657 57.3552 119.352Z" fill="#E5E6E7"/>
<path d="M77.5738 66.5966C77.5738 67.2396 77.0759 67.7596 76.4616 67.7596C75.8483 67.7596 75.3508 67.2396 75.3508 66.5966C75.3508 65.9543 75.8483 65.4343 76.4616 65.4343C77.0759 65.4343 77.5738 65.9543 77.5738 66.5966Z" fill="#939598"/>
<path d="M124.46 88.558C124.46 90.2076 123.171 91.5577 121.595 91.5577H76.5407C74.9647 91.5577 73.6753 90.2076 73.6753 88.558V82.1673C73.6753 80.5176 74.9647 79.168 76.5407 79.168H121.595C123.171 79.168 124.46 80.5176 124.46 82.1673V88.558Z" fill="white"/>
<path d="M124.462 88.559H124.032C124.032 89.2597 123.759 89.8954 123.316 90.3596C122.872 90.8231 122.266 91.1086 121.596 91.109H76.5419C75.8725 91.1086 75.2652 90.8231 74.8217 90.3596C74.3789 89.8954 74.1062 89.2597 74.1058 88.559V82.1683C74.1062 81.4676 74.3789 80.832 74.8217 80.3677C75.2652 79.9042 75.8725 79.6184 76.5419 79.6184H121.596C122.266 79.6184 122.872 79.9042 123.316 80.3677C123.759 80.832 124.032 81.4676 124.032 82.1683V88.559H124.891V82.1683C124.889 80.2681 123.411 78.7208 121.596 78.7192H76.5419C74.7265 78.7208 73.2483 80.2681 73.2468 82.1683V88.559C73.2483 90.4588 74.7265 92.0065 76.5419 92.0081H121.596C123.411 92.0065 124.889 90.4588 124.891 88.559H124.462Z" fill="#121F44"/>
<path d="M80.7094 83.2369L81.6692 86.68L82.5428 83.4796C82.6364 83.1447 82.7053 82.9161 82.7507 82.7938C82.7956 82.6714 82.8799 82.5546 83.0039 82.444C83.1279 82.3326 83.298 82.2773 83.5138 82.2773C83.7329 82.2773 83.9045 82.3326 84.0285 82.444C84.1525 82.5546 84.2397 82.6749 84.2899 82.8051C84.3405 82.9349 84.4106 83.1596 84.5005 83.4796L85.3741 86.68L86.3447 83.2369C86.4095 82.9882 86.4616 82.8087 86.5013 82.6977C86.5406 82.5867 86.6069 82.4887 86.7006 82.4044C86.7939 82.3197 86.9287 82.2773 87.1052 82.2773C87.2812 82.2773 87.4341 82.3413 87.5633 82.4691C87.6929 82.5973 87.7577 82.7479 87.7577 82.9208C87.7577 83.0788 87.7019 83.318 87.5903 83.6376L86.3878 87.3294C86.2836 87.6415 86.2027 87.8674 86.1454 88.0066C86.0877 88.1458 85.9971 88.2701 85.8727 88.3791C85.7487 88.4881 85.579 88.5426 85.3632 88.5426C85.1403 88.5426 84.965 88.4842 84.8376 88.3677C84.7099 88.2513 84.6155 88.1081 84.5544 87.9387C84.493 87.7693 84.4267 87.5494 84.3548 87.2784L83.5138 84.2756L82.6994 87.2784C82.5915 87.696 82.4746 88.0113 82.3487 88.2238C82.2228 88.4363 82.0018 88.5426 81.6856 88.5426C81.5238 88.5426 81.3863 88.5097 81.2728 88.4438C81.1597 88.3779 81.0653 88.2842 80.99 88.1619C80.9143 88.0395 80.8476 87.8948 80.7903 87.727C80.7326 87.5599 80.6881 87.427 80.6555 87.3294L79.4638 83.6376C79.3451 83.2914 79.2859 83.0526 79.2859 82.9208C79.2859 82.7553 79.3484 82.6067 79.4743 82.475C79.6002 82.3432 79.7549 82.2773 79.9385 82.2773C80.1827 82.2773 80.3479 82.3495 80.4344 82.4946C80.5206 82.6397 80.6124 82.8871 80.7094 83.2369Z" fill="#121F44"/>
<path d="M89.6704 83.2369L90.6301 86.68L91.5037 83.4796C91.5974 83.1447 91.6659 82.9161 91.7112 82.7938C91.7562 82.6714 91.8405 82.5546 91.9649 82.444C92.0889 82.3326 92.2589 82.2773 92.4743 82.2773C92.6938 82.2773 92.8654 82.3326 92.9894 82.444C93.1134 82.5546 93.2007 82.6749 93.2509 82.8051C93.3011 82.9349 93.3715 83.1596 93.4614 83.4796L94.335 86.68L95.3056 83.2369C95.3701 82.9882 95.4225 82.8087 95.4619 82.6977C95.5016 82.5867 95.5679 82.4887 95.6615 82.4044C95.7548 82.3197 95.8897 82.2773 96.0657 82.2773C96.2422 82.2773 96.395 82.3413 96.5243 82.4691C96.6539 82.5973 96.7183 82.7479 96.7183 82.9208C96.7183 83.0788 96.6629 83.318 96.5512 83.6376L95.3487 87.3294C95.2442 87.6415 95.1637 87.8674 95.106 88.0066C95.0483 88.1458 94.9576 88.2701 94.8336 88.3791C94.7096 88.4881 94.5399 88.5426 94.3242 88.5426C94.1013 88.5426 93.9259 88.4842 93.7986 88.3677C93.6708 88.2513 93.5764 88.1081 93.5154 87.9387C93.4539 87.7693 93.3876 87.5494 93.3157 87.2784L92.4743 84.2756L91.6603 87.2784C91.5524 87.696 91.4352 88.0113 91.3093 88.2238C91.1834 88.4363 90.9628 88.5426 90.6466 88.5426C90.484 88.5426 90.3469 88.5097 90.2338 88.4438C90.1206 88.3779 90.0262 88.2842 89.9509 88.1619C89.8753 88.0395 89.8086 87.8948 89.7509 87.727C89.6936 87.5599 89.6486 87.427 89.6164 87.3294L88.4248 83.6376C88.306 83.2914 88.2468 83.0526 88.2468 82.9208C88.2468 82.7553 88.3094 82.6067 88.4353 82.475C88.5611 82.3432 88.7158 82.2773 88.899 82.2773C89.1437 82.2773 89.3089 82.3495 89.3954 82.4946C89.4816 82.6397 89.5733 82.8871 89.6704 83.2369Z" fill="#121F44"/>
<path d="M98.6703 83.2369L99.6301 86.68L100.504 83.4796C100.597 83.1447 100.666 82.9161 100.712 82.7938C100.757 82.6714 100.841 82.5546 100.965 82.444C101.089 82.3326 101.259 82.2773 101.475 82.2773C101.694 82.2773 101.865 82.3326 101.989 82.444C102.113 82.5546 102.201 82.6749 102.251 82.8051C102.301 82.9349 102.372 83.1596 102.461 83.4796L103.335 86.68L104.306 83.2369C104.37 82.9882 104.423 82.8087 104.462 82.6977C104.502 82.5867 104.568 82.4887 104.662 82.4044C104.755 82.3197 104.89 82.2773 105.066 82.2773C105.242 82.2773 105.395 82.3413 105.524 82.4691C105.654 82.5973 105.719 82.7479 105.719 82.9208C105.719 83.0788 105.663 83.318 105.551 83.6376L104.349 87.3294C104.245 87.6415 104.164 87.8674 104.106 88.0066C104.049 88.1458 103.958 88.2701 103.834 88.3791C103.71 88.4881 103.54 88.5426 103.324 88.5426C103.101 88.5426 102.926 88.4842 102.799 88.3677C102.671 88.2513 102.576 88.1081 102.515 87.9387C102.454 87.7693 102.388 87.5494 102.316 87.2784L101.475 84.2756L100.66 87.2784C100.552 87.696 100.436 88.0113 100.31 88.2238C100.184 88.4363 99.9628 88.5426 99.6466 88.5426C99.4847 88.5426 99.3473 88.5097 99.2338 88.4438C99.1206 88.3779 99.0262 88.2842 98.9509 88.1619C98.8753 88.0395 98.8086 87.8948 98.7513 87.727C98.6936 87.5599 98.649 87.427 98.6164 87.3294L97.4248 83.6376C97.306 83.2914 97.2468 83.0526 97.2468 82.9208C97.2468 82.7553 97.3094 82.6067 97.4353 82.475C97.5611 82.3432 97.7158 82.2773 97.8994 82.2773C98.1436 82.2773 98.3088 82.3495 98.3954 82.4946C98.4815 82.6397 98.5733 82.8871 98.6703 83.2369Z" fill="#121F44"/>
<path d="M106.832 81.3188V89.7125H107.691V81.3188" fill="#121F44"/>
<path d="M125.71 92.3065C126.494 92.1226 126.572 91.6163 125.886 91.1811L111.801 82.2518C111.114 81.8157 110.728 82.1224 110.943 82.9317L115.35 99.5402C115.566 100.35 116.053 100.407 116.434 99.6673L117.836 96.9425C118.217 96.2025 118.925 96.1453 119.41 96.815L123.786 102.857C124.271 103.526 125.19 103.659 125.83 103.151L126.377 102.719C127.016 102.211 127.143 101.248 126.658 100.578L122.283 94.5352C121.798 93.8659 122.041 93.1679 122.826 92.9844L125.71 92.3065Z" fill="#121F44"/>
<path d="M111.218 108.384C108.972 103.861 103.166 104.038 101.318 107.53C101.092 103.314 94.0837 100.963 91.8814 106.452C92.6246 100.058 84.8477 97.7067 81.7785 101.686C80.6288 96.71 73.4415 94.8125 69.6972 101.319C71.1949 94.9933 63.4184 89.9283 58.2926 94.7521C50.4572 86.1299 58.4289 70.2946 59.2381 66.911C58.082 66.7405 57.4145 65.788 56.6858 64.9246C54.594 66.7397 48.2226 79.5839 47.1733 82.2707C44.7541 88.4657 42.0898 86.5973 42.0898 86.5973C38.7056 84.6826 30.9286 90.471 36.1728 97.4997C32.6564 96.6218 31.2744 102.953 35.0928 105.485C29.5459 106.752 32.1383 114.892 39.4237 113.866H111.218V108.384Z" fill="white"/>
<path d="M69.4057 65.6668C64.2319 72.5119 52.7984 75.2728 52.7984 75.2728C52.7984 75.2728 52.465 60.5653 56.6153 55.0749C60.7653 49.5837 70.4572 50.5177 70.4572 50.5177C70.4572 50.5177 74.5791 58.8223 69.4057 65.6668Z" fill="#FCB116"/>
<path d="M68.6726 62.4429C65.0689 67.2107 57.1207 69.1473 57.1207 69.1473C57.1207 69.1473 56.9072 58.9182 59.7981 55.0935C62.6893 51.2688 69.423 51.904 69.423 51.904C69.423 51.904 72.2768 57.6748 68.6726 62.4429Z" fill="#FFC906"/>
<path d="M79.3792 71.7868C75.8286 68.8471 76.0954 58.6678 76.0954 58.6678C76.0954 58.6678 90.4662 44.875 91.8894 46.0533C96.4443 49.8255 80.8016 72.9651 79.3792 71.7868Z" fill="#F26521"/>
<path d="M92.6088 47.2563C91.2239 51.3304 89.2838 55.203 86.9578 58.7728C85.2855 61.3388 83.5994 64.0735 81.6525 66.4222C80.5441 67.759 79.3135 68.9251 77.8442 69.6431C78.2552 70.5163 78.7605 71.2625 79.3865 71.7805C80.6988 72.8675 94.1076 53.2671 92.6088 47.2563Z" fill="#F5801F"/>
<path d="M48.8205 46.4662C52.3703 49.4059 61.7734 46.7932 61.7734 46.7932C61.7734 46.7932 71.2904 28.9809 69.868 27.8026C65.3127 24.0308 47.3977 45.2883 48.8205 46.4662Z" fill="#F26521"/>
<path d="M68.5805 27.3556C65.1108 29.7024 61.9559 32.57 59.1725 35.7602C57.1713 38.0545 55.0169 40.4009 53.2813 42.925C52.2935 44.3617 51.4922 45.8827 51.1629 47.5449C50.2563 47.3269 49.4464 46.9842 48.8205 46.4658C47.5082 45.3789 62.6466 27.2113 68.5805 27.3556Z" fill="#F5801F"/>
<path d="M75.618 60.7264C74.7864 61.8263 73.4385 62.1592 72.6073 61.4706L59.806 50.8698C58.9744 50.1808 58.9733 48.7311 59.8042 47.6309L60.0181 47.3489C60.8489 46.2494 62.1972 45.9169 63.0292 46.6055L75.83 57.2068C76.6617 57.8949 76.6624 59.3446 75.8312 60.4445L75.618 60.7264Z" fill="#F26521"/>
<path d="M106.149 3.20851C106.149 3.20851 88.8335 0.0845146 71.2013 23.412C62.5747 34.8249 59.4546 47.535 59.4546 47.535L67.5668 54.2531L75.679 60.9709C75.679 60.9709 86.778 54.868 95.4042 43.4554C113.036 20.128 106.149 3.20851 106.149 3.20851Z" fill="white"/>
<path d="M74.886 46.7469C73.2958 46.1532 71.5096 47.7017 70.2209 48.4996C69.6639 48.8447 68.3232 49.7779 67.777 48.9015C66.7996 47.3358 67.953 44.26 68.4074 42.7312C69.5478 38.8994 71.1305 35.121 72.6971 31.4594C75.9461 23.8676 81.1289 17.8729 87.5835 13.1012C90.6084 10.8654 93.8103 8.84441 97.1597 7.18144C100.109 5.71885 103.364 5.04088 106.203 3.35281C106.169 3.2591 106.149 3.20851 106.149 3.20851C106.149 3.20851 88.8335 0.0845146 71.2013 23.412C62.5747 34.8249 59.4546 47.535 59.4546 47.535L75.679 60.9709C75.679 60.9709 75.9705 60.8101 76.4901 60.4968C73.3639 57.0195 72.5555 51.3895 74.886 46.7469Z" fill="#D1D3D4"/>
<path d="M106.976 18.351C108.508 8.94884 106.173 3.20785 106.173 3.20785C106.173 3.20785 100.298 2.15031 91.9092 5.87425L106.976 18.351Z" fill="#F26521"/>
<path d="M94.2909 36.0063C90.9074 40.4815 84.6985 41.2399 80.4227 37.6987C76.1461 34.1567 75.4231 27.6581 78.8059 23.1825C82.1894 18.7065 88.3975 17.9481 92.6744 21.4897C96.9506 25.0309 97.6744 31.5303 94.2909 36.0063Z" fill="#F26521"/>
<path d="M92.4679 34.5033C89.8763 37.932 85.1206 38.5123 81.845 35.7996C80.1169 34.3688 79.1452 32.3039 78.9942 30.168C78.956 29.6101 78.9714 29.0481 79.0485 28.4917C79.0837 28.2149 79.1336 27.9424 79.1991 27.675C79.3752 26.9315 79.6558 26.21 80.0499 25.5289C80.2132 25.2356 80.3994 24.9529 80.6058 24.6796C83.1973 21.2513 87.9564 20.6725 91.2294 23.3832C92.8545 24.729 93.8097 26.6343 94.0435 28.6298C94.1334 29.3975 94.1165 30.1825 93.9884 30.9495C93.9453 31.224 93.8835 31.4954 93.8116 31.7612C93.6662 32.2937 93.4658 32.8172 93.2081 33.3171C93.0013 33.7296 92.7541 34.1245 92.4679 34.5033Z" fill="#00B4A8"/>
<path d="M93.5149 30.8435L79.2078 27.6756C79.3838 26.9321 79.6644 26.2106 80.0585 25.5295L93.906 28.5979C93.8806 29.3554 93.7509 30.1122 93.5149 30.8435Z" fill="#61C7C8"/>
<path d="M94.052 30.7038C94.1446 30.0141 94.1494 29.3161 94.0692 28.6292L94.07 28.6295C94.1075 28.9507 94.1266 29.2746 94.1266 29.5989C94.1262 29.9678 94.1018 30.3372 94.052 30.7038Z" fill="#61C7C8"/>
<path d="M92.3407 33.1296L78.994 30.1726C78.9809 29.9809 78.9741 29.7888 78.9741 29.5962C78.9738 29.2292 78.9977 28.8614 79.0483 28.4963L93.2071 31.6321C92.9768 32.1532 92.6883 32.6555 92.3407 33.1296Z" fill="#61C7C8"/>
<path d="M86.5478 37.5134C84.9048 37.5134 83.2498 36.9554 81.8607 35.8053C81.4726 35.4838 81.1227 35.1305 80.8118 34.7513C81.1227 35.1301 81.4726 35.4834 81.8603 35.8045C83.2494 36.955 84.9044 37.513 86.5478 37.513C88.7798 37.513 90.9907 36.4829 92.4832 34.5082C92.7694 34.1294 93.0166 33.7346 93.2234 33.3221C93.4812 32.8221 93.6816 32.2986 93.8269 31.7661C93.8614 31.6391 93.8932 31.5105 93.9221 31.3811C93.6789 32.4884 93.2024 33.5581 92.4843 34.5086C90.9911 36.4837 88.7805 37.5134 86.5478 37.5134ZM80.8103 34.7498C80.8084 34.7478 80.8069 34.7458 80.8054 34.7439C80.8069 34.7458 80.8088 34.7478 80.8103 34.7498ZM93.9936 31.016C93.9974 30.9956 94.0007 30.9752 94.0037 30.9544C94.0176 30.8729 94.03 30.7909 94.0408 30.709C94.0273 30.8113 94.0116 30.9137 93.9936 31.016Z" fill="#96471A"/>
<path d="M86.5466 37.5098C84.9032 37.5098 83.2482 36.9519 81.8591 35.8014C81.4714 35.4802 81.1215 35.1269 80.8106 34.7482C80.8102 34.7478 80.8094 34.747 80.8091 34.7466C80.8076 34.7446 80.8057 34.7427 80.8042 34.7407C80.8023 34.7384 80.8001 34.736 80.7982 34.7333C79.7381 33.435 79.1338 31.8394 79.0132 30.2012C79.3994 31.85 80.2917 33.382 81.6621 34.5168C83.0511 35.6669 84.7062 36.2249 86.3496 36.2249C88.5819 36.2249 90.7925 35.1952 92.2853 33.2205C92.3085 33.1895 92.3321 33.1581 92.355 33.1268L93.2222 33.3189C93.0154 33.7314 92.7682 34.1263 92.482 34.505C90.9895 36.4797 88.7786 37.5098 86.5466 37.5098ZM93.8257 31.763L93.2215 31.6293C93.335 31.372 93.4346 31.1101 93.5204 30.8446L94.0025 30.9513C93.9995 30.9721 93.9962 30.9925 93.9924 31.0128C93.9714 31.1348 93.9475 31.2567 93.9209 31.3779C93.892 31.5073 93.8602 31.6359 93.8257 31.763ZM94.0568 28.6311L93.9115 28.599C93.922 28.2994 93.916 27.9998 93.8939 27.7014C93.9654 28.0077 94.0201 28.3186 94.0568 28.6311Z" fill="#00867F"/>
<path d="M93.9887 30.9509L93.5066 30.8443C93.7426 30.113 93.8722 29.3562 93.8977 28.5986L94.043 28.6308C94.1232 29.3178 94.1183 30.0157 94.0258 30.7055C94.015 30.7874 94.0026 30.8694 93.9887 30.9509Z" fill="#269096"/>
<path d="M93.2439 33.3161L92.3767 33.124C92.7243 32.6499 93.0128 32.1476 93.2432 31.6265L93.8474 31.7602C93.7021 32.2927 93.5017 32.8161 93.2439 33.3161Z" fill="#269096"/>
<path d="M21.4004 27.1555V30.679C21.4004 30.7998 21.4944 30.8978 21.6102 30.8978C21.7256 30.8978 21.8192 30.7998 21.8192 30.679V27.1555C21.8192 27.0343 21.7256 26.9363 21.6102 26.9363C21.4944 26.9363 21.4004 27.0343 21.4004 27.1555Z" fill="white"/>
<path d="M23.2717 28.6895H19.935C19.8196 28.6895 19.7256 28.7875 19.7256 28.9086C19.7256 29.0294 19.8196 29.1274 19.935 29.1274H23.2717C23.387 29.1274 23.4811 29.0294 23.4811 28.9086C23.4811 28.7875 23.387 28.6895 23.2717 28.6895Z" fill="white"/>
<path d="M1.67529 73.0549V76.5785C1.67529 76.6996 1.76894 76.7977 1.8847 76.7977C2.00008 76.7977 2.0941 76.6996 2.0941 76.5785V73.0549C2.0941 72.9337 2.00008 72.8357 1.8847 72.8357C1.76894 72.8357 1.67529 72.9337 1.67529 73.0549Z" fill="white"/>
<path d="M3.54645 74.5994H0.209408C0.0940276 74.5994 0 74.6974 0 74.8186C0 74.9393 0.0940276 75.0378 0.209408 75.0378H3.54645C3.66183 75.0378 3.75549 74.9393 3.75549 74.8186C3.75549 74.6974 3.66183 74.5994 3.54645 74.5994Z" fill="white"/>
<path d="M26.0463 54.2898H30.2615C30.3768 54.2898 30.4705 54.1918 30.4705 54.071C30.4705 53.9498 30.3768 53.8518 30.2615 53.8518H26.0463C25.9306 53.8518 25.8369 53.9498 25.8369 54.071C25.8369 54.1918 25.9306 54.2898 26.0463 54.2898Z" fill="white"/>
<path d="M31.6962 54.2898H32.8673C32.9826 54.2898 33.0763 54.1918 33.0763 54.071C33.0763 53.9498 32.9826 53.8518 32.8673 53.8518H31.6962C31.5808 53.8518 31.4868 53.9498 31.4868 54.071C31.4868 54.1918 31.5808 54.2898 31.6962 54.2898Z" fill="white"/>
<path d="M33.9169 54.2898H35.088C35.2033 54.2898 35.2974 54.1918 35.2974 54.071C35.2974 53.9498 35.2033 53.8518 35.088 53.8518H33.9169C33.8015 53.8518 33.7075 53.9498 33.7075 54.071C33.7075 54.1918 33.8015 54.2898 33.9169 54.2898Z" fill="white"/>
<path d="M26.8647 55.8197H31.0802C31.1956 55.8197 31.2896 55.7213 31.2896 55.6005C31.2896 55.4794 31.1956 55.3813 31.0802 55.3813H26.8647C26.7493 55.3813 26.6553 55.4794 26.6553 55.6005C26.6553 55.7213 26.7493 55.8197 26.8647 55.8197Z" fill="white"/>
<path d="M32.5141 55.8197H33.6851C33.8005 55.8197 33.8945 55.7213 33.8945 55.6005C33.8945 55.4794 33.8005 55.3813 33.6851 55.3813H32.5141C32.3987 55.3813 32.3047 55.4794 32.3047 55.6005C32.3047 55.7213 32.3987 55.8197 32.5141 55.8197Z" fill="white"/>
<path d="M34.7353 55.8197H35.9056C36.021 55.8197 36.1146 55.7213 36.1146 55.6005C36.1146 55.4794 36.021 55.3813 35.9056 55.3813H34.7353C34.6199 55.3813 34.5259 55.4794 34.5259 55.6005C34.5259 55.7213 34.6199 55.8197 34.7353 55.8197Z" fill="white"/>
<path d="M5.54681 105.95H9.76232C9.8777 105.95 9.97173 105.852 9.97173 105.731C9.97173 105.61 9.8777 105.512 9.76232 105.512H5.54681C5.43143 105.512 5.3374 105.61 5.3374 105.731C5.3374 105.852 5.43143 105.95 5.54681 105.95Z" fill="white"/>
<path d="M11.1962 105.95H12.3673C12.4826 105.95 12.5767 105.852 12.5767 105.731C12.5767 105.61 12.4826 105.512 12.3673 105.512H11.1962C11.0808 105.512 10.9868 105.61 10.9868 105.731C10.9868 105.852 11.0808 105.95 11.1962 105.95Z" fill="white"/>
<path d="M13.4174 105.95H14.5877C14.7031 105.95 14.7967 105.852 14.7967 105.731C14.7967 105.61 14.7031 105.512 14.5877 105.512H13.4174C13.302 105.512 13.208 105.61 13.208 105.731C13.208 105.852 13.302 105.95 13.4174 105.95Z" fill="white"/>
<path d="M6.36517 107.48H10.5799C10.6953 107.48 10.789 107.381 10.789 107.26C10.789 107.14 10.6953 107.042 10.5799 107.042H6.36517C6.24979 107.042 6.15576 107.14 6.15576 107.26C6.15576 107.381 6.24979 107.48 6.36517 107.48Z" fill="white"/>
<path d="M12.0146 107.48H13.1856C13.301 107.48 13.3947 107.381 13.3947 107.26C13.3947 107.14 13.301 107.042 13.1856 107.042H12.0146C11.8988 107.042 11.8052 107.14 11.8052 107.26C11.8052 107.381 11.8988 107.48 12.0146 107.48Z" fill="white"/>
<path d="M14.2353 107.48H15.4063C15.5217 107.48 15.6154 107.381 15.6154 107.26C15.6154 107.14 15.5217 107.042 15.4063 107.042H14.2353C14.1199 107.042 14.0259 107.14 14.0259 107.26C14.0259 107.381 14.1199 107.48 14.2353 107.48Z" fill="white"/>
<path d="M92.1042 0.219194V3.74276C92.1042 3.86353 92.1983 3.96195 92.314 3.96195C92.4294 3.96195 92.5231 3.86353 92.5231 3.74276V0.219194C92.5231 0.0984214 92.4294 0 92.314 0C92.1983 0 92.1042 0.0984214 92.1042 0.219194Z" fill="white"/>
<path d="M93.975 1.76367H90.6384C90.5226 1.76367 90.429 1.8617 90.429 1.98247C90.429 2.10364 90.5226 2.20167 90.6384 2.20167H93.975C94.0904 2.20167 94.1841 2.10364 94.1841 1.98247C94.1841 1.8617 94.0904 1.76367 93.975 1.76367Z" fill="white"/>
<path d="M132.117 55.6989V59.2225C132.117 59.3433 132.211 59.4413 132.327 59.4413C132.442 59.4413 132.536 59.3433 132.536 59.2225V55.6989C132.536 55.5778 132.442 55.4797 132.327 55.4797C132.211 55.4797 132.117 55.5778 132.117 55.6989Z" fill="white"/>
<path d="M133.988 57.2437H130.651C130.536 57.2437 130.442 57.3421 130.442 57.4628C130.442 57.5836 130.536 57.682 130.651 57.682H133.988C134.103 57.682 134.197 57.5836 134.197 57.4628C134.197 57.3421 134.103 57.2437 133.988 57.2437Z" fill="white"/>
<path d="M122.093 23.8876V27.4108C122.093 27.532 122.186 27.63 122.302 27.63C122.418 27.63 122.512 27.532 122.512 27.4108V23.8876C122.512 23.7665 122.418 23.6685 122.302 23.6685C122.186 23.6685 122.093 23.7665 122.093 23.8876Z" fill="white"/>
<path d="M123.963 25.4324H120.627C120.511 25.4324 120.417 25.5308 120.417 25.6516C120.417 25.7727 120.511 25.8708 120.627 25.8708H123.963C124.079 25.8708 124.173 25.7727 124.173 25.6516C124.173 25.5308 124.079 25.4324 123.963 25.4324Z" fill="white"/>
<path d="M46.2226 12.4416H50.4377C50.5531 12.4416 50.6471 12.3431 50.6471 12.2224C50.6471 12.1016 50.5531 12.0032 50.4377 12.0032H46.2226C46.1068 12.0032 46.0132 12.1016 46.0132 12.2224C46.0132 12.3431 46.1068 12.4416 46.2226 12.4416Z" fill="white"/>
<path d="M51.872 12.4416H53.0427C53.1581 12.4416 53.2517 12.3431 53.2517 12.2224C53.2517 12.1016 53.1581 12.0032 53.0427 12.0032H51.872C51.7566 12.0032 51.6626 12.1016 51.6626 12.2224C51.6626 12.3431 51.7566 12.4416 51.872 12.4416Z" fill="white"/>
<path d="M54.0927 12.4416H55.2634C55.3791 12.4416 55.4728 12.3431 55.4728 12.2224C55.4728 12.1016 55.3791 12.0032 55.2634 12.0032H54.0927C53.977 12.0032 53.8833 12.1016 53.8833 12.2224C53.8833 12.3431 53.977 12.4416 54.0927 12.4416Z" fill="white"/>
<path d="M47.041 13.9707H51.2553C51.3711 13.9707 51.4647 13.8727 51.4647 13.7515C51.4647 13.6307 51.3711 13.5327 51.2553 13.5327H47.041C46.9252 13.5327 46.8315 13.6307 46.8315 13.7515C46.8315 13.8727 46.9252 13.9707 47.041 13.9707Z" fill="white"/>
<path d="M52.6904 13.9707H53.8607C53.976 13.9707 54.0697 13.8727 54.0697 13.7515C54.0697 13.6307 53.976 13.5327 53.8607 13.5327H52.6904C52.5746 13.5327 52.481 13.6307 52.481 13.7515C52.481 13.8727 52.5746 13.9707 52.6904 13.9707Z" fill="white"/>
<path d="M54.9106 13.9707H56.0816C56.1974 13.9707 56.291 13.8727 56.291 13.7515C56.291 13.6307 56.1974 13.5327 56.0816 13.5327H54.9106C54.7952 13.5327 54.7012 13.6307 54.7012 13.7515C54.7012 13.8727 54.7952 13.9707 54.9106 13.9707Z" fill="white"/>
<path d="M106.573 42.949H110.789C110.904 42.949 110.998 42.851 110.998 42.7302C110.998 42.609 110.904 42.511 110.789 42.511H106.573C106.458 42.511 106.364 42.609 106.364 42.7302C106.364 42.851 106.458 42.949 106.573 42.949Z" fill="white"/>
<path d="M112.223 42.949H113.393C113.509 42.949 113.603 42.851 113.603 42.7302C113.603 42.609 113.509 42.511 113.393 42.511H112.223C112.107 42.511 112.013 42.609 112.013 42.7302C112.013 42.851 112.107 42.949 112.223 42.949Z" fill="white"/>
<path d="M114.444 42.949H115.614C115.729 42.949 115.823 42.851 115.823 42.7302C115.823 42.609 115.729 42.511 115.614 42.511H114.444C114.328 42.511 114.234 42.609 114.234 42.7302C114.234 42.851 114.328 42.949 114.444 42.949Z" fill="white"/>
<path d="M107.392 44.4789H111.608C111.723 44.4789 111.817 44.3805 111.817 44.2597C111.817 44.139 111.723 44.0405 111.608 44.0405H107.392C107.276 44.0405 107.182 44.139 107.182 44.2597C107.182 44.3805 107.276 44.4789 107.392 44.4789Z" fill="white"/>
<path d="M113.041 44.4789H114.211C114.326 44.4789 114.42 44.3805 114.42 44.2597C114.42 44.139 114.326 44.0405 114.211 44.0405H113.041C112.926 44.0405 112.832 44.139 112.832 44.2597C112.832 44.3805 112.926 44.4789 113.041 44.4789Z" fill="white"/>
<path d="M115.262 44.4789H116.432C116.547 44.4789 116.641 44.3805 116.641 44.2597C116.641 44.139 116.547 44.0405 116.432 44.0405H115.262C115.146 44.0405 115.052 44.139 115.052 44.2597C115.052 44.3805 115.146 44.4789 115.262 44.4789Z" fill="white"/>
<path d="M128.767 106.394V109.918C128.767 110.039 128.861 110.137 128.976 110.137C129.092 110.137 129.186 110.039 129.186 109.918V106.394C129.186 106.274 129.092 106.176 128.976 106.176C128.861 106.176 128.767 106.274 128.767 106.394Z" fill="white"/>
<path d="M130.637 107.939H127.301C127.185 107.939 127.091 108.037 127.091 108.159C127.091 108.279 127.185 108.378 127.301 108.378H130.637C130.752 108.378 130.846 108.279 130.846 108.159C130.846 108.037 130.752 107.939 130.637 107.939Z" fill="white"/>
<path d="M137.781 84.765H141.996C142.111 84.765 142.205 84.667 142.205 84.5458C142.205 84.4251 142.111 84.3267 141.996 84.3267H137.781C137.666 84.3267 137.572 84.4251 137.572 84.5458C137.572 84.667 137.666 84.765 137.781 84.765Z" fill="white"/>
<path d="M143.43 84.765H144.601C144.716 84.765 144.81 84.667 144.81 84.5458C144.81 84.4251 144.716 84.3267 144.601 84.3267H143.43C143.315 84.3267 143.221 84.4251 143.221 84.5458C143.221 84.667 143.315 84.765 143.43 84.765Z" fill="white"/>
<path d="M145.651 84.765H146.822C146.937 84.765 147.031 84.667 147.031 84.5458C147.031 84.4251 146.937 84.3267 146.822 84.3267H145.651C145.535 84.3267 145.441 84.4251 145.441 84.5458C145.441 84.667 145.535 84.765 145.651 84.765Z" fill="white"/>
<path d="M138.599 86.294H142.814C142.929 86.294 143.023 86.1959 143.023 86.0752C143.023 85.954 142.929 85.856 142.814 85.856H138.599C138.484 85.856 138.39 85.954 138.39 86.0752C138.39 86.1959 138.484 86.294 138.599 86.294Z" fill="white"/>
<path d="M144.248 86.294H145.42C145.535 86.294 145.629 86.1959 145.629 86.0752C145.629 85.954 145.535 85.856 145.42 85.856H144.248C144.133 85.856 144.039 85.954 144.039 86.0752C144.039 86.1959 144.133 86.294 144.248 86.294Z" fill="white"/>
<path d="M146.469 86.294H147.641C147.756 86.294 147.85 86.1959 147.85 86.0752C147.85 85.954 147.756 85.856 147.641 85.856H146.469C146.353 85.856 146.26 85.954 146.26 86.0752C146.26 86.1959 146.353 86.294 146.469 86.294Z" fill="white"/>
</svg>
