<svg width="100" height="100" viewBox="0 0 100 100" fill="none" xmlns="http://www.w3.org/2000/svg">
<path d="M82.655 82.1689H69.5321C67.345 82.1689 65.5092 80.7239 64.8729 78.7457H87.3142C86.6779 80.7239 84.8422 82.1689 82.655 82.1689ZM69.5321 45.4424H82.655C85.366 45.4424 87.5714 47.6478 87.5714 50.3595V75.7572H64.6157V50.3595C64.6157 47.6478 66.8212 45.4424 69.5321 45.4424ZM82.655 42.4539H69.5321C65.1731 42.4539 61.6272 46.0005 61.6272 50.3595V77.2518C61.6272 81.6108 65.1731 85.1574 69.5321 85.1574H82.655C87.014 85.1574 90.5599 81.6108 90.5599 77.2518V50.3595C90.5599 46.0005 87.014 42.4539 82.655 42.4539Z" fill="#2770EC"/>
<path d="M79.2231 48.7463H73.322C72.4973 48.7463 71.8281 48.0779 71.8281 47.2524C71.8281 46.427 72.4973 45.7578 73.322 45.7578H79.2231C80.0478 45.7578 80.717 46.427 80.717 47.2524C80.717 48.0779 80.0478 48.7463 79.2231 48.7463Z" fill="#2770EC"/>
<path d="M76.9892 81.7854H75.1775C74.3528 81.7854 73.6836 81.117 73.6836 80.2915C73.6836 79.466 74.3528 78.7969 75.1775 78.7969H76.9892C77.8139 78.7969 78.4831 79.466 78.4831 80.2915C78.4831 81.117 77.8139 81.7854 76.9892 81.7854Z" fill="#2770EC"/>
<path d="M42.7972 65.2947H41.3267C40.5012 65.2947 39.832 64.6255 39.832 63.8001C39.832 62.9746 40.5012 62.3062 41.3267 62.3062H42.7972C43.6219 62.3062 44.2918 62.9746 44.2918 63.8001C44.2918 64.6255 43.6219 65.2947 42.7972 65.2947Z" fill="#2770EC"/>
<path d="M47.1789 74.7233H37.0694V68.5986H47.1789V74.7233ZM75.0889 17.24H9.16528C5.87651 17.24 3.19995 19.9122 3.19995 23.1966V62.6428C3.19995 65.9264 5.87651 68.5986 9.16528 68.5986H34.0809V74.7233H27.9935C27.1687 74.7233 26.4989 75.3917 26.4989 76.2171C26.4989 77.0426 27.1687 77.7111 27.9935 77.7111H56.2585C57.084 77.7111 57.7531 77.0426 57.7531 76.2171C57.7531 75.3917 57.084 74.7233 56.2585 74.7233H50.1667V68.5986H58.675C59.4998 68.5986 60.1696 67.9302 60.1696 67.1047C60.1696 66.2793 59.4998 65.6101 58.675 65.6101H9.16528C7.52382 65.6101 6.18843 64.2791 6.18843 62.6428V62.0905H58.7591C59.5838 62.0905 60.2529 61.4213 60.2529 60.5959C60.2529 59.7704 59.5838 59.102 58.7591 59.102H6.18843V23.1966C6.18843 21.5595 7.52382 20.2285 9.16528 20.2285H75.0889C76.7253 20.2285 78.057 21.5595 78.057 23.1966V39.0903C78.057 39.9158 78.7261 40.5842 79.5509 40.5842C80.3764 40.5842 81.0455 39.9158 81.0455 39.0903V23.1966C81.0455 19.9122 78.3733 17.24 75.0889 17.24Z" fill="#2770EC"/>
<path d="M41.9936 39.762C41.4268 39.762 40.9658 40.2229 40.9658 40.7898C40.9658 41.3567 41.4268 41.8176 41.9936 41.8176C42.5605 41.8176 43.0222 41.3567 43.0222 40.7898C43.0222 40.2229 42.5605 39.762 41.9936 39.762ZM41.9936 44.8062C39.7787 44.8062 37.9773 43.004 37.9773 40.7898C37.9773 38.5749 39.7787 36.7734 41.9936 36.7734C44.2086 36.7734 46.0107 38.5749 46.0107 40.7898C46.0107 43.004 44.2086 44.8062 41.9936 44.8062Z" fill="#2770EC"/>
<path d="M31.793 39.762C31.2261 39.762 30.7651 40.2229 30.7651 40.7898C30.7651 41.3567 31.2261 41.8176 31.793 41.8176C32.3592 41.8176 32.8201 41.3567 32.8201 40.7898C32.8201 40.2229 32.3592 39.762 31.793 39.762ZM31.793 44.8062C29.5781 44.8062 27.7766 43.004 27.7766 40.7898C27.7766 38.5749 29.5781 36.7734 31.793 36.7734C34.0072 36.7734 35.8086 38.5749 35.8086 40.7898C35.8086 43.004 34.0072 44.8062 31.793 44.8062Z" fill="#2770EC"/>
<path d="M52.1958 39.762C51.6289 39.762 51.1672 40.2229 51.1672 40.7898C51.1672 41.3567 51.6289 41.8176 52.1958 41.8176C52.7627 41.8176 53.2244 41.3567 53.2244 40.7898C53.2244 40.2229 52.7627 39.762 52.1958 39.762ZM52.1958 44.8062C49.9809 44.8062 48.1794 43.004 48.1794 40.7898C48.1794 38.5749 49.9809 36.7734 52.1958 36.7734C54.4107 36.7734 56.2121 38.5749 56.2121 40.7898C56.2121 43.004 54.4107 44.8062 52.1958 44.8062Z" fill="#2770EC"/>
<path d="M80.1785 62.0776C79.7782 62.0776 79.4539 62.4027 79.4539 62.8023C79.4539 63.2012 79.7782 63.5262 80.1785 63.5262C80.5774 63.5262 80.9017 63.2012 80.9017 62.8023C80.9017 62.4027 80.5774 62.0776 80.1785 62.0776ZM80.1785 66.5148C78.1309 66.5148 76.4653 64.8492 76.4653 62.8023C76.4653 60.7547 78.1309 59.0891 80.1785 59.0891C82.2254 59.0891 83.8903 60.7547 83.8903 62.8023C83.8903 64.8492 82.2254 66.5148 80.1785 66.5148Z" fill="#2770EC"/>
<path d="M72.2962 62.0776C71.8966 62.0776 71.5715 62.4027 71.5715 62.8023C71.5715 63.2012 71.8966 63.5262 72.2962 63.5262C72.6951 63.5262 73.0202 63.2012 73.0202 62.8023C73.0202 62.4027 72.6951 62.0776 72.2962 62.0776ZM72.2962 66.5148C70.2486 66.5148 68.583 64.8492 68.583 62.8023C68.583 60.7547 70.2486 59.0891 72.2962 59.0891C74.3431 59.0891 76.0079 60.7547 76.0079 62.8023C76.0079 64.8492 74.3431 66.5148 72.2962 66.5148Z" fill="#2770EC"/>
</svg>
