<svg width="40" height="40" viewBox="0 0 40 40" fill="none" xmlns="http://www.w3.org/2000/svg"><path opacity=".8" d="M35 8.333c-1.85-.583-3.884-.833-5.834-.833-3.25 0-6.75.667-9.166 2.5-2.417-1.833-5.917-2.5-9.167-2.5s-6.75.667-9.166 2.5v24.417c0 .416.416.833.833.833.167 0 .25-.083.417-.083 2.25-1.084 5.5-1.834 7.916-1.834 3.25 0 6.75.667 9.167 2.5 2.25-1.416 6.333-2.5 9.166-2.5 2.75 0 5.584.5 7.917 1.75.167.084.25.084.417.084.416 0 .833-.417.833-.834V10c-1-.75-2.083-1.25-3.333-1.667zm0 22.5C33.166 30.25 31.166 30 29.166 30c-2.833 0-6.916 1.083-9.166 2.5V13.333c2.25-1.416 6.333-2.5 9.166-2.5 2 0 4 .25 5.834.834v19.166z" fill="#323232"/></svg>