<svg width="40" height="30" viewBox="0 0 40 30" fill="none" xmlns="http://www.w3.org/2000/svg"><path fill-rule="evenodd" clip-rule="evenodd" d="M35.147 15.312c.16-.538.273-1.093.273-1.679 0-3.428-2.945-6.208-6.58-6.208a7.02 7.02 0 00-1.187.113C25.737 3.8 21.69 1.216 16.996 1.216 10.453 1.216 5.15 6.22 5.15 12.39c0 .106.014.208.017.312-2.395 1.57-3.965 4.18-3.965 7.139 0 4.802 4.124 8.692 9.212 8.692h19.741c4.36 0 7.897-3.335 7.897-7.45 0-2.329-1.133-4.406-2.906-5.772z" fill="#fff" stroke="#4169E1" stroke-width="2" stroke-linecap="round" stroke-linejoin="round"/><path fill-rule="evenodd" clip-rule="evenodd" d="M1.203 19.842c0-4.8 4.124-8.692 9.212-8.692l-9.212 8.692z" fill="#fff"/><path d="M1.203 19.842c0-4.8 4.124-8.692 9.212-8.692" stroke="#4169E1" stroke-width="2" stroke-linecap="round" stroke-linejoin="round"/><path fill-rule="evenodd" clip-rule="evenodd" d="M16.996 1.217c6.542 0 11.844 5.002 11.844 11.175L16.996 1.217z" fill="#fff"/><path d="M16.996 1.217c6.542 0 11.844 5.002 11.844 11.175" stroke="#4169E1" stroke-width="2" stroke-linecap="round" stroke-linejoin="round"/><path fill-rule="evenodd" clip-rule="evenodd" d="M10.415 23.567c-2.177 0-3.948-1.67-3.948-3.725l3.948 3.726z" fill="#fff"/><path d="M10.415 23.567c-2.177 0-3.948-1.67-3.948-3.725" stroke="#4169E1" stroke-width="2" stroke-linecap="round" stroke-linejoin="round"/></svg>