<svg width="61" height="61" viewBox="0 0 61 61" fill="none" xmlns="http://www.w3.org/2000/svg"><path clip-rule="evenodd" d="M52.223 46.419H8.077c-3.325 0-6.02-2.7-6.02-6.03V8.234c0-3.33 2.695-6.03 6.02-6.03h44.146c3.325 0 6.02 2.7 6.02 6.03V40.39a6.024 6.024 0 01-6.02 6.029z" stroke="#2061D6" stroke-width="3" stroke-linecap="round" stroke-linejoin="round"/><mask id="a" style="mask-type:alpha" maskUnits="userSpaceOnUse" x="0" y="0" width="61" height="61"><path fill-rule="evenodd" clip-rule="evenodd" d="M.05 60.487h60.2V.194H.05v60.293z" fill="#fff"/></mask><g mask="url(#a)" stroke="#2061D6" stroke-width="3" stroke-linecap="round" stroke-linejoin="round"><path clip-rule="evenodd" d="M24.13 58.478h12.04V46.419H24.13v12.059z"/><path clip-rule="evenodd" d="M24.13 58.478h12.04V46.419H24.13v12.059z"/><path d="M13.093 58.478h34.114M2.057 38.782h54.18M16.103 14.263V38.38M2.057 14.263h56.186M24.13 32.35l8.027-8.039 6.02 6.03L48.21 20.29"/></g></svg>