<svg width="24" height="24" viewBox="0 0 24 24" fill="none" xmlns="http://www.w3.org/2000/svg"><circle cx="12" cy="12" r="12" fill="#fff"/><path fill-rule="evenodd" clip-rule="evenodd" d="M8.267 5A3.267 3.267 0 005 8.267v7.535a3.267 3.267 0 003.267 3.268h7.535a3.267 3.267 0 003.268-3.268V8.267A3.267 3.267 0 0015.802 5H8.267zM4 8.267A4.267 4.267 0 018.267 4h7.535a4.267 4.267 0 014.268 4.267v7.535a4.267 4.267 0 01-4.268 4.268H8.267A4.267 4.267 0 014 15.802V8.267zm8.436 1.248a2.514 2.514 0 10-.737 4.974 2.514 2.514 0 00.737-4.974zm-1.987-.632a3.514 3.514 0 113.237 6.239 3.514 3.514 0 01-3.237-6.239zm5.73-1.492a.5.5 0 100 1h.009a.5.5 0 100-1h-.009z" fill="#000"/></svg>