<svg width="16" height="12" viewBox="0 0 16 12" fill="none" xmlns="http://www.w3.org/2000/svg"><path fill-rule="evenodd" clip-rule="evenodd" d="M13.825 3.116L8.211 7.928a.539.539 0 01-.702 0L1.895 3.116a.63.63 0 01-.087-.844.538.538 0 01.789-.093L7.86 6.69l5.263-4.511a.537.537 0 01.79.093.63.63 0 01-.088.844m.772-2.87H1.123C.503.246 0 .784 0 1.447v9.007c0 .663.503 1.201 1.123 1.201h13.474c.62 0 1.123-.538 1.123-1.201V1.447c0-.663-.503-1.2-1.123-1.2" fill="#DBDBDB"/><mask id="a" style="mask-type:alpha" maskUnits="userSpaceOnUse" x="0" y="0" width="16" height="12"><path fill-rule="evenodd" clip-rule="evenodd" d="M13.825 3.116L8.211 7.928a.539.539 0 01-.702 0L1.895 3.116a.63.63 0 01-.087-.844.538.538 0 01.789-.093L7.86 6.69l5.263-4.511a.537.537 0 01.79.093.63.63 0 01-.088.844m.772-2.87H1.123C.503.246 0 .784 0 1.447v9.007c0 .663.503 1.201 1.123 1.201h13.474c.62 0 1.123-.538 1.123-1.201V1.447c0-.663-.503-1.2-1.123-1.2" fill="#fff"/></mask><g filter="url(#filter0_d_437_1553)" mask="url(#a)"><path fill="#fff" d="M0 .246h16v11.409H0z"/></g><defs><filter id="filter0_d_437_1553" x="-4" y=".246" width="24" height="19.409" filterUnits="userSpaceOnUse" color-interpolation-filters="sRGB"><feFlood flood-opacity="0" result="BackgroundImageFix"/><feColorMatrix in="SourceAlpha" values="0 0 0 0 0 0 0 0 0 0 0 0 0 0 0 0 0 0 127 0" result="hardAlpha"/><feOffset dy="4"/><feGaussianBlur stdDeviation="2"/><feComposite in2="hardAlpha" operator="out"/><feColorMatrix values="0 0 0 0 0 0 0 0 0 0 0 0 0 0 0 0 0 0 0.25 0"/><feBlend in2="BackgroundImageFix" result="effect1_dropShadow_437_1553"/><feBlend in="SourceGraphic" in2="effect1_dropShadow_437_1553" result="shape"/></filter></defs></svg>