<svg data-name="Payment Icons" xmlns="http://www.w3.org/2000/svg" viewBox="0 0 38 38"><rect x=".5" y="7.5" width="37" height="23" rx="4.5" fill="#fff"/><path d="M33 8a4 4 0 014 4v14a4 4 0 01-4 4H5a4 4 0 01-4-4V12a4 4 0 014-4h28m0-1H5a5 5 0 00-5 5v14a5 5 0 005 5h28a5 5 0 005-5V12a5 5 0 00-5-5z" fill="#f7f7f7"/><path d="M27.31 19A4.75 4.75 0 0119 22.14a4.74 4.74 0 000-6.28A4.75 4.75 0 0127.31 19z" fill="#f79e1b"/><ellipse cx="19" cy="19" rx="1.19" ry="3.14" fill="#ff5f00"/><path d="M17.81 19A4.76 4.76 0 0019 22.14a4.75 4.75 0 110-6.28A4.76 4.76 0 0017.81 19z" fill="#eb001b"/></svg>