<svg width="47" height="54" viewBox="0 0 47 54" fill="none" xmlns="http://www.w3.org/2000/svg"><path d="M44.026 18.96H42.75v-6.142a.842.842 0 00-.011-.116 1.015 1.015 0 00-.248-.672L32.26.357l-.008-.008a1.063 1.063 0 00-.206-.173l-.068-.04a1.032 1.032 0 00-.205-.087L31.718.03a1.015 1.015 0 00-.24-.03H6.33a2.082 2.082 0 00-2.081 2.078v16.88H2.974A2.972 2.972 0 000 21.928v15.449a2.974 2.974 0 002.974 2.97H4.25v10.575A2.08 2.08 0 006.33 53h34.34a2.083 2.083 0 002.081-2.078V40.347h1.275A2.973 2.973 0 0047 37.377V21.928a2.971 2.971 0 00-2.974-2.968zM6.33 2.078h24.107v10.635a1.04 1.04 0 001.042 1.038h9.193v5.207H6.33V2.078zm34.34 48.284H6.33V40.349h34.34v10.013z" fill="#4169E1"/><path d="M3.712 25.76v3.21h4.065v1.613H3.712V35H1.687V24.155h6.84v1.605H3.712zm12.824 7.575V35h-6.352V24.155H12.2v9.18h4.335zm11.402-3.758a6.04 6.04 0 01-.397 2.213c-.26.675-.63 1.26-1.11 1.755a5.105 5.105 0 01-1.733 1.163c-.675.275-1.425.412-2.25.412-.82 0-1.567-.137-2.242-.412a5.186 5.186 0 01-1.74-1.163 5.241 5.241 0 01-1.118-1.755 6.04 6.04 0 01-.397-2.212c0-.796.132-1.53.397-2.206a5.224 5.224 0 011.118-1.762 5.095 5.095 0 011.74-1.155c.675-.28 1.422-.42 2.242-.42.55 0 1.068.065 1.553.195.485.125.93.305 1.335.54.405.23.767.512 1.087.848.325.33.6.7.825 1.11.225.41.395.854.51 1.334.12.48.18.985.18 1.515zm-2.062 0a4.94 4.94 0 00-.24-1.597 3.427 3.427 0 00-.683-1.207 2.916 2.916 0 00-1.08-.758 3.675 3.675 0 00-1.425-.262c-.53 0-1.007.087-1.432.262a3 3 0 00-1.08.758c-.295.33-.523.732-.683 1.207-.16.47-.24 1.003-.24 1.598 0 .595.08 1.13.24 1.605.16.47.388.87.683 1.2.3.325.66.575 1.08.75.425.174.902.262 1.432.262.53 0 1.005-.088 1.425-.263a2.957 2.957 0 001.08-.75c.295-.33.523-.73.683-1.2.16-.474.24-1.01.24-1.604zm9.227 1.328l-1.32-3.608a7.895 7.895 0 01-.203-.57c-.07-.22-.14-.457-.21-.712-.064.255-.132.495-.202.72-.07.22-.137.413-.203.578l-1.312 3.592h3.45zM38.666 35h-1.56a.68.68 0 01-.428-.127.847.847 0 01-.247-.33l-.81-2.213h-4.493l-.81 2.212a.719.719 0 01-.233.316.649.649 0 01-.427.142h-1.575l4.267-10.845h2.056L38.666 35zm7.642-9.188h-3.27V35h-2.017v-9.188h-3.27v-1.657h8.557v1.657z" fill="#fff"/></svg>