<svg width="48" height="55" viewBox="0 0 48 55" fill="none" xmlns="http://www.w3.org/2000/svg"><path d="M44.886 19.316h-1.297v-6.258a.858.858 0 00-.012-.118 1.043 1.043 0 00-.25-.687L32.914.362l-.007-.008a1.082 1.082 0 00-.488-.304l-.057-.02a1.03 1.03 0 00-.243-.03H6.529A2.12 2.12 0 004.41 2.118v17.198H3.114a3.026 3.026 0 00-3.027 3.026v15.74a3.028 3.028 0 003.027 3.026H4.41v10.776a2.12 2.12 0 002.117 2.118H41.47a2.12 2.12 0 002.118-2.118V41.108h1.297a3.027 3.027 0 003.026-3.026v-15.74a3.027 3.027 0 00-3.026-3.026zM6.528 2.117h24.53v10.835c0 .585.475 1.058 1.06 1.058h9.355v5.305H6.528V2.117zM41.471 51.31H6.528V41.108h34.943V51.31z" fill="#4169E1"/><path d="M17.342 30.475v5.265a6.967 6.967 0 01-2.115 1.071 8.334 8.334 0 01-2.394.333c-1.062 0-2.025-.165-2.889-.495a6.515 6.515 0 01-2.205-1.377 6.063 6.063 0 01-1.404-2.106c-.33-.816-.495-1.707-.495-2.673 0-.978.159-1.875.477-2.691a6.104 6.104 0 011.35-2.106A6.093 6.093 0 019.8 24.328c.834-.324 1.77-.486 2.808-.486.528 0 1.02.042 1.476.126.462.084.888.201 1.278.351a5.32 5.32 0 011.08.531c.324.21.621.441.891.693l-.693 1.098a.68.68 0 01-.423.324c-.174.036-.363-.009-.567-.135l-.594-.342a3.78 3.78 0 00-.666-.297 5.251 5.251 0 00-.819-.207 5.952 5.952 0 00-1.044-.081c-.642 0-1.224.108-1.746.324a3.693 3.693 0 00-1.323.927 4.178 4.178 0 00-.846 1.449 5.678 5.678 0 00-.297 1.89c0 .744.105 1.41.315 1.998.216.582.516 1.077.9 1.485.39.402.858.711 1.404.927.546.21 1.155.315 1.827.315.48 0 .909-.051 1.287-.153.378-.102.747-.24 1.107-.414v-2.358h-1.638a.52.52 0 01-.369-.126.458.458 0 01-.126-.324v-1.368h4.32zm4.763-4.563v3.609h4.554v1.863h-4.554v3.681h5.778V37h-8.208V23.986h8.208v1.926h-5.778zm20.053 4.581a7.27 7.27 0 01-.477 2.655 6.176 6.176 0 01-1.332 2.106 6.126 6.126 0 01-2.08 1.395c-.81.33-1.71.495-2.7.495-.983 0-1.88-.165-2.69-.495a6.223 6.223 0 01-2.088-1.395 6.29 6.29 0 01-1.341-2.106 7.249 7.249 0 01-.477-2.655c0-.954.159-1.836.477-2.646a6.27 6.27 0 011.34-2.115 6.114 6.114 0 012.089-1.386c.81-.336 1.707-.504 2.69-.504.66 0 1.282.078 1.864.234.582.15 1.116.366 1.602.648a5.66 5.66 0 011.305 1.017c.39.396.72.84.99 1.332.27.492.474 1.026.612 1.602a7.47 7.47 0 01.216 1.818zm-2.475 0c0-.714-.096-1.353-.288-1.917a4.113 4.113 0 00-.82-1.449 3.499 3.499 0 00-1.295-.909c-.504-.21-1.074-.315-1.71-.315-.636 0-1.21.105-1.72.315-.503.21-.935.513-1.295.909a4.113 4.113 0 00-.82 1.449c-.191.564-.287 1.203-.287 1.917s.096 1.356.288 1.926c.192.564.465 1.044.819 1.44.36.39.792.69 1.296.9.51.21 1.083.315 1.719.315.636 0 1.206-.105 1.71-.315.51-.21.942-.51 1.296-.9.354-.396.627-.876.819-1.44.192-.57.288-1.212.288-1.926z" fill="#fff"/></svg>