<svg width="130" height="131" viewBox="0 0 130 131" fill="none" xmlns="http://www.w3.org/2000/svg">
<path d="M102.916 76.8333H27.0832C24.0916 76.8333 21.6665 79.2584 21.6665 82.2499V98.4999C21.6665 101.491 24.0916 103.917 27.0832 103.917H102.916C105.908 103.917 108.333 101.491 108.333 98.4999V82.2499C108.333 79.2584 105.908 76.8333 102.916 76.8333Z" stroke="#14181F" stroke-width="2" stroke-linecap="round" stroke-linejoin="round"/>
<path d="M103.222 33.9578H27.3883C24.3968 33.9578 21.9717 36.3829 21.9717 39.3744V55.6244C21.9717 58.616 24.3968 61.0411 27.3883 61.0411H103.222C106.213 61.0411 108.638 58.616 108.638 55.6244V39.3744C108.638 36.3829 106.213 33.9578 103.222 33.9578Z" stroke="#14181F" stroke-width="2" stroke-linecap="round" stroke-linejoin="round"/>
<path d="M98.8734 46.7747L42.1128 46.7747" stroke="#14181F" stroke-width="2"/>
<path d="M98.8734 90.7183L42.1128 90.7183" stroke="#14181F" stroke-width="2"/>
<ellipse cx="32.9579" cy="46.7748" rx="3.66197" ry="3.66197" fill="#14181F"/>
<ellipse cx="32.9579" cy="90.7184" rx="3.66197" ry="3.66198" fill="#14181F"/>
<path d="M14.647 45.8592C-5.88966 35.9654 13.2703 10.0238 33.9503 19.0258C43.3054 -5.8367 63.7383 -3.2312 77.8947 16.1789C87.7827 7.29775 96.6747 9.66406 103.528 20.9235C127.148 16.4338 128.177 38.754 117.26 46.5431" stroke="#14181F" stroke-width="2"/>
</svg>
