<svg width="130" height="131" viewBox="0 0 130 131" fill="none" xmlns="http://www.w3.org/2000/svg"><path d="M102.916 76.833H27.083a5.417 5.417 0 00-5.416 5.417V98.5a5.417 5.417 0 005.416 5.417h75.833a5.417 5.417 0 005.417-5.417V82.25a5.417 5.417 0 00-5.417-5.417zm.306-42.875H27.388a5.417 5.417 0 00-5.416 5.416v16.25a5.417 5.417 0 005.416 5.417h75.834a5.416 5.416 0 005.416-5.417v-16.25a5.416 5.416 0 00-5.416-5.416z" stroke="#14181F" stroke-width="2" stroke-linecap="round" stroke-linejoin="round"/><path d="M98.873 46.775h-56.76m56.76 43.943h-56.76" stroke="#14181F" stroke-width="2"/><circle cx="32.958" cy="46.775" fill="#14181F" r="3.662"/><circle cx="32.958" cy="90.718" fill="#14181F" r="3.662"/><path d="M14.647 45.86C-5.89 35.964 13.27 10.023 33.95 19.025c9.355-24.863 29.788-22.257 43.945-2.847 9.888-8.881 18.78-6.515 25.633 4.745 23.62-4.49 24.649 17.83 13.732 25.62" stroke="#14181F" stroke-width="2"/></svg>