<svg data-name="Payment Icons" xmlns="http://www.w3.org/2000/svg" viewBox="0 0 38 38"><rect x=".5" y="7.5" width="37" height="23" rx="4.5" fill="#fff"/><path d="M33 8a4 4 0 014 4v14a4 4 0 01-4 4H5a4 4 0 01-4-4V12a4 4 0 014-4h28m0-1H5a5 5 0 00-5 5v14a5 5 0 005 5h28a5 5 0 005-5V12a5 5 0 00-5-5z" fill="#f7f7f7"/><path d="M10.42 16a1.91 1.91 0 00-1.51-.53h-2a.3.3 0 00-.29.25L5.73 21a.18.18 0 00.18.2h1a.3.3 0 00.27-.2l.22-1.44a.28.28 0 01.28-.25h.65a2.11 2.11 0 002.35-2 1.56 1.56 0 00-.26-1.31zm-1.27 1.39c-.11.74-.68.74-1.22.74h-.31l.21-1.39a.18.18 0 01.17-.15h.14c.37 0 .73 0 .9.21a.68.68 0 01.11.59zm5.94-.03h-1a.2.2 0 00-.18.14v.29l-.07-.11a1.42 1.42 0 00-1.17-.41 2.28 2.28 0 00-2.21 2 1.91 1.91 0 00.37 1.53 1.53 1.53 0 001.25.5 1.86 1.86 0 001.36-.57v.29a.18.18 0 00.16.19h.89a.28.28 0 00.29-.24l.53-3.41a.16.16 0 00-.22-.2zm-2.5 2.89a.85.85 0 01-.66-.26.93.93 0 01-.16-.71 1.13 1.13 0 011.11-1 .83.83 0 01.66.28.79.79 0 01.17.7 1.11 1.11 0 01-1.12.99zm7.76-2.89h-1a.28.28 0 00-.24.13l-1.37 2-.58-1.95a.3.3 0 00-.28-.21h-1a.17.17 0 00-.16.23l1.09 3.24-1 1.46a.17.17 0 00.14.27h1a.27.27 0 00.24-.12l3.3-4.81a.17.17 0 00-.14-.24z" fill="#253b80"/><path d="M25.15 16a1.92 1.92 0 00-1.51-.53h-2.07a.27.27 0 00-.27.25L20.45 21a.18.18 0 00.18.2h1.06a.2.2 0 00.19-.18l.24-1.51a.29.29 0 01.28-.25h.66a2.13 2.13 0 002.35-2 1.63 1.63 0 00-.26-1.26zm-1.28 1.42c-.1.74-.67.74-1.22.74h-.31l.22-1.39a.16.16 0 01.17-.15h.15c.37 0 .72 0 .9.21a.68.68 0 01.09.56zm5.94-.06h-1a.18.18 0 00-.18.14v.29l-.07-.11a1.39 1.39 0 00-1.16-.41 2.28 2.28 0 00-2.21 2 1.83 1.83 0 00.37 1.53 1.5 1.5 0 001.24.5 1.89 1.89 0 001.37-.57v.29a.17.17 0 00.17.19h.89a.28.28 0 00.28-.24l.49-3.41a.17.17 0 00-.19-.2zm-2.49 2.89a.86.86 0 01-.67-.26.89.89 0 01-.15-.71 1.11 1.11 0 011.1-1 .79.79 0 01.83 1 1.09 1.09 0 01-1.11.97zm4.78-4.81h-1a.16.16 0 00-.17.14l-.8 5.42a.17.17 0 00.17.2h.85a.28.28 0 00.28-.24l.84-5.33a.17.17 0 00-.17-.19z" fill="#179bd7"/></svg>