<svg width="21" height="18" viewBox="0 0 21 18" fill="none" xmlns="http://www.w3.org/2000/svg"><path fill-rule="evenodd" clip-rule="evenodd" d="M9.056 9.853C5.559 6.912 6.058 6.492 6.058 6.492l1.5-1.26c.551-.465.551-1.218 0-1.681L4.447.936C3.923.494 3.079.466 2.522.88 1.604 1.562.369 2.688.063 3.971c-.5 2.1 2 5.042 5.995 8.403 3.997 3.36 7.494 5.462 9.992 5.042 1.525-.257 2.864-1.296 3.675-2.067.493-.468.46-1.179-.066-1.622l-3.11-2.614c-.55-.464-1.446-.464-1.998 0l-1.498 1.261s-.5.42-3.997-2.521z" fill="#DBDBDB"/><mask id="a" style="mask-type:alpha" maskUnits="userSpaceOnUse" x="0" y="0" width="21" height="18"><path fill-rule="evenodd" clip-rule="evenodd" d="M9.056 9.853C5.559 6.912 6.058 6.492 6.058 6.492l1.5-1.26c.551-.465.551-1.218 0-1.681L4.447.936C3.923.494 3.079.466 2.522.88 1.604 1.562.369 2.688.063 3.971c-.5 2.1 2 5.042 5.995 8.403 3.997 3.36 7.494 5.462 9.992 5.042 1.525-.257 2.864-1.296 3.675-2.067.493-.468.46-1.179-.066-1.622l-3.11-2.614c-.55-.464-1.446-.464-1.998 0l-1.498 1.261s-.5.42-3.997-2.521z" fill="#fff"/></mask><g mask="url(#a)"><path fill="#fff" d="M0 .586h20.489v17.231H0z"/></g></svg>