<svg width="64" height="62" viewBox="0 0 64 62" fill="none" xmlns="http://www.w3.org/2000/svg"><path d="M19.25 30.705c0-16.035 5.777-29.034 12.9-29.034s12.9 12.999 12.9 29.034" stroke="#2061D6" stroke-width="3" stroke-linecap="round" stroke-linejoin="round"/><path d="M2.05 30.705s4.3-2.074 8.6-2.074 8.6 2.074 8.6 2.074 6.45-2.074 12.9-2.074 12.9 2.074 12.9 2.074 4.3-2.074 8.6-2.074 8.6 2.074 8.6 2.074" stroke="#2061D6" stroke-width="3" stroke-linecap="round" stroke-linejoin="round"/><path d="M62.25 30.705c0-16.035-13.476-29.034-30.1-29.034-16.624 0-30.1 12.999-30.1 29.034" stroke="#2061D6" stroke-width="3" stroke-linecap="round" stroke-linejoin="round"/><path d="M32.15 28.631v26.961c0 2.29-1.926 4.148-4.3 4.148-2.374 0-4.3-1.858-4.3-4.148v-2.074M6.35 43.149v8.295m-4.3-4.147h8.6m47.3 4.147v8.296m-4.3-4.148h8.6" stroke="#2061D6" stroke-width="3" stroke-linecap="round" stroke-linejoin="round"/></svg>