<svg width="40" height="40" viewBox="0 0 40 40" fill="none" xmlns="http://www.w3.org/2000/svg"><path opacity=".8" d="M33.333 25.75c-2.083 0-4.083-.333-5.95-.95a1.858 1.858 0 00-.516-.083c-.434 0-.85.166-1.184.483l-3.666 3.667a25.076 25.076 0 01-10.984-10.984L14.7 14.2c.467-.433.6-1.083.417-1.667a18.933 18.933 0 01-.95-5.95c0-.916-.75-1.666-1.667-1.666H6.667C5.75 4.917 5 5.667 5 6.583c0 15.65 12.683 28.334 28.333 28.334.917 0 1.667-.75 1.667-1.667v-5.833c0-.917-.75-1.667-1.667-1.667zM8.383 8.25h2.5c.117 1.467.367 2.917.75 4.3l-2 2.017a25.578 25.578 0 01-1.25-6.317zm23.284 23.283c-2.2-.15-4.334-.583-6.334-1.266l2-2c1.417.4 2.867.65 4.334.75v2.516zM30 9.917v-5h-3.333v5h-5v3.333h5v5H30v-5h5V9.917h-5z" fill="#323232"/></svg>