<svg width="110" height="110" viewBox="0 0 110 110" fill="none" xmlns="http://www.w3.org/2000/svg"><path d="M84.893 59.54c0 9.29-4.498 18.19-11.946 23.735-7.318 5.45-17.04 7.195-25.845 4.858-8.85-2.35-16.278-8.883-19.77-17.344-2.67-6.469-2.222-13.304-2.222-20.139v-3.317c0-.467 1.512-.209 1.887-.209h57.358c.584 0 .538-.064.538.5V59.54zM34.17 41.28c0-9.457 6.42-18.506 15.654-21.01 9.05-2.455 18.476 2.006 23.082 10.006 2.215 3.848 2.955 7.992 2.955 12.377 0 .13.043 1.373-.035 1.373h-5.804c-.312 0-.14-.88-.14-1.13 0-1.091-.005-2.18-.102-3.27-.119-1.33-.22-3.024-.812-4.244-.56-1.156-2.269-1.131-2.802.036-.27.59-.047 1.144.092 1.734.166.704.288 1.418.373 2.136.134 1.133.153 2.268.153 3.407 0 .116.025 1.331-.02 1.331H43.32c-.376 0 .241-5.69.33-6.142.594-3.074 1.986-6.19 4.724-7.914 1.63-1.025 3.55-1.428 5.459-1.428 1.712 0 3.455-.095 5.132.314 1.04.253 2.317 1.229 3.352.53 1.232-.831.622-2.32-.508-2.823-2.173-.967-4.454-1.12-6.793-1.12-3.69 0-7.202.629-10.017 3.209-4.203 3.853-4.837 9.638-4.837 15.014 0 .634-.702.36-1.26.36h-3.298c-.294 0-1.434.19-1.434-.167V41.28zm52.276 2.746h-7.308c-.394 0-.175-2.296-.182-2.746 0-2.413-.35-4.824-1.042-7.137-2.655-8.873-10.317-16.098-19.599-17.418-9.151-1.302-18.116 3.143-23.128 10.816-2.602 3.984-4.056 8.682-4.113 13.444-.005.46.129 3.041-.115 3.041h-7.39c-1.427 0-1.557 1.303-1.557 2.367v8.968c0 2.632-.088 5.285.211 7.905a32.57 32.57 0 004.395 12.987c4.683 7.836 12.609 13.496 21.561 15.313 8.917 1.809 18.439-.038 25.895-5.284 7.495-5.274 12.553-13.629 13.674-22.735.326-2.651.242-5.331.242-7.997v-9.051c0-1.082-.06-2.473-1.544-2.473z" fill="#4790CD"/></svg>