<svg width="64" height="65" viewBox="0 0 64 65" fill="none" xmlns="http://www.w3.org/2000/svg"><path clip-rule="evenodd" d="M12.886 58.82H6.414c-2.381 0-4.314-1.948-4.314-4.347v-4.345c0-2.4 1.933-4.346 4.314-4.346h6.472v13.037z" stroke="#2061D6" stroke-width="3" stroke-linecap="round" stroke-linejoin="round"/><path clip-rule="evenodd" d="M19.357 63.165h-4.314a2.163 2.163 0 01-2.157-2.173V43.61c0-1.202.964-2.173 2.157-2.173h4.314c1.193 0 2.157.971 2.157 2.173v17.383a2.163 2.163 0 01-2.157 2.173zm32.357-4.345h6.472c2.381 0 4.314-1.948 4.314-4.347v-4.345c0-2.4-1.933-4.346-4.314-4.346h-6.472v13.037z" stroke="#2061D6" stroke-width="3" stroke-linecap="round" stroke-linejoin="round"/><path clip-rule="evenodd" d="M45.243 63.165h4.314a2.163 2.163 0 002.157-2.173V43.61a2.163 2.163 0 00-2.157-2.173h-4.314a2.163 2.163 0 00-2.157 2.173v17.383c0 1.202.964 2.173 2.157 2.173z" stroke="#2061D6" stroke-width="3" stroke-linecap="round" stroke-linejoin="round"/><path d="M51.717 13.326a26.093 26.093 0 016.469 17.246v15.21m-51.772 0v-15.21a26.095 26.095 0 016.472-17.25" stroke="#2061D6" stroke-width="3" stroke-linecap="round" stroke-linejoin="round"/><path clip-rule="evenodd" d="M51.714 12.895c0 3.285-3.716 5.13-6.325 3.157-3.84-2.905-8.313-5.037-13.089-5.037s-9.25 2.132-13.09 5.037c-2.61 1.976-6.327.13-6.327-3.157v-.013c0-1.11.398-2.205 1.178-2.988 4.68-4.678 11.125-7.57 18.239-7.57 7.114 0 13.558 2.89 18.236 7.568.781.785 1.178 1.877 1.178 2.988v.015z" stroke="#2061D6" stroke-width="3" stroke-linecap="round" stroke-linejoin="round"/></svg>