<svg width="64" height="63" viewBox="0 0 64 63" fill="none" xmlns="http://www.w3.org/2000/svg"><path d="M32.15 24.438v36.505M21.4 37.04l10.75-12.602L42.9 37.04" stroke="#2060D5" stroke-width="3" stroke-linecap="round" stroke-linejoin="round"/><path d="M40.943 50.078h8.407c7.125 0 12.9-5.838 12.9-13.037a13.06 13.06 0 00-4.748-10.1c.263-.94.448-1.912.448-2.938 0-6-4.812-10.864-10.75-10.864-.665 0-1.31.08-1.94.197-3.13-6.54-9.74-11.062-17.41-11.062-10.688 0-19.35 8.755-19.35 19.556 0 .183.021.363.028.544A15.24 15.24 0 002.05 34.867c0 8.4 6.738 15.21 15.05 15.21h6.366M2.05 34.868c0-8.4 6.738-15.21 15.05-15.21M27.85 2.274c10.688 0 19.35 8.755 19.35 19.556" stroke="#2060D5" stroke-width="3" stroke-linecap="round" stroke-linejoin="round"/></svg>