<svg width="100" height="100" viewBox="0 0 100 100" fill="none" xmlns="http://www.w3.org/2000/svg"><path d="M13.722 19.158h70.161c.444 0 .805.361.805.805v3.994h-71.77v-3.994c0-.444.361-.805.804-.805zm34.643 51.85H13.722a.806.806 0 01-.804-.804v-42.77h71.77v6.619a1.74 1.74 0 003.477 0v-14.09a4.287 4.287 0 00-4.282-4.283h-70.16a4.288 4.288 0 00-4.283 4.283v50.24a4.288 4.288 0 004.282 4.284h34.643a1.74 1.74 0 000-3.478z" fill="#2770EC"/><path d="M80.794 23.137h.593a1.74 1.74 0 000-3.477h-.593a1.739 1.739 0 000 3.477zm-5.934 0h.59a1.74 1.74 0 000-3.477h-.59a1.74 1.74 0 100 3.477zm-5.938 0h.592a1.74 1.74 0 000-3.477h-.592a1.74 1.74 0 000 3.477zm5.306 43.496a5.733 5.733 0 01-5.725-5.727 5.732 5.732 0 015.725-5.726 5.733 5.733 0 015.727 5.726 5.734 5.734 0 01-5.727 5.727zm0-14.93c-5.075 0-9.204 4.128-9.204 9.203 0 5.076 4.129 9.205 9.204 9.205 5.076 0 9.204-4.13 9.204-9.205s-4.128-9.204-9.204-9.204z" fill="#2770EC"/><path d="M97.142 63.962a.947.947 0 01-.947.946H92.14c-.022 0-.042.006-.064.007a1.757 1.757 0 00-.66.156 1.765 1.765 0 00-.448.3c-.032.03-.065.06-.094.092a1.575 1.575 0 00-.123.147c-.03.042-.06.084-.087.128a2.07 2.07 0 00-.153.319c-.009.024-.023.046-.031.072-.25.798-.587 1.613-1.001 2.424-.018.034-.027.07-.042.104l-.032.083a1.71 1.71 0 00-.11.573c-.002.025 0 .05 0 .076a1.739 1.739 0 00.145.65c.081.185.192.355.335.504.01.01.012.023.022.033l2.864 2.865a.943.943 0 010 1.338l-4.33 4.329a.967.967 0 01-1.337 0l-2.88-2.878c-.008-.01-.021-.012-.03-.021a1.732 1.732 0 00-.51-.338c-.024-.01-.047-.021-.071-.03a1.745 1.745 0 00-1.223-.003.921.921 0 00-.087.034c-.035.016-.072.025-.107.043a16.02 16.02 0 01-2.42 1.003c-.024.008-.044.02-.068.03a1.667 1.667 0 00-.313.153c-.046.028-.088.06-.13.092a1.656 1.656 0 00-.14.114 1.632 1.632 0 00-.105.111c-.04.045-.079.089-.114.137-.031.044-.058.09-.086.135-.029.05-.057.098-.081.15a1.97 1.97 0 00-.112.319 2.275 2.275 0 00-.048.345c-.001.023-.007.045-.007.069v4.064a.948.948 0 01-.947.946h-6.12a.947.947 0 01-.947-.946v-4.085c0-.026-.006-.049-.007-.074a1.741 1.741 0 00-.163-.665c-.023-.051-.052-.099-.08-.147a2.035 2.035 0 00-.088-.137 1.719 1.719 0 00-.112-.135c-.035-.038-.07-.077-.107-.112a1.804 1.804 0 00-.584-.357c-.024-.009-.047-.023-.073-.032a15.397 15.397 0 01-2.401-.996c-.034-.017-.07-.026-.105-.041a1.74 1.74 0 00-.655-.144l-.079.002a1.76 1.76 0 00-.573.112l-.073.032a1.71 1.71 0 00-.509.337c-.008.009-.02.011-.03.02l-2.893 2.893a.967.967 0 01-1.337 0l-4.33-4.331a.938.938 0 010-1.336l2.9-2.901c.01-.01.012-.022.02-.03a1.74 1.74 0 00.338-.51l.031-.072c.07-.183.106-.377.112-.575l.002-.077a1.735 1.735 0 00-.145-.658c-.015-.033-.023-.068-.04-.1a15.843 15.843 0 01-.99-2.398c-.008-.026-.022-.047-.03-.072a1.693 1.693 0 00-.073-.166 1.578 1.578 0 00-.079-.146 1.92 1.92 0 00-.456-.492 1.546 1.546 0 00-.128-.082 1.609 1.609 0 00-.16-.087c-.045-.022-.091-.038-.14-.056a1.844 1.844 0 00-.18-.056 1.811 1.811 0 00-.344-.048c-.023 0-.044-.007-.067-.007h-4.1a.947.947 0 01-.946-.946v-6.127c0-.522.425-.947.947-.947h4.1c.168 0 .33-.03.484-.077l.093-.028c.15-.053.293-.123.421-.214.019-.013.034-.029.051-.042.117-.09.22-.193.311-.308.018-.023.038-.041.054-.065.093-.13.166-.277.22-.432.005-.016.017-.028.022-.045.255-.8.588-1.605.99-2.393.018-.034.026-.069.041-.103l.032-.082c.071-.188.109-.381.112-.575 0-.025 0-.048-.002-.072a1.738 1.738 0 00-.113-.579c-.009-.024-.02-.046-.03-.071a1.71 1.71 0 00-.338-.508c-.01-.01-.01-.022-.02-.031l-2.9-2.9a.938.938 0 010-1.336l4.33-4.331a.969.969 0 011.338 0l2.892 2.893c.015.014.035.019.05.033.135.126.288.224.452.3.05.023.097.045.148.063.186.066.378.112.577.112l.004.001c.195 0 .39-.045.58-.113.04-.014.078-.025.116-.042.031-.014.065-.02.097-.036a15.401 15.401 0 012.4-.996c.027-.009.05-.023.075-.033a1.856 1.856 0 00.313-.151 1.791 1.791 0 00.657-.736 1.39 1.39 0 00.062-.155 1.573 1.573 0 00.1-.51c.002-.025.008-.049.008-.074V39.16c0-.522.425-.947.947-.947h6.12c.522 0 .947.425.947.947v4.07c0 .023.006.045.007.07a1.766 1.766 0 00.327.947c.035.049.074.093.113.137.035.038.07.077.106.111.044.041.09.079.14.115a1.693 1.693 0 00.443.244c.024.01.044.023.068.03a15.92 15.92 0 012.42 1.004c.032.016.067.022.099.037.04.017.079.03.12.045.19.068.384.113.579.113v-.001h.003c.2 0 .391-.046.578-.112.05-.018.097-.04.147-.063.165-.077.318-.175.453-.301.015-.015.035-.019.049-.032l2.88-2.88a.969.969 0 011.338 0l4.329 4.332c.18.177.277.415.277.668a.94.94 0 01-.277.669l-2.864 2.864c-.01.009-.012.021-.02.03a1.686 1.686 0 00-.338.51c-.011.024-.023.047-.032.071a1.75 1.75 0 00-.112.577c0 .025-.002.05 0 .075a1.713 1.713 0 00.143.655c.015.037.024.074.043.11.394.762.732 1.578 1.002 2.425.005.016.017.028.023.044.055.154.127.3.221.431.017.023.035.042.052.064.092.116.196.22.313.309.017.013.032.028.05.04a1.687 1.687 0 00.515.243c.154.045.314.077.483.077h4.056c.523 0 .947.424.947.946v6.127zm-.947-10.552h-2.842a22.843 22.843 0 00-.24-.581l2.006-2.006a4.397 4.397 0 001.296-3.128c0-1.183-.46-2.294-1.296-3.129l-4.328-4.329c-1.671-1.671-4.59-1.671-6.257 0l-2.021 2.02c-.19-.082-.38-.161-.575-.238v-2.858a4.429 4.429 0 00-4.424-4.424h-6.12a4.43 4.43 0 00-4.425 4.424v2.877c-.187.074-.372.153-.56.234l-2.034-2.035c-1.67-1.671-4.588-1.671-6.257 0l-4.329 4.328a4.4 4.4 0 00-1.296 3.13c0 1.182.461 2.294 1.296 3.128l2.043 2.042c-.079.182-.155.363-.227.545H52.72a4.429 4.429 0 00-4.425 4.425v6.127a4.429 4.429 0 004.425 4.424h2.884c.073.186.15.368.229.551l-2.044 2.043a4.4 4.4 0 00-1.296 3.13c0 1.181.461 2.293 1.296 3.127l4.328 4.33a4.398 4.398 0 003.13 1.296c1.182 0 2.294-.46 3.128-1.297l2.035-2.034c.187.08.372.16.56.234v2.87a4.43 4.43 0 004.424 4.425h6.12a4.43 4.43 0 004.424-4.424v-2.853c.194-.076.385-.154.575-.237l2.02 2.02a4.398 4.398 0 003.129 1.296c1.181 0 2.293-.46 3.127-1.297l4.33-4.328a4.398 4.398 0 001.296-3.129c0-1.182-.46-2.293-1.296-3.128l-2.008-2.007c.086-.197.168-.391.245-.588h2.84a4.429 4.429 0 004.424-4.424v-6.127a4.429 4.429 0 00-4.425-4.425z" fill="#2770EC"/></svg>