<svg width="651" height="426" viewBox="0 0 651 426" fill="none" xmlns="http://www.w3.org/2000/svg"><path opacity=".5" d="M324.662 242.948c7.495 0 13.57-3.142 13.57-7.017 0-3.876-6.075-7.017-13.57-7.017-7.494 0-13.57 3.141-13.57 7.017 0 3.875 6.076 7.017 13.57 7.017z" fill="url(#paint0_linear_278_2454)"/><path d="M306.865 197.835l.514.837c3.203 5.209 4.289 11.301 3.062 17.182l-2.31 11.071c-.801 3.841 1.131 7.726 4.808 9.671l.036.019c3.066 1.623 6.837 1.618 9.899-.013 3.661-1.95 5.581-5.827 4.782-9.658l-2.297-11.01c-1.237-5.93-.123-12.072 3.14-17.308l.493-.791h-22.127z" fill="url(#paint1_linear_278_2454)"/><path d="M328.991 197.836c0 .962-1.697 1.816-4.331 2.361-1.866.385-4.199.614-6.732.614-2.533 0-4.869-.229-6.734-.614-2.632-.545-4.329-1.399-4.329-2.361 0-1.644 4.952-2.977 11.063-2.977 6.109 0 11.063 1.333 11.063 2.977z" fill="url(#paint2_linear_278_2454)"/><path d="M324.662 200.169c0 .009 0 .019-.002.028-1.866.385-4.199.614-6.732.614-2.533 0-4.869-.229-6.734-.614-.002-.009-.002-.019-.002-.028 0-1.002 3.015-1.812 6.736-1.812 3.719 0 6.734.81 6.734 1.812z" fill="url(#paint3_linear_278_2454)"/><path d="M320.41 199.874s6.17-74.186-4.686-75.768c-10.857-1.581 1.31 75.73 1.31 75.73l3.376.038z" fill="url(#paint4_linear_278_2454)"/><path d="M313.899 199.874s-20.707-55.808-10.354-58.582c10.354-2.774 14.982 58.582 14.982 58.582h-4.628z" fill="url(#paint5_linear_278_2454)"/><path d="M320.41 199.874s13.409-36.138 6.705-37.934c-6.704-1.796-9.702 37.934-9.702 37.934h2.997z" fill="url(#paint6_linear_278_2454)"/><path opacity=".5" d="M611.032 381.088s-4.765 25.818-23.51 23.728l-59.553-32.224c-7.247-3.635-6.162-10.095.854-14.098l7.321-4.176 74.888 26.77z" fill="url(#paint7_linear_278_2454)"/><path d="M550.262 332.866l.001-6.768-19.061 10.152 6.407 3.413 12.653-6.797z" fill="url(#paint8_linear_278_2454)"/><path d="M531.202 348.922V336.25l63.537 33.842v20.304l-56.371-30.024c-4.434-2.362-7.166-6.727-7.166-11.45z" fill="url(#paint9_linear_278_2454)"/><path d="M606.859 383.94l-12.12 6.455v-20.304l19.06-10.153v12.912c0 4.576-2.646 8.803-6.94 11.09z" fill="url(#paint10_linear_278_2454)"/><path d="M613.799 359.939l-63.536-33.841-.001 6.768 57.183 30.457 6.354-3.384z" fill="url(#paint11_linear_278_2454)"/><path d="M537.609 339.663l12.653-6.797 57.183 30.457-12.707 6.769-57.129-30.429z" fill="url(#paint12_linear_278_2454)"/><path d="M550.263 342.516s5.114-13.217 15.798-9.117c10.683 4.1-2.787 14.266 11.766 7.38 14.552-6.886 11.133 22.035 11.133 22.035l-38.697-20.298z" fill="url(#paint13_linear_278_2454)"/><path d="M545.572 340.055s.555-17.379 9.154-16.502c8.599.877-3.192 27.946 8.809 16.382s8.618 13.227 20.605 10.188c11.987-3.04 19.86-20.457 20.604-1.68.744 18.777-9.94 17.437-9.94 17.437l-49.232-25.825z" fill="url(#paint14_linear_278_2454)"/><path opacity=".5" d="M448.976 296.364s-4.765 25.818-23.511 23.728l-59.553-32.224c-7.247-3.635-6.161-10.095.855-14.098l7.32-4.176 74.889 26.77z" fill="url(#paint15_linear_278_2454)"/><path d="M388.206 248.142l.001-6.768-19.061 10.152 6.407 3.413 12.653-6.797z" fill="url(#paint16_linear_278_2454)"/><path d="M369.146 264.198v-12.672l63.537 33.842v20.304l-56.371-30.024c-4.434-2.362-7.166-6.726-7.166-11.45z" fill="url(#paint17_linear_278_2454)"/><path d="M444.803 299.217l-12.12 6.455v-20.304l19.06-10.153v12.912c0 4.575-2.646 8.802-6.94 11.09z" fill="url(#paint18_linear_278_2454)"/><path d="M451.743 275.215l-63.536-33.841-.001 6.768 57.183 30.457 6.354-3.384z" fill="url(#paint19_linear_278_2454)"/><path d="M375.552 254.939l12.654-6.797 57.183 30.457-12.707 6.769-57.13-30.429z" fill="url(#paint20_linear_278_2454)"/><path d="M388.207 257.792s5.114-13.217 15.798-9.117c10.683 4.1-2.786 14.266 11.766 7.38s11.133 22.035 11.133 22.035l-38.697-20.298z" fill="url(#paint21_linear_278_2454)"/><path d="M383.515 255.331s.555-17.379 9.154-16.502c8.599.877-3.192 27.946 8.809 16.382s8.618 13.227 20.605 10.188c11.987-3.04 19.86-20.457 20.605-1.68.744 18.777-9.941 17.437-9.941 17.437l-49.232-25.825z" fill="url(#paint22_linear_278_2454)"/><path d="M179.161 207.223l60.328 32.132v32.131l-60.329-32.131.001-32.132z" fill="url(#paint23_linear_278_2454)"/><path d="M299.818 207.223l-60.329 32.132v32.131l60.33-32.131-.001-32.132z" fill="url(#paint24_linear_278_2454)"/><path d="M179.161 207.223l60.328-32.133 60.329 32.133-60.329 32.132-60.328-32.132z" fill="url(#paint25_linear_278_2454)"/><path d="M200.023 207.223l39.466-21.021 39.466 21.021-39.466 21.02-39.466-21.02z" fill="url(#paint26_linear_278_2454)"/><path d="M208.022 211.483l31.467-16.76 31.467 16.76-31.467 16.76-31.467-16.76z" fill="url(#paint27_linear_278_2454)"/><path d="M187.339 175.09l52.15 27.777v27.774l-52.151-27.776.001-27.775z" fill="#4169E1"/><path d="M291.64 175.09l-52.151 27.777v27.774l52.152-27.776-.001-27.775z" fill="#4169E1"/><path d="M179.161 175.09l60.328 32.133v16.582l-60.329-32.131.001-16.584z" fill="url(#paint28_linear_278_2454)"/><path d="M299.818 175.09l-60.329 32.133v16.582l60.33-32.131-.001-16.584z" fill="url(#paint29_linear_278_2454)"/><path d="M179.161 175.09l60.328-32.132 60.329 32.132-60.329 32.133-60.328-32.133z" fill="url(#paint30_linear_278_2454)"/><path d="M200.023 175.09l39.466-21.02 39.466 21.02-39.466 21.021-39.466-21.021z" fill="url(#paint31_linear_278_2454)"/><path d="M208.022 179.35l31.467-16.76 31.467 16.76-31.467 16.761-31.467-16.761z" fill="url(#paint32_linear_278_2454)"/><path d="M187.339 142.958l52.15 27.776v27.774l-52.151-27.775.001-27.775z" fill="#4169E1"/><path d="M291.64 142.958l-52.151 27.776v27.774l52.152-27.775-.001-27.775z" fill="#4169E1"/><path d="M179.161 142.958l60.328 32.132v16.582l-60.329-32.131.001-16.583z" fill="url(#paint33_linear_278_2454)"/><path d="M299.818 142.958l-60.329 32.132v16.582l60.33-32.131-.001-16.583z" fill="url(#paint34_linear_278_2454)"/><path d="M179.161 142.958l60.328-32.133 60.329 32.133-60.329 32.132-60.328-32.132z" fill="url(#paint35_linear_278_2454)"/><path d="M200.023 142.958l39.466-21.021 39.466 21.021-39.466 21.02-39.466-21.02z" fill="url(#paint36_linear_278_2454)"/><path d="M208.022 147.218l31.467-16.76 31.467 16.76-31.467 16.76-31.467-16.76z" fill="url(#paint37_linear_278_2454)"/><path d="M239.489 121.937v8.521l-31.467 16.76-7.999-4.26 39.466-21.021z" fill="url(#paint38_linear_278_2454)"/><path d="M187.339 110.825l52.15 27.777v27.774L187.338 138.6l.001-27.775z" fill="#4169E1"/><path d="M291.64 110.825l-52.151 27.777v27.774l52.152-27.776-.001-27.775z" fill="#4169E1"/><path d="M179.161 94.76l60.328 32.133v32.129l-60.329-32.131.001-32.13z" fill="url(#paint39_linear_278_2454)"/><path d="M299.818 94.76l-60.329 32.133v32.129l60.33-32.131-.001-32.13z" fill="url(#paint40_linear_278_2454)"/><path d="M179.161 94.76l60.328-32.132 60.329 32.133-60.329 32.132-60.328-32.132z" fill="url(#paint41_linear_278_2454)"/><path d="M200.023 94.76l39.466-21.02 39.466 21.02-39.466 21.021-39.466-21.02z" fill="url(#paint42_linear_278_2454)"/><path d="M208.022 99.021l31.467-16.76 31.467 16.76-31.467 16.76-31.467-16.76z" fill="#4169E1"/><path d="M239.489 73.74v8.52l-31.467 16.761-7.999-4.26 39.466-21.021z" fill="url(#paint43_linear_278_2454)"/><path d="M285.513 160.966l5.727-3.049-1.403-.752-4.324 2.303v1.498z" fill="url(#paint44_linear_278_2454)"/><path d="M291.24 154.07v3.847l-1.403-.752v-2.304l1.403-.791z" fill="url(#paint45_linear_278_2454)"/><path d="M285.513 159.468v-2.303l4.324-2.304v2.304l-4.324 2.303z" fill="url(#paint46_linear_278_2454)"/><path d="M276.747 165.402l5.726-3.049-1.402-.752-4.324 2.303v1.498z" fill="url(#paint47_linear_278_2454)"/><path d="M282.473 158.505v3.848l-1.402-.752v-2.304l1.402-.792z" fill="url(#paint48_linear_278_2454)"/><path d="M276.747 163.904v-2.303l4.324-2.304v2.304l-4.324 2.303z" fill="url(#paint49_linear_278_2454)"/><path d="M256.835 208.886l5.727-3.05-1.402-.752-4.325 2.303v1.499z" fill="url(#paint50_linear_278_2454)"/><path d="M262.561 201.989v3.847l-1.402-.752v-2.304l1.402-.791z" fill="url(#paint51_linear_278_2454)"/><path d="M256.835 207.387v-2.303l4.325-2.304v2.304l-4.325 2.303z" fill="url(#paint52_linear_278_2454)"/><path d="M248.07 213.321l5.726-3.049-1.402-.752-4.324 2.303v1.498z" fill="url(#paint53_linear_278_2454)"/><path d="M253.796 206.425v3.847l-1.402-.752v-2.304l1.402-.791z" fill="url(#paint54_linear_278_2454)"/><path d="M248.07 211.823v-2.303l4.324-2.304v2.304l-4.324 2.303z" fill="url(#paint55_linear_278_2454)"/><path d="M193.465 161.94l-5.726-3.05 1.402-.752 4.324 2.304v1.498z" fill="url(#paint56_linear_278_2454)"/><path d="M187.739 155.043v3.847l1.402-.752v-2.303l-1.402-.792z" fill="url(#paint57_linear_278_2454)"/><path d="M193.466 160.442v-2.304l-4.325-2.303v2.303l4.325 2.304z" fill="url(#paint58_linear_278_2454)"/><path d="M202.232 166.376l-5.727-3.05 1.403-.752 4.324 2.303v1.499z" fill="url(#paint59_linear_278_2454)"/><path d="M196.505 159.479v3.847l1.403-.752v-2.304l-1.403-.791z" fill="url(#paint60_linear_278_2454)"/><path d="M202.233 164.877v-2.303l-4.325-2.304v2.304l4.325 2.303z" fill="url(#paint61_linear_278_2454)"/><path d="M222.144 209.859l-5.727-3.05 1.402-.752 4.325 2.304v1.498z" fill="url(#paint62_linear_278_2454)"/><path d="M216.417 202.962v3.847l1.402-.752v-2.303l-1.402-.792z" fill="url(#paint63_linear_278_2454)"/><path d="M222.144 208.361v-2.304l-4.325-2.303v2.303l4.325 2.304z" fill="url(#paint64_linear_278_2454)"/><path d="M230.91 214.295l-5.727-3.05 1.402-.751 4.325 2.303v1.498z" fill="url(#paint65_linear_278_2454)"/><path d="M225.183 207.398v3.847l1.402-.751v-2.304l-1.402-.792z" fill="url(#paint66_linear_278_2454)"/><path d="M230.911 212.797v-2.303l-4.325-2.304v2.304l4.325 2.303z" fill="url(#paint67_linear_278_2454)"/><path d="M376.68 0L651 146.107l-.003 202.309L376.68 202.307V0z" fill="#fff"/><path d="M497.746 206.729l41.928 22.329v77.755c0 7.526-4.353 14.48-11.418 18.243l-35.26 18.761-42.419-22.594 35.332-18.634c7.086-3.735 11.472-10.676 11.504-18.205l.333-77.655z" fill="url(#paint68_linear_278_2454)"/><path d="M493.275 205.157l41.928 22.328v77.755c0 7.526-4.352 14.481-11.418 18.243l-30.789 16.397-42.419-22.594 30.861-16.27c7.086-3.736 11.472-10.676 11.504-18.205l.333-77.654z" fill="url(#paint69_linear_278_2454)"/><path d="M450.578 317.286v3.937l42.418 22.593v-3.937l-42.418-22.593z" fill="url(#paint70_linear_278_2454)"/><path d="M368.413 4.6l274.32 146.107-.004 202.308-274.316-146.108V4.6z" fill="url(#paint71_linear_278_2454)"/><path d="M368.413 4.6l274.32 146.107-.002 179.715-274.317-146.108L368.413 4.6z" fill="#1D1D1B"/><path d="M372.926 14.362l263.15 140.157-.003 165.067-263.147-140.159V14.362z" fill="#4169E1"/><path d="M642.729 353.015l8.268-4.599.002-202.309-8.267 4.6-.003 202.308z" fill="url(#paint72_linear_278_2454)"/><path d="M368.413 4.6L376.68 0 651 146.107l-8.267 4.6L368.413 4.6z" fill="url(#paint73_linear_278_2454)"/><path d="M489.495 260.635c0-3.299 2.534-4.649 5.631-3 3.097 1.649 5.631 5.698 5.631 8.997 0 3.299-2.534 4.65-5.631 3-3.097-1.649-5.631-5.698-5.631-8.997z" fill="url(#paint74_linear_278_2454)"/><path fill-rule="evenodd" clip-rule="evenodd" d="M458.265 169.8c.008 2.505.647 5.151 1.648 7.305.395.85.847 1.621 1.34 2.277.553.75 1.16 1.347 1.795 1.745.329.205.65.347.96.429 1.027.271 1.932-.116 2.597-1.032l29.809 49.253a11.945 11.945 0 00-.183 2.218c.016 4.607 2.164 9.688 4.787 11.328.329.206.65.348.96.429 2.161.571 3.781-1.779 3.764-5.809a16.81 16.81 0 00-.208-2.537l29.828-11.492c.864 2.034 2.05 3.703 3.355 4.517.327.205.645.346.952.427.237.063.467.09.689.083.498-.006.954-.189 1.356-.516 1.064-.861 1.739-2.767 1.73-5.373-.014-4.137-1.748-8.66-4.002-10.724l-.142-40.647c2.34.624 3.958-1.729 3.944-5.76-.009-2.605-.7-5.363-1.773-7.565a12.537 12.537 0 00-1.362-2.214c-.515-.654-1.068-1.18-1.649-1.544a3.511 3.511 0 00-.96-.43c-1.051-.278-1.974.136-2.641 1.098l-29.874-48.8c.192-.792.295-1.712.293-2.74-.016-4.608-2.164-9.689-4.783-11.327a3.516 3.516 0 00-.961-.43c-2.162-.57-3.784 1.778-3.77 5.808.005 1.03.115 2.083.314 3.119l-29.664 11.573c-.877-2.337-2.177-4.28-3.622-5.184a3.461 3.461 0 00-.954-.426 2.37 2.37 0 00-.84-.075c-.488.045-.938.25-1.327.613-.991.908-1.612 2.769-1.604 5.268.015 4.142 1.746 8.663 4.002 10.729l.142 40.647c-2.338-.623-3.961 1.73-3.946 5.759zm7.748-52.166c.003 1.349-.262 2.413-.711 3.096-.328.508-.759.803-1.248.853a1.502 1.502 0 01-.561-.046 2.324 2.324 0 01-.65-.295 3.807 3.807 0 01-.782-.656c-1.386-1.479-2.419-4.322-2.428-6.94-.006-1.475.315-2.617.85-3.282.351-.454.801-.687 1.309-.67.12.004.243.022.37.055a2.3 2.3 0 01.642.289c.86.539 1.646 1.632 2.223 2.971.379.877.67 1.853.833 2.855.1.59.151 1.191.153 1.77zm19.768 20.965c-2.167-3.45-4.173-7.255-5.979-11.307-3.209 5.413-5.137 13.413-5.225 23.344l9.045 5.655c.043-6.696.808-12.64 2.159-17.692zm-5.201-12.538c3.667-5.394 8.764-7.727 14.575-6.193.92.243 1.856.582 2.808 1.021-5.105 2.325-9.204 7.886-11.69 15.994-2.062-3.305-3.973-6.947-5.693-10.822zm19.371 25.85l-.1-29.228c-5.493 1.87-9.894 7.456-12.468 15.926 3.799 5.732 8.061 10.343 12.568 13.302zm.007 2.2l.044 12.419-15.129-9.459c.044-6.324.759-11.949 2.021-16.745 3.952 5.938 8.383 10.715 13.064 13.785zm.095 26.805l-.044-12.424-15.129-9.459c.089 6.408.845 12.951 2.149 19.352 2.319-.596 4.811-.577 7.428.114 1.811.478 3.682 1.278 5.596 2.417zm.008 2.196l.1 29.228c-5.53-8.76-9.987-19.887-12.633-31.617 2.246-.592 4.661-.581 7.197.088 1.727.457 3.51 1.217 5.336 2.301zm-19.274 1.693c4.308 11.59 10.513 21.471 17.495 26.978-5.15-8.744-9.304-19.459-11.858-30.721-2.047.74-3.938 1.997-5.637 3.743zm-.795-2.214c-3.254-9.454-5.251-19.908-5.407-29.993l9.041 5.654c.093 6.777.903 13.707 2.293 20.47-2.149.757-4.141 2.061-5.927 3.869zm-6.195-24.29a90.917 90.917 0 01-.339-7.385c-.008-2.522.1-4.922.306-7.204a152.896 152.896 0 01-6.076-12.754 165.294 165.294 0 01-2.608-6.55c-.395.13-.827.135-1.446-.034l.142 40.647a8.958 8.958 0 011.45 1.775 36.142 36.142 0 012.572-3.312c1.874-2.13 3.88-3.858 5.999-5.183zm29.915-55.555a8.513 8.513 0 01-.114 1.452c-.144.816-.416 1.452-.779 1.887-.434.517-.998.725-1.632.558a2.355 2.355 0 01-.645-.289c-.896-.56-1.71-1.719-2.29-3.122a12.33 12.33 0 01-.795-2.874 11.306 11.306 0 01-.127-1.6c-.008-2.707 1.077-4.28 2.528-3.897.208.055.425.15.646.29 1.759 1.1 3.196 4.503 3.208 7.595zm28.702 66.741a33.468 33.468 0 002.525-3.253c-.743-1.933-1.198-4.146-1.206-6.257-.002-1.085.114-2.043.324-2.865l-29.848-48.757c-.676 1.018-1.621 1.463-2.701 1.178a3.516 3.516 0 01-.957-.428c-1.477-.924-2.8-2.937-3.681-5.339l-29.638 11.567c.221 1.09.341 2.195.346 3.281.008 2.205-.471 3.9-1.262 4.894a160.21 160.21 0 002.471 6.198 148.068 148.068 0 005.291 11.215c.853-6.335 2.555-11.584 4.911-15.507.253-.426.516-.831.784-1.226 3.823-5.575 9.12-7.982 15.159-6.387.961.253 1.94.608 2.935 1.067a23.953 23.953 0 012.489 1.351l.041.025.098.064.144.093c.772.496 1.54 1.042 2.296 1.635 7.243 5.709 13.686 15.932 18.179 27.944a105.476 105.476 0 015.897 24.267c1.902-1.249 3.711-2.832 5.403-4.76zm-11.303-16.423c3.273 9.475 5.276 19.955 5.433 30.06l-9.045-5.65c-.093-6.798-.903-13.748-2.302-20.531 2.149-.756 4.135-2.066 5.914-3.879zm-18.261-29.123c5.139 8.725 9.287 19.427 11.841 30.663 2.041-.741 3.929-2.007 5.625-3.753-4.305-11.562-10.5-21.411-17.466-26.91zm23.702 61.149c-.088 9.952-2.029 17.969-5.25 23.382-1.8-4.05-3.802-7.854-5.963-11.311 1.357-5.055 2.125-11.017 2.168-17.726l9.045 5.655zm-20.59 30.764c5.803 1.532 10.894-.788 14.558-6.159-1.714-3.873-3.621-7.51-5.676-10.818-2.486 8.088-6.579 13.635-11.681 15.96.949.437 1.883.775 2.799 1.017zm-4.684-2.814l-.1-29.228c4.5 2.97 8.763 7.597 12.555 13.331-2.574 8.457-6.971 14.029-12.455 15.897zm-.151-43.848l.044 12.424c4.678 3.081 9.106 7.87 13.05 13.813 1.272-4.802 1.987-10.438 2.035-16.778l-15.129-9.459zm-.007-1.962l-.041-12.423c1.891 1.119 3.741 1.906 5.531 2.379 2.634.696 5.143.711 7.477.1 1.31 6.415 2.069 12.975 2.161 19.404l-15.128-9.46zm-.152-43.847l.103 29.228c1.806 1.067 3.571 1.817 5.281 2.269 2.551.673 4.98.68 7.236.076-2.646-11.718-7.1-22.828-12.62-31.573zm38.325 45.491a2.384 2.384 0 01-.785-.321 4.044 4.044 0 01-.784-.661 5.576 5.576 0 01-.56-.706c-.484-.691-.904-1.554-1.22-2.488a12.046 12.046 0 01-.645-3.741 8.31 8.31 0 01.14-1.586c.16-.8.444-1.418.815-1.822.427-.466.969-.651 1.575-.491.207.055.421.15.641.287.299.188.585.437.858.744.518.578.986 1.35 1.362 2.218.609 1.395.986 3.058.99 4.638.008 2.618-1.008 4.179-2.387 3.929zm-3.174 46.261c-.395.689-.625 1.697-.619 2.949.001.823.104 1.664.291 2.482.224 1.002.572 1.964.998 2.794.535 1.04 1.2 1.871 1.921 2.324.217.136.432.23.638.285.074.019.147.034.218.043.514.071.98-.118 1.35-.522.602-.639.967-1.838.961-3.418-.009-2.61-1.039-5.453-2.425-6.94a4.056 4.056 0 00-.781-.656 2.413 2.413 0 00-.65-.29 1.706 1.706 0 00-.134-.03 1.346 1.346 0 00-.562.002c-.478.092-.893.432-1.206.977zm-2.476-10.484a152.764 152.764 0 00-6.244-13.06c.183-2.156.279-4.414.271-6.781a90.962 90.962 0 00-.339-7.386c2.193-1.342 4.267-3.107 6.199-5.303a34.888 34.888 0 002.629-3.395c.48.787 1.011 1.458 1.577 1.975l.142 40.651c-.673-.183-1.143-.165-1.573-.002a169.999 169.999 0 00-2.662-6.699zm-35.81 27.476a9.154 9.154 0 00-.036.849c.009 3.091 1.45 6.5 3.209 7.599.221.138.436.233.644.288 1.45.383 2.538-1.192 2.526-3.896a9.91 9.91 0 00-.052-1.014 12.396 12.396 0 00-.659-2.927c-.59-1.645-1.491-3.029-2.497-3.659a2.36 2.36 0 00-.646-.289c-.759-.2-1.417.139-1.871.896-.317.524-.537 1.255-.618 2.153zm-31.358-62.875a35.23 35.23 0 012.439-3.13c1.636-1.86 3.375-3.402 5.206-4.629a105.584 105.584 0 005.865 24.177c4.496 12.041 10.953 22.296 18.208 28.017a30.087 30.087 0 002.297 1.639l.238.147.238.148c.775.472 1.54.881 2.295 1.234a17.97 17.97 0 002.934 1.067c6.025 1.591 11.312-.8 15.131-6.35.272-.39.535-.798.787-1.221 2.419-4.006 4.155-9.403 4.992-15.938a148.116 148.116 0 015.436 11.491 161.724 161.724 0 012.557 6.432c-.731 1.009-1.172 2.658-1.167 4.768.006 1.321.186 2.685.503 3.991l-29.607 11.413c-.871-2.647-2.281-4.898-3.869-5.887a3.54 3.54 0 00-.962-.431c-1.199-.316-2.23.265-2.908 1.53l-29.662-49.011c.23-.834.352-1.834.349-2.96-.007-2.205-.5-4.509-1.3-6.497zm-4.255-2.403c-1.38-.247-2.399 1.314-2.39 3.931.006 1.476.339 3.025.878 4.366.36.897.812 1.692 1.321 2.312.318.388.658.696 1.01.919.22.137.434.232.641.286.585.155 1.11-.011 1.531-.441.38-.386.673-.997.84-1.783.104-.491.16-1.055.158-1.67a12.005 12.005 0 00-.734-3.996c-.335-.926-.768-1.761-1.261-2.426a5.442 5.442 0 00-.429-.518 3.951 3.951 0 00-.784-.66 2.276 2.276 0 00-.641-.289 2.527 2.527 0 00-.14-.031z" fill="url(#paint75_linear_278_2454)"/><path opacity=".2" d="M534.017 272.518L460.944 53.884l181.788 96.823-.001 179.715-108.714-57.904z" fill="url(#paint76_linear_278_2454)"/><path opacity=".2" d="M445.327 45.566l33.994 197.819-42.61-22.695-36.903-199.368 45.519 24.244z" fill="url(#paint77_linear_278_2454)"/><path opacity=".5" d="M349.838 275.545c10.259 0 18.575-2.034 18.575-4.544 0-2.509-8.316-4.544-18.575-4.544-10.258 0-18.574 2.035-18.574 4.544 0 2.51 8.316 4.544 18.574 4.544z" fill="url(#paint78_linear_278_2454)"/><path d="M353.401 271.001l-5.643-3.231.599-5.827 4.47-43.414-4.986-1.595-.14 4.439-1.277 40.936-.177 5.598-.05 1.602 7.204 1.492z" fill="url(#paint79_linear_278_2454)"/><path d="M346.424 262.308l1.933-.365 1.488-.28 3.844-44.703-5.988 4.412-1.277 40.936zm-.177 5.599l-.05 1.602 7.204 1.492-5.643-3.231-1.511.137z" fill="#1D1D1B"/><path d="M345.908 272.235l-5.643-3.231.598-5.828 4.471-43.414-4.986-1.595-.14 4.439-1.278 40.936-.176 5.598-.05 1.602 7.204 1.493z" fill="url(#paint80_linear_278_2454)"/><path d="M338.93 263.541l1.934-.365 1.488-.28 3.844-44.703-5.988 4.412-1.278 40.936zm-.176 5.599l-.05 1.602 7.204 1.492-5.643-3.23-1.511.136z" fill="#1D1D1B"/><path d="M359.622 201.933l-2.796 2.574-6.931-4.009 5.826-7.716 3.901 9.151z" fill="url(#paint81_linear_278_2454)"/><path d="M350.282 190.839l-4.373.726c-3.655.607-6.319 3.532-6.337 6.957l-1.436 26.247c4.806 2.191 10.6 1.238 14.288-2.352l4.336-4.222.105-21.921c.246-3.356-2.994-6.031-6.583-5.435z" fill="url(#paint82_linear_278_2454)"/><path d="M351.058 201.171l-4.514 13.966 10.216 3.059 4.964-13.482-10.666-3.543z" fill="url(#paint83_linear_278_2454)"/><path d="M347.531 189.07s.166 2.617.591 2.894c.424.277 2.629 2.45 1.501-1.881-1.127-4.33-2.092-1.013-2.092-1.013z" fill="url(#paint84_linear_278_2454)"/><path d="M349.96 190.874c1.524 0 2.759-1.139 2.759-2.545 0-1.405-1.235-2.545-2.759-2.545-1.523 0-2.759 1.14-2.759 2.545 0 1.406 1.236 2.545 2.759 2.545z" fill="url(#paint85_linear_278_2454)"/><path d="M349.95 212.774l.638 1.502 2.122-4.358-11.505-.177 2.555-7.303-2.471-8.35c-2.462 2.569-4.341 5.538-5.13 7.791-6.688 19.097 5.962 12.759 11.025 10.012 1.02-.554 2.333-.134 2.766.883z" fill="url(#paint86_linear_278_2454)"/><path d="M335.911 201.092l6.707 4.461 1.981-5.406c.106-.426.254-.841.388-1.259.607-1.897-1.477-5.186-3.699-4.8-2.461 2.569-4.208 4.897-5.377 7.004z" fill="url(#paint87_linear_278_2454)"/><path d="M355.303 183.356c0 2.108-.988 4.1-2.616 5.357.027-.234.032-.371.02-.598l-1.982.038s-.337.698-.764.657c-.431-.041-.503.689-.503.689s-.649-1.75-.919-.465a1.12 1.12 0 00.342 1.063s-.331.425-1.001.425c-4.101 0-7.422-3.387-7.422-7.166 0-3.784 3.321-6.848 7.422-6.848 4.096 0 7.423 3.064 7.423 6.848z" fill="#1D1D1B"/><path opacity=".4" d="M465.195 338.187c-5.435-2.896-14.33-2.896-19.766 0-4.639 2.471-5.305 6.28-2.028 9.145l-6.956 3.704-144.843-76.711c3.181-2.856 2.489-6.62-2.109-9.07-5.435-2.896-14.33-2.896-19.767 0-5.436 2.896-5.436 7.634 0 10.53 3.962 2.11 9.757 2.675 14.714 1.709l86.009 45.551-171.363 91.235-86.324-46.256c2.224-2.726 1.265-6.027-2.903-8.248-5.434-2.895-14.33-2.895-19.766 0-5.437 2.896-5.437 7.635 0 10.53 4.413 2.35 11.104 2.793 16.374 1.328l92.608 49.624 177.939-94.736 59.441 31.48 14.176-7.549c4.925.926 10.643.352 14.565-1.737 5.434-2.895 5.434-7.634-.001-10.529z" fill="#4169E1"/><path opacity=".4" d="M139.345 288.121l82.397-43.889-.001-65.83-82.396 43.886v65.833z" fill="url(#paint88_linear_278_2454)"/><path opacity=".4" d="M221.742 167.43l-.001 10.972-82.396 43.886v-10.971l82.397-43.887z" fill="url(#paint89_linear_278_2454)"/><path d="M147.992 265.993c.07 0 .141-.016.206-.051l9.963-5.306a.365.365 0 00.151-.52.432.432 0 00-.564-.139l-9.963 5.306a.366.366 0 00-.151.52c.077.121.216.19.358.19z" fill="url(#paint90_linear_278_2454)" opacity=".4"/><path d="M147.992 268.275c.07 0 .141-.016.206-.051l9.963-5.306c.197-.105.265-.337.151-.519a.433.433 0 00-.564-.14l-9.963 5.306a.366.366 0 00-.151.52c.077.122.216.19.358.19z" fill="url(#paint91_linear_278_2454)" opacity=".4"/><path d="M147.992 270.557c.07 0 .141-.017.206-.051l9.963-5.306c.197-.105.265-.337.151-.519a.432.432 0 00-.564-.14l-9.963 5.306a.366.366 0 00-.151.52c.077.122.216.19.358.19z" fill="url(#paint92_linear_278_2454)" opacity=".4"/><path d="M147.992 272.84c.07 0 .141-.017.206-.051l9.963-5.306a.365.365 0 00.151-.52.432.432 0 00-.564-.139l-9.963 5.306a.365.365 0 00-.151.519.423.423 0 00.358.191z" fill="url(#paint93_linear_278_2454)" opacity=".4"/><path d="M151.567 273.195c.069 0 .14-.017.205-.051l6.388-3.379a.365.365 0 00.151-.52.431.431 0 00-.563-.139l-6.388 3.379c-.198.105-.265.337-.151.519a.422.422 0 00.358.191z" fill="url(#paint94_linear_278_2454)" opacity=".4"/><path opacity=".4" d="M158.367 254.372c0-.432-.332-.609-.738-.393l-6.765 3.604c-.406.216-.738.747-.738 1.179v2.816c0 .433.332.61.738.393l6.764-3.602c.406-.217.739-.748.739-1.18v-2.817z" fill="url(#paint95_linear_278_2454)"/><path d="M186.791 248.821c.985 0 2.065-.197 3.258-.647 6.013-2.269 7.729-10.636 9.389-18.727 1.34-6.536 2.726-13.295 6.33-14.641.984-.368 1.816-.314 2.62.168 4.545 2.723 6.052 17.16 6.25 22.493.019.515.485.918 1.044.901.558-.018.995-.449.976-.964-.076-2.062-.925-20.253-7.169-23.994-1.349-.808-2.898-.923-4.479-.332-4.626 1.728-6.05 8.671-7.558 16.023-1.56 7.601-3.172 15.462-8.167 17.348-4.439 1.675-6.626-1.12-9.158-4.356-2.538-3.243-5.697-7.278-11.602-4.028-1.35.744-2.527.973-3.598.703-2.412-.609-4.246-3.719-6.021-6.725-1.94-3.289-3.773-6.395-6.658-7.086-1.382-.331-2.852-.049-4.371.838-.471.276-.611.852-.313 1.287.299.435.923.564 1.395.289 1.041-.608 1.951-.808 2.781-.609 2.037.488 3.742 3.377 5.391 6.172 1.976 3.35 4.02 6.814 7.262 7.633 1.607.405 3.346.103 5.167-.9 4.115-2.264 5.982-.245 8.927 3.519 2.009 2.566 4.412 5.635 8.304 5.635z" fill="#D882B6" opacity=".7"/><path opacity=".4" d="M214.172 209.726c0-4.87-3.741-6.864-8.314-4.429-4.572 2.435-8.313 8.412-8.313 13.283 0 4.871 3.741 6.865 8.313 4.43 4.573-2.435 8.314-8.413 8.314-13.284z" fill="#D882B6"/><path opacity=".6" d="M210.51 211.676c0-2.725-2.093-3.84-4.652-2.478-2.558 1.362-4.651 4.707-4.651 7.433 0 2.725 2.093 3.841 4.651 2.478 2.559-1.363 4.652-4.707 4.652-7.433z" fill="#D882B6"/><path d="M208.13 212.944c0-1.331-1.022-1.876-2.271-1.21-1.25.665-2.272 2.298-2.272 3.629 0 1.332 1.022 1.876 2.272 1.211 1.249-.666 2.271-2.299 2.271-3.63z" fill="url(#paint96_linear_278_2454)"/><path d="M238.547 244.305l-14.667-8.574-10.832-16.965-5.365-4.375.156 1.822c.175 2.055 2.206 3.539 4.415 3.227l.277-.039 7.916 17.209 15.583 10.682 2.517-2.987z" fill="url(#paint97_linear_278_2454)"/><path opacity=".5" d="M233.038 327.859c11.392 0 20.627-2.259 20.627-5.046 0-2.787-9.235-5.046-20.627-5.046s-20.627 2.259-20.627 5.046c0 2.787 9.235 5.046 20.627 5.046z" fill="url(#paint98_linear_278_2454)"/><path d="M228.29 278.931l.532 43.882h-4.686l6.051 2.168 1.997-52.411-3.894 6.361z" fill="url(#paint99_linear_278_2454)"/><path d="M232.572 277.694l.31 20.286 7.246 22.032-3.138 4.74 4.76-3.483-6.206-24.086 1.886-16.827-4.858-2.662z" fill="url(#paint100_linear_278_2454)"/><path d="M220.924 277.694l-1.023 3.789c-.28 1.034-.031 2.13.675 2.975l1.382-.421.575-2.085-1.609-4.258z" fill="url(#paint101_linear_278_2454)"/><path d="M229.387 237.752l-2.428 6.125c.446 2.2.559 15.67-.066 17.833l-2.576 8.903s1.122 15.43 3.099 15.451l.148.002c10.608.073 18.046-9.83 14.197-18.949-.863-2.046-1.849-3.829-2.964-5.093-3.507-3.973-1.526-9.279.406-12.645 2.379-4.146.166-9.403-4.739-10.641a10.369 10.369 0 00-.592-.131l-4.485-.855z" fill="url(#paint102_linear_278_2454)"/><path d="M223.647 245.811l2.092 14.088-5.79 21.445 8.251-19.919.027-16.784-1.268-.764c-1.546-.932-3.563.245-3.312 1.934z" fill="url(#paint103_linear_278_2454)"/><path d="M223.835 247.08l4.382 4.167.011-6.606 1.159-6.889-3.554 2.083c-1.723 1.011-2.65 2.855-2.373 4.721l.375 2.524z" fill="url(#paint104_linear_278_2454)"/><path d="M230.072 236.313c1.638 0 2.966-1.225 2.966-2.736 0-1.511-1.328-2.736-2.966-2.736-1.638 0-2.966 1.225-2.966 2.736 0 1.511 1.328 2.736 2.966 2.736z" fill="url(#paint105_linear_278_2454)"/><path d="M227.486 231.711c1.269 1.145 2.069 2.693 1.855 4.318-.107.806-.393 1.645-.995 2.391-1.983 2.461-3.182 6.677-.207 7.384 2.974.706 4.628-1.809 6.365.079 1.737 1.889 6.198-.887 3.378-5.487-2.82-4.6-3.206-11.714-8.291-10.615-2.795.605-2.73 1.367-2.105 1.93zm-3.35 91.102h4.686l1.414.89-.049 1.278-6.051-2.168zm17.316-2.698l-1.325-.103-3.138 4.74 4.76-3.483-.297-1.154z" fill="#1D1D1B"/><path d="M.681 300.797L61.01 332.93v32.131L.68 332.93l.001-32.133z" fill="url(#paint106_linear_278_2454)"/><path d="M121.338 300.797L61.01 332.93v32.131l60.329-32.131-.001-32.133z" fill="url(#paint107_linear_278_2454)"/><path d="M.681 300.798l60.329-32.133 60.328 32.133L61.01 332.93.68 300.798z" fill="url(#paint108_linear_278_2454)"/><path d="M21.544 300.798l39.466-21.021 39.466 21.021-39.466 21.02-39.466-21.02z" fill="url(#paint109_linear_278_2454)"/><path d="M29.543 305.058l31.467-16.76 31.467 16.76-31.467 16.76-31.467-16.76z" fill="url(#paint110_linear_278_2454)"/><path d="M8.86 268.665l52.15 27.777v27.774L8.858 296.441l.001-27.776zm104.301 0L61.01 296.442v27.774l52.151-27.775v-27.776z" fill="#4169E1"/><path d="M.681 268.665l60.328 32.133v16.582L.68 285.249l.001-16.584z" fill="url(#paint111_linear_278_2454)"/><path d="M121.338 268.665L61.01 300.798v16.582l60.329-32.131-.001-16.584z" fill="url(#paint112_linear_278_2454)"/><path d="M.681 268.665l60.329-32.132 60.328 32.132-60.328 32.133L.68 268.665z" fill="url(#paint113_linear_278_2454)"/><path d="M21.544 268.665l39.466-21.02 39.466 21.02-39.466 21.021-39.466-21.021z" fill="url(#paint114_linear_278_2454)"/><path d="M29.543 272.926l31.467-16.761 31.467 16.761-31.467 16.76-31.467-16.76z" fill="url(#paint115_linear_278_2454)"/><path d="M8.86 236.533l52.15 27.777v27.773L8.858 264.308l.001-27.775zm104.301 0L61.01 264.31v27.773l52.151-27.775v-27.775z" fill="#4169E1"/><path d="M.681 236.533l60.328 32.132v16.582L.68 253.117l.001-16.584z" fill="url(#paint116_linear_278_2454)"/><path d="M121.338 236.533L61.01 268.665v16.582l60.329-32.13-.001-16.584z" fill="url(#paint117_linear_278_2454)"/><path d="M.681 236.533L61.01 204.4l60.328 32.133-60.328 32.132L.68 236.533z" fill="url(#paint118_linear_278_2454)"/><path d="M21.544 236.533l39.466-21.021 39.466 21.021-39.466 21.02-39.466-21.02z" fill="url(#paint119_linear_278_2454)"/><path d="M29.543 240.793l31.467-16.76 31.467 16.76-31.467 16.76-31.467-16.76z" fill="url(#paint120_linear_278_2454)"/><path d="M61.01 215.512v8.521l-31.467 16.76-8-4.26 39.467-21.021z" fill="url(#paint121_linear_278_2454)"/><path d="M8.86 204.4l52.15 27.777v27.774L8.858 232.175 8.86 204.4zm104.301 0L61.01 232.177v27.774l52.151-27.776V204.4z" fill="#4169E1"/><path d="M.681 188.336l60.328 32.132v32.129L.68 220.466l.001-32.13z" fill="url(#paint122_linear_278_2454)"/><path d="M121.338 188.336L61.01 220.468v32.129l60.329-32.131-.001-32.13z" fill="url(#paint123_linear_278_2454)"/><path d="M.681 188.336l60.329-32.133 60.328 32.133-60.328 32.132L.68 188.336z" fill="url(#paint124_linear_278_2454)"/><path d="M21.544 188.336l39.466-21.021 39.466 21.021-39.466 21.02-39.466-21.02z" fill="url(#paint125_linear_278_2454)"/><path d="M29.543 192.596l31.467-16.76 31.467 16.76-31.467 16.76-31.467-16.76z" fill="#4169E1"/><path d="M61.01 167.315v8.521l-31.467 16.76-8-4.26 39.467-21.021z" fill="url(#paint126_linear_278_2454)"/><path d="M107.032 254.541l5.727-3.049-1.402-.752-4.325 2.303v1.498z" fill="url(#paint127_linear_278_2454)"/><path d="M112.759 247.645v3.847l-1.403-.752v-2.304l1.403-.791z" fill="url(#paint128_linear_278_2454)"/><path d="M107.032 253.043v-2.303l4.325-2.304v2.304l-4.325 2.303z" fill="url(#paint129_linear_278_2454)"/><path d="M98.266 258.977l5.727-3.05-1.402-.752-4.325 2.304v1.498z" fill="url(#paint130_linear_278_2454)"/><path d="M103.993 252.08v3.847l-1.402-.752v-2.303l1.402-.792z" fill="url(#paint131_linear_278_2454)"/><path d="M98.266 257.479v-2.304l4.325-2.303v2.303l-4.325 2.304z" fill="url(#paint132_linear_278_2454)"/><path d="M78.356 302.46l5.726-3.049-1.402-.752-4.324 2.303v1.498z" fill="url(#paint133_linear_278_2454)"/><path d="M84.082 295.564v3.847l-1.402-.752v-2.304l1.402-.791z" fill="url(#paint134_linear_278_2454)"/><path d="M78.356 300.963v-2.304l4.324-2.304v2.304l-4.324 2.304z" fill="url(#paint135_linear_278_2454)"/><path d="M69.589 306.897l5.727-3.05-1.403-.752-4.324 2.303v1.499z" fill="url(#paint136_linear_278_2454)"/><path d="M75.316 300v3.847l-1.403-.752v-2.304l1.403-.791z" fill="url(#paint137_linear_278_2454)"/><path d="M69.589 305.398v-2.303l4.324-2.304v2.304l-4.324 2.303z" fill="url(#paint138_linear_278_2454)"/><path d="M14.987 255.515l-5.727-3.05 1.402-.752 4.325 2.303v1.499z" fill="url(#paint139_linear_278_2454)"/><path d="M9.26 248.618v3.847l1.402-.752v-2.304l-1.402-.791z" fill="url(#paint140_linear_278_2454)"/><path d="M14.987 254.016v-2.303l-4.325-2.304v2.304l4.325 2.303z" fill="url(#paint141_linear_278_2454)"/><path d="M23.753 259.951l-5.726-3.05 1.402-.752 4.325 2.304v1.498z" fill="url(#paint142_linear_278_2454)"/><path d="M18.027 253.054v3.847l1.402-.752v-2.304l-1.402-.791z" fill="url(#paint143_linear_278_2454)"/><path d="M23.753 258.453v-2.304l-4.324-2.304v2.304l4.324 2.304z" fill="url(#paint144_linear_278_2454)"/><path d="M43.664 303.434l-5.727-3.05 1.403-.751 4.324 2.303v1.498z" fill="url(#paint145_linear_278_2454)"/><path d="M37.937 296.537v3.848l1.403-.752v-2.304l-1.403-.792z" fill="url(#paint146_linear_278_2454)"/><path d="M43.664 301.936v-2.303l-4.324-2.304v2.304l4.324 2.303z" fill="url(#paint147_linear_278_2454)"/><path d="M52.43 307.87l-5.726-3.05 1.402-.752 4.325 2.304v1.498z" fill="url(#paint148_linear_278_2454)"/><path d="M46.704 300.973v3.847l1.402-.752v-2.304l-1.402-.791z" fill="url(#paint149_linear_278_2454)"/><path d="M52.43 306.372v-2.304l-4.324-2.304v2.304l4.325 2.304z" fill="url(#paint150_linear_278_2454)"/><path opacity=".5" d="M43.16 392.887c7.495 0 13.57-3.142 13.57-7.017 0-3.875-6.075-7.017-13.57-7.017-7.494 0-13.57 3.142-13.57 7.017 0 3.875 6.076 7.017 13.57 7.017z" fill="url(#paint151_linear_278_2454)"/><path d="M25.363 347.775l.515.836c3.203 5.209 4.289 11.301 3.062 17.182l-2.31 11.071c-.801 3.841 1.13 7.727 4.808 9.672l.036.019c3.066 1.622 6.837 1.617 9.898-.013 3.662-1.951 5.582-5.828 4.783-9.659l-2.297-11.01c-1.237-5.93-.123-12.072 3.14-17.308l.493-.791H25.363v.001z" fill="url(#paint152_linear_278_2454)"/><path d="M47.49 347.775c0 .962-1.697 1.816-4.332 2.361-1.865.385-4.198.614-6.731.614-2.533 0-4.869-.229-6.734-.614-2.632-.545-4.33-1.399-4.33-2.361 0-1.644 4.952-2.977 11.064-2.977 6.11 0 11.063 1.333 11.063 2.977z" fill="url(#paint153_linear_278_2454)"/><path d="M43.16 350.108c0 .009 0 .019-.002.028-1.865.385-4.198.614-6.731.614-2.533 0-4.87-.229-6.734-.614-.003-.009-.003-.019-.003-.028 0-1.002 3.016-1.811 6.737-1.811 3.718 0 6.733.809 6.733 1.811z" fill="url(#paint154_linear_278_2454)"/><path d="M38.908 349.813s6.17-74.186-4.686-75.767c-10.857-1.582 1.31 75.73 1.31 75.73l3.377.037z" fill="url(#paint155_linear_278_2454)"/><path d="M32.397 349.814s-20.707-55.808-10.354-58.582c10.353-2.774 14.983 58.582 14.983 58.582h-4.63z" fill="url(#paint156_linear_278_2454)"/><path d="M38.908 349.814s13.409-36.139 6.705-37.935c-6.704-1.796-9.702 37.935-9.702 37.935h2.997z" fill="url(#paint157_linear_278_2454)"/><path opacity=".5" d="M400.914 403.145c12.239 0 22.16-2.427 22.16-5.421s-9.921-5.421-22.16-5.421c-12.238 0-22.16 2.427-22.16 5.421s9.922 5.421 22.16 5.421z" fill="url(#paint158_linear_278_2454)"/><path d="M422.007 313.837l-9.78-1.665-3.171 13.581 9.426 2.447 3.525-14.363z" fill="#4169E1"/><path d="M391.253 314.022l-.605 11.346 3.894 13.427 1.348 1.347-3.301-14.113 1.359-12.391-2.695.384z" fill="url(#paint159_linear_278_2454)"/><path d="M392.876 340.361l1.742 27.5-1.742 30.46 5.454-1.23-4.049-1.223 3.668-28.654 1.024-26.853h-6.097z" fill="url(#paint160_linear_278_2454)"/><path d="M392.967 396.732l1.314-.864 4.049 1.223-5.454 1.23.091-1.589z" fill="#1D1D1B"/><path d="M396.81 343.102l3.905 27.5-1.742 30.46 5.453-1.229-4.048-1.224 3.667-28.653-1.326-26.854h-5.909z" fill="url(#paint161_linear_278_2454)"/><path d="M399.064 399.473l1.314-.864 4.049 1.224-5.454 1.229.091-1.589z" fill="#1D1D1B"/><path d="M389.14 343.753c.719 3.24 2.122 2.929 1.864 6.228l-.025 3.187v.009l2.455 1.057a4.222 4.222 0 003.6-.133l1.612-.861c4.684-2.502 8.024 1.366 7.652-3.615l-2.066-28.191c1.672-1.597 2.925-4.378 1.33-6.047l-3.567-4.376c-1.52-1.866-4.073-2.75-6.548-2.268l-1.979.385s-3.09 1.352-2.04 7.736c.838 5.094 4.793 6.748 1.99 12.132-2.634 5.056-4.932 11.818-4.278 14.757z" fill="url(#paint162_linear_278_2454)"/><path d="M397.728 307.099c1.759 0 3.186-1.316 3.186-2.939s-1.427-2.939-3.186-2.939c-1.76 0-3.186 1.316-3.186 2.939s1.426 2.939 3.186 2.939z" fill="url(#paint163_linear_278_2454)"/><path d="M399.861 299.959c.909.26 1.322 1.233.868 2.005-.758 1.288-2.206 3.94-2.234 5.458-.02 1.061.019 2.184.213 2.864a.932.932 0 01-.563 1.129c-2.426.999-7.852 2.896-7.854-.114-.001-1.512 1.443-5.372 1.761-7.142.581-3.24 2.35-4.108 5.725-4.364.831-.062 1.535.007 2.084.164z" fill="#1D1D1B"/><path d="M398.025 317.347l4.892 11.649 17.115-4.757 1.975-1.868-1.565-2.103-.675 2.129-1.975-.366 1.47 1.512-15.11 2.998-3.064-11.621-3.063 2.427z" fill="url(#paint164_linear_278_2454)"/><path d="M400.74 312.016c.79.674 1.583 1.876 1.579 3.978l-4.77 2.464s-3.889-4.291.24-6.652c.928-.53 2.15-.474 2.951.21z" fill="url(#paint165_linear_278_2454)"/><path opacity=".5" d="M293.552 425.761c11.168 0 20.222-2.215 20.222-4.947s-9.054-4.947-20.222-4.947c-11.168 0-20.221 2.215-20.221 4.947s9.053 4.947 20.221 4.947z" fill="url(#paint166_linear_278_2454)"/><path d="M289.674 420.814l6.143-3.518-.651-6.344-4.867-47.262 5.428-1.737.152 4.832 1.391 44.566.192 6.094.055 1.744-7.843 1.625z" fill="url(#paint167_linear_278_2454)"/><path d="M297.27 411.35l-2.105-.398-1.62-.305-4.185-48.666 6.519 4.804 1.391 44.565zm.192 6.095l.055 1.744-7.843 1.625 6.143-3.518 1.645.149z" fill="#1D1D1B"/><path d="M297.831 422.157l6.142-3.518-.651-6.344-4.866-47.262 5.427-1.737.153 4.832 1.391 44.566.191 6.093.055 1.745-7.842 1.625z" fill="url(#paint168_linear_278_2454)"/><path d="M305.427 412.693l-2.105-.398-1.62-.305-4.185-48.666 6.519 4.804 1.391 44.565zm.191 6.094l.055 1.745-7.842 1.625 6.142-3.518 1.645.148z" fill="#1D1D1B"/><path d="M287.148 335.66l-8.169 7.92-9.757-12.658-4.025-.625-2.771 1.853 4.749 1.553s6.569 33.484 24.165 8.49l-4.192-6.533z" fill="url(#paint169_linear_278_2454)"/><path d="M282.901 339.778l3.045 8.647 7.544-4.365-6.341-8.4-4.248 4.118z" fill="url(#paint170_linear_278_2454)"/><path d="M293.069 333.545l4.762.791c3.978.66 6.878 3.845 6.898 7.574l1.563 28.572c-5.232 2.386-11.539 1.348-15.553-2.56l-4.721-4.595-.115-23.865c-.268-3.654 3.259-6.566 7.166-5.917z" fill="url(#paint171_linear_278_2454)"/><path d="M292.224 344.793l4.914 15.204-11.121 3.33-5.404-14.677 11.611-3.857z" fill="#4169E1"/><path d="M296.065 331.62s-.182 2.849-.644 3.15c-.462.302-2.862 2.667-1.635-2.047 1.228-4.715 2.279-1.103 2.279-1.103z" fill="url(#paint172_linear_278_2454)"/><path d="M293.419 333.583c1.659 0 3.004-1.24 3.004-2.77s-1.345-2.771-3.004-2.771c-1.658 0-3.003 1.241-3.003 2.771 0 1.53 1.345 2.77 3.003 2.77z" fill="url(#paint173_linear_278_2454)"/><path d="M290.664 329.712s-11.156-5.142-9.251-9.633c1.905-4.49 15.726 9.947 15.726 9.947l-1.122 2.177s.158-1.819-.656-1.399c-.815.42-.611 1.824-.611 1.824l-.539-1.819-3.547-1.097z" fill="#1D1D1B"/><path d="M293.431 357.425l-.695 1.635-2.31-4.745 12.525-.193-2.782-7.951 2.691-9.089c2.679 2.797 4.726 6.029 5.584 8.481 7.281 20.79-6.491 13.89-12.002 10.9-1.11-.602-2.541-.145-3.011.962z" fill="url(#paint174_linear_278_2454)"/><path d="M308.715 344.706l-7.302 4.858-2.156-5.886c-.115-.463-.277-.915-.423-1.371-.66-2.064 1.608-5.645 4.027-5.225 2.679 2.797 4.581 5.331 5.854 7.624z" fill="url(#paint175_linear_278_2454)"/><path opacity=".4" d="M272.166 357.902l-32.449-17.284v-25.925l32.449 17.283v25.926z" fill="url(#paint176_linear_278_2454)"/><g opacity=".4"><path d="M243.112 324.024v16.348l4.414 2.352v-16.456l-4.414-2.244z" fill="url(#paint177_linear_278_2454)"/><path d="M249.733 333.586v10.441l4.413 2.223v-10.313l-4.413-2.351z" fill="url(#paint178_linear_278_2454)"/><path d="M256.248 333.215v14.233l4.413 2.222v-14.104l-4.413-2.351z" fill="url(#paint179_linear_278_2454)"/><path d="M263.002 332.142v18.783l4.385 2.377.029-18.809-4.414-2.351z" fill="url(#paint180_linear_278_2454)"/></g><path opacity=".4" d="M239.717 310.372v4.321l32.449 17.283v-4.321l-32.449-17.283z" fill="url(#paint181_linear_278_2454)"/><defs><linearGradient id="paint0_linear_278_2454" x1="328.727" y1="245.986" x2="328.647" y2="242.751" gradientUnits="userSpaceOnUse"><stop stop-color="#F6F6F6"/><stop offset="1" stop-color="#CCD5ED"/></linearGradient><linearGradient id="paint1_linear_278_2454" x1="308.557" y1="188.282" x2="274.916" y2="213.219" gradientUnits="userSpaceOnUse"><stop stop-color="#F6F6F6"/><stop offset="1" stop-color="#CCD5ED"/></linearGradient><linearGradient id="paint2_linear_278_2454" x1="306.865" y1="200.811" x2="328.991" y2="200.811" gradientUnits="userSpaceOnUse"><stop stop-color="#F6F6F6"/><stop offset="1" stop-color="#CCD5ED"/></linearGradient><linearGradient id="paint3_linear_278_2454" x1="292.372" y1="194.32" x2="292.353" y2="203.76" gradientUnits="userSpaceOnUse"><stop stop-color="#4790CD"/><stop offset="1" stop-color="#EA6FAA"/></linearGradient><linearGradient id="paint4_linear_278_2454" x1="316.623" y1="103.105" x2="300.549" y2="106.022" gradientUnits="userSpaceOnUse"><stop stop-color="#4790CD"/><stop offset="1" stop-color="#EA6FAA"/></linearGradient><linearGradient id="paint5_linear_278_2454" x1="301.283" y1="156.165" x2="319.971" y2="196.997" gradientUnits="userSpaceOnUse"><stop stop-color="#4790CD"/><stop offset="1" stop-color="#EA6FAA"/></linearGradient><linearGradient id="paint6_linear_278_2454" x1="315.509" y1="191.357" x2="332.962" y2="195.879" gradientUnits="userSpaceOnUse"><stop stop-color="#4790CD"/><stop offset="1" stop-color="#EA6FAA"/></linearGradient><linearGradient id="paint7_linear_278_2454" x1="572.537" y1="413.363" x2="572.862" y2="402.778" gradientUnits="userSpaceOnUse"><stop stop-color="#F6F6F6"/><stop offset="1" stop-color="#CCD5ED"/></linearGradient><linearGradient id="paint8_linear_278_2454" x1="529.272" y1="324.332" x2="529.272" y2="340.644" gradientUnits="userSpaceOnUse"><stop stop-color="#F6F6F6"/><stop offset="1" stop-color="#CCD5ED"/></linearGradient><linearGradient id="paint9_linear_278_2454" x1="558.298" y1="343.523" x2="550.464" y2="365.351" gradientUnits="userSpaceOnUse"><stop stop-color="#F6F6F6"/><stop offset="1" stop-color="#CCD5ED"/></linearGradient><linearGradient id="paint10_linear_278_2454" x1="598.506" y1="370.997" x2="599.356" y2="389.131" gradientUnits="userSpaceOnUse"><stop stop-color="#F6F6F6"/><stop offset="1" stop-color="#CCD5ED"/></linearGradient><linearGradient id="paint11_linear_278_2454" x1="563.055" y1="357.231" x2="579.656" y2="389.835" gradientUnits="userSpaceOnUse"><stop stop-color="#F6F6F6"/><stop offset="1" stop-color="#CCD5ED"/></linearGradient><linearGradient id="paint12_linear_278_2454" x1="501.577" y1="319.223" x2="491.688" y2="407.34" gradientUnits="userSpaceOnUse"><stop stop-color="#4790CD"/><stop offset="1" stop-color="#EA6FAA"/></linearGradient><linearGradient id="paint13_linear_278_2454" x1="592.6" y1="321.383" x2="588.79" y2="328.096" gradientUnits="userSpaceOnUse"><stop stop-color="#4790CD"/><stop offset="1" stop-color="#EA6FAA"/></linearGradient><linearGradient id="paint14_linear_278_2454" x1="556.13" y1="292.049" x2="527.359" y2="365.671" gradientUnits="userSpaceOnUse"><stop stop-color="#4790CD"/><stop offset="1" stop-color="#EA6FAA"/></linearGradient><linearGradient id="paint15_linear_278_2454" x1="410.48" y1="328.64" x2="410.805" y2="318.054" gradientUnits="userSpaceOnUse"><stop stop-color="#F6F6F6"/><stop offset="1" stop-color="#CCD5ED"/></linearGradient><linearGradient id="paint16_linear_278_2454" x1="367.215" y1="239.608" x2="367.215" y2="255.92" gradientUnits="userSpaceOnUse"><stop stop-color="#F6F6F6"/><stop offset="1" stop-color="#CCD5ED"/></linearGradient><linearGradient id="paint17_linear_278_2454" x1="396.242" y1="258.799" x2="388.409" y2="280.627" gradientUnits="userSpaceOnUse"><stop stop-color="#F6F6F6"/><stop offset="1" stop-color="#CCD5ED"/></linearGradient><linearGradient id="paint18_linear_278_2454" x1="436.449" y1="286.273" x2="437.3" y2="304.407" gradientUnits="userSpaceOnUse"><stop stop-color="#F6F6F6"/><stop offset="1" stop-color="#CCD5ED"/></linearGradient><linearGradient id="paint19_linear_278_2454" x1="400.999" y1="272.507" x2="417.6" y2="305.111" gradientUnits="userSpaceOnUse"><stop stop-color="#F6F6F6"/><stop offset="1" stop-color="#CCD5ED"/></linearGradient><linearGradient id="paint20_linear_278_2454" x1="339.521" y1="234.499" x2="329.632" y2="322.616" gradientUnits="userSpaceOnUse"><stop stop-color="#4790CD"/><stop offset="1" stop-color="#EA6FAA"/></linearGradient><linearGradient id="paint21_linear_278_2454" x1="430.544" y1="236.659" x2="426.734" y2="243.372" gradientUnits="userSpaceOnUse"><stop stop-color="#4790CD"/><stop offset="1" stop-color="#EA6FAA"/></linearGradient><linearGradient id="paint22_linear_278_2454" x1="394.074" y1="207.325" x2="365.303" y2="280.947" gradientUnits="userSpaceOnUse"><stop stop-color="#4790CD"/><stop offset="1" stop-color="#EA6FAA"/></linearGradient><linearGradient id="paint23_linear_278_2454" x1="160.4" y1="240.716" x2="213.458" y2="286.806" gradientUnits="userSpaceOnUse"><stop stop-color="#F6F6F6"/><stop offset="1" stop-color="#CCD5ED"/></linearGradient><linearGradient id="paint24_linear_278_2454" x1="232.924" y1="254.174" x2="280.466" y2="268.941" gradientUnits="userSpaceOnUse"><stop stop-color="#F6F6F6"/><stop offset="1" stop-color="#CCD5ED"/></linearGradient><linearGradient id="paint25_linear_278_2454" x1="200.223" y1="205.644" x2="199.173" y2="247.595" gradientUnits="userSpaceOnUse"><stop stop-color="#F6F6F6"/><stop offset="1" stop-color="#CCD5ED"/></linearGradient><linearGradient id="paint26_linear_278_2454" x1="256.947" y1="238.627" x2="267.196" y2="194.832" gradientUnits="userSpaceOnUse"><stop stop-color="#F6F6F6"/><stop offset="1" stop-color="#CCD5ED"/></linearGradient><linearGradient id="paint27_linear_278_2454" x1="239.502" y1="195.55" x2="230.082" y2="217.334" gradientUnits="userSpaceOnUse"><stop stop-color="#F6F6F6"/><stop offset="1" stop-color="#CCD5ED"/></linearGradient><linearGradient id="paint28_linear_278_2454" x1="160.522" y1="195.028" x2="193.456" y2="244.813" gradientUnits="userSpaceOnUse"><stop stop-color="#F6F6F6"/><stop offset="1" stop-color="#CCD5ED"/></linearGradient><linearGradient id="paint29_linear_278_2454" x1="234.628" y1="207.277" x2="273.297" y2="228.178" gradientUnits="userSpaceOnUse"><stop stop-color="#F6F6F6"/><stop offset="1" stop-color="#CCD5ED"/></linearGradient><linearGradient id="paint30_linear_278_2454" x1="200.223" y1="173.512" x2="199.173" y2="215.462" gradientUnits="userSpaceOnUse"><stop stop-color="#F6F6F6"/><stop offset="1" stop-color="#CCD5ED"/></linearGradient><linearGradient id="paint31_linear_278_2454" x1="256.947" y1="206.494" x2="267.196" y2="162.7" gradientUnits="userSpaceOnUse"><stop stop-color="#F6F6F6"/><stop offset="1" stop-color="#CCD5ED"/></linearGradient><linearGradient id="paint32_linear_278_2454" x1="239.502" y1="163.418" x2="230.082" y2="185.202" gradientUnits="userSpaceOnUse"><stop stop-color="#F6F6F6"/><stop offset="1" stop-color="#CCD5ED"/></linearGradient><linearGradient id="paint33_linear_278_2454" x1="160.522" y1="162.895" x2="193.455" y2="212.681" gradientUnits="userSpaceOnUse"><stop stop-color="#F6F6F6"/><stop offset="1" stop-color="#CCD5ED"/></linearGradient><linearGradient id="paint34_linear_278_2454" x1="234.628" y1="175.144" x2="273.297" y2="196.045" gradientUnits="userSpaceOnUse"><stop stop-color="#F6F6F6"/><stop offset="1" stop-color="#CCD5ED"/></linearGradient><linearGradient id="paint35_linear_278_2454" x1="200.223" y1="141.379" x2="199.173" y2="183.33" gradientUnits="userSpaceOnUse"><stop stop-color="#F6F6F6"/><stop offset="1" stop-color="#CCD5ED"/></linearGradient><linearGradient id="paint36_linear_278_2454" x1="256.947" y1="174.362" x2="267.196" y2="130.567" gradientUnits="userSpaceOnUse"><stop stop-color="#F6F6F6"/><stop offset="1" stop-color="#CCD5ED"/></linearGradient><linearGradient id="paint37_linear_278_2454" x1="239.502" y1="131.285" x2="230.082" y2="153.069" gradientUnits="userSpaceOnUse"><stop stop-color="#F6F6F6"/><stop offset="1" stop-color="#CCD5ED"/></linearGradient><linearGradient id="paint38_linear_278_2454" x1="237.979" y1="135.163" x2="229.8" y2="123.625" gradientUnits="userSpaceOnUse"><stop stop-color="#F6F6F6"/><stop offset="1" stop-color="#CCD5ED"/></linearGradient><linearGradient id="paint39_linear_278_2454" x1="160.401" y1="128.252" x2="213.456" y2="174.343" gradientUnits="userSpaceOnUse"><stop stop-color="#F6F6F6"/><stop offset="1" stop-color="#CCD5ED"/></linearGradient><linearGradient id="paint40_linear_278_2454" x1="232.924" y1="141.71" x2="280.466" y2="156.477" gradientUnits="userSpaceOnUse"><stop stop-color="#F6F6F6"/><stop offset="1" stop-color="#CCD5ED"/></linearGradient><linearGradient id="paint41_linear_278_2454" x1="200.223" y1="93.182" x2="199.173" y2="135.133" gradientUnits="userSpaceOnUse"><stop stop-color="#F6F6F6"/><stop offset="1" stop-color="#CCD5ED"/></linearGradient><linearGradient id="paint42_linear_278_2454" x1="256.947" y1="126.165" x2="267.196" y2="82.37" gradientUnits="userSpaceOnUse"><stop stop-color="#F6F6F6"/><stop offset="1" stop-color="#CCD5ED"/></linearGradient><linearGradient id="paint43_linear_278_2454" x1="237.979" y1="86.966" x2="229.8" y2="75.428" gradientUnits="userSpaceOnUse"><stop stop-color="#F6F6F6"/><stop offset="1" stop-color="#CCD5ED"/></linearGradient><linearGradient id="paint44_linear_278_2454" x1="284.562" y1="155.203" x2="284.145" y2="160.994" gradientUnits="userSpaceOnUse"><stop stop-color="#4790CD"/><stop offset="1" stop-color="#DA62A5"/></linearGradient><linearGradient id="paint45_linear_278_2454" x1="290.252" y1="160.654" x2="293.068" y2="160.238" gradientUnits="userSpaceOnUse"><stop stop-color="#4790CD"/><stop offset="1" stop-color="#DA62A5"/></linearGradient><linearGradient id="paint46_linear_278_2454" x1="286.104" y1="151.726" x2="286.104" y2="155.074" gradientUnits="userSpaceOnUse"><stop stop-color="#4790CD"/><stop offset="1" stop-color="#DA62A5"/></linearGradient><linearGradient id="paint47_linear_278_2454" x1="275.796" y1="159.639" x2="275.379" y2="165.429" gradientUnits="userSpaceOnUse"><stop stop-color="#4790CD"/><stop offset="1" stop-color="#DA62A5"/></linearGradient><linearGradient id="paint48_linear_278_2454" x1="281.486" y1="165.09" x2="284.302" y2="164.674" gradientUnits="userSpaceOnUse"><stop stop-color="#4790CD"/><stop offset="1" stop-color="#DA62A5"/></linearGradient><linearGradient id="paint49_linear_278_2454" x1="277.338" y1="151.726" x2="277.338" y2="155.074" gradientUnits="userSpaceOnUse"><stop stop-color="#4790CD"/><stop offset="1" stop-color="#DA62A5"/></linearGradient><linearGradient id="paint50_linear_278_2454" x1="255.885" y1="203.122" x2="255.468" y2="208.913" gradientUnits="userSpaceOnUse"><stop stop-color="#4790CD"/><stop offset="1" stop-color="#DA62A5"/></linearGradient><linearGradient id="paint51_linear_278_2454" x1="261.574" y1="208.575" x2="264.39" y2="208.159" gradientUnits="userSpaceOnUse"><stop stop-color="#4790CD"/><stop offset="1" stop-color="#DA62A5"/></linearGradient><linearGradient id="paint52_linear_278_2454" x1="257.426" y1="199.645" x2="257.426" y2="202.993" gradientUnits="userSpaceOnUse"><stop stop-color="#4790CD"/><stop offset="1" stop-color="#DA62A5"/></linearGradient><linearGradient id="paint53_linear_278_2454" x1="247.119" y1="207.558" x2="246.702" y2="213.349" gradientUnits="userSpaceOnUse"><stop stop-color="#4790CD"/><stop offset="1" stop-color="#DA62A5"/></linearGradient><linearGradient id="paint54_linear_278_2454" x1="252.808" y1="213.009" x2="255.624" y2="212.593" gradientUnits="userSpaceOnUse"><stop stop-color="#4790CD"/><stop offset="1" stop-color="#DA62A5"/></linearGradient><linearGradient id="paint55_linear_278_2454" x1="248.66" y1="199.645" x2="248.66" y2="202.993" gradientUnits="userSpaceOnUse"><stop stop-color="#4790CD"/><stop offset="1" stop-color="#DA62A5"/></linearGradient><linearGradient id="paint56_linear_278_2454" x1="185.75" y1="156.801" x2="186.168" y2="162.591" gradientUnits="userSpaceOnUse"><stop stop-color="#4790CD"/><stop offset="1" stop-color="#DA62A5"/></linearGradient><linearGradient id="paint57_linear_278_2454" x1="189.728" y1="154.845" x2="186.912" y2="154.43" gradientUnits="userSpaceOnUse"><stop stop-color="#4790CD"/><stop offset="1" stop-color="#DA62A5"/></linearGradient><linearGradient id="paint58_linear_278_2454" x1="189.732" y1="152.699" x2="189.732" y2="156.048" gradientUnits="userSpaceOnUse"><stop stop-color="#4790CD"/><stop offset="1" stop-color="#DA62A5"/></linearGradient><linearGradient id="paint59_linear_278_2454" x1="194.516" y1="161.237" x2="194.933" y2="167.027" gradientUnits="userSpaceOnUse"><stop stop-color="#4790CD"/><stop offset="1" stop-color="#DA62A5"/></linearGradient><linearGradient id="paint60_linear_278_2454" x1="198.495" y1="159.282" x2="195.678" y2="158.866" gradientUnits="userSpaceOnUse"><stop stop-color="#4790CD"/><stop offset="1" stop-color="#DA62A5"/></linearGradient><linearGradient id="paint61_linear_278_2454" x1="198.499" y1="152.699" x2="198.499" y2="156.048" gradientUnits="userSpaceOnUse"><stop stop-color="#4790CD"/><stop offset="1" stop-color="#DA62A5"/></linearGradient><linearGradient id="paint62_linear_278_2454" x1="214.428" y1="204.72" x2="214.845" y2="210.511" gradientUnits="userSpaceOnUse"><stop stop-color="#4790CD"/><stop offset="1" stop-color="#DA62A5"/></linearGradient><linearGradient id="paint63_linear_278_2454" x1="218.406" y1="202.765" x2="215.59" y2="202.349" gradientUnits="userSpaceOnUse"><stop stop-color="#4790CD"/><stop offset="1" stop-color="#DA62A5"/></linearGradient><linearGradient id="paint64_linear_278_2454" x1="218.41" y1="200.619" x2="218.41" y2="203.967" gradientUnits="userSpaceOnUse"><stop stop-color="#4790CD"/><stop offset="1" stop-color="#DA62A5"/></linearGradient><linearGradient id="paint65_linear_278_2454" x1="223.194" y1="209.156" x2="223.611" y2="214.947" gradientUnits="userSpaceOnUse"><stop stop-color="#4790CD"/><stop offset="1" stop-color="#DA62A5"/></linearGradient><linearGradient id="paint66_linear_278_2454" x1="227.172" y1="207.202" x2="224.356" y2="206.786" gradientUnits="userSpaceOnUse"><stop stop-color="#4790CD"/><stop offset="1" stop-color="#DA62A5"/></linearGradient><linearGradient id="paint67_linear_278_2454" x1="227.177" y1="200.619" x2="227.177" y2="203.967" gradientUnits="userSpaceOnUse"><stop stop-color="#4790CD"/><stop offset="1" stop-color="#DA62A5"/></linearGradient><linearGradient id="paint68_linear_278_2454" x1="499.857" y1="344.675" x2="507.332" y2="320.4" gradientUnits="userSpaceOnUse"><stop stop-color="#F6F6F6"/><stop offset="1" stop-color="#CCD5ED"/></linearGradient><linearGradient id="paint69_linear_278_2454" x1="496.037" y1="348.996" x2="547.735" y2="314.048" gradientUnits="userSpaceOnUse"><stop stop-color="#F6F6F6"/><stop offset="1" stop-color="#CCD5ED"/></linearGradient><linearGradient id="paint70_linear_278_2454" x1="442.037" y1="343.816" x2="484.455" y2="343.816" gradientUnits="userSpaceOnUse"><stop stop-color="#F6F6F6"/><stop offset="1" stop-color="#CCD5ED"/></linearGradient><linearGradient id="paint71_linear_278_2454" x1="496.887" y1="289.321" x2="523.282" y2="236.961" gradientUnits="userSpaceOnUse"><stop stop-color="#F6F6F6"/><stop offset="1" stop-color="#CCD5ED"/></linearGradient><linearGradient id="paint72_linear_278_2454" x1="671.978" y1="-582.539" x2="610.441" y2="-582.295" gradientUnits="userSpaceOnUse"><stop stop-color="#F6F6F6"/><stop offset="1" stop-color="#CCD5ED"/></linearGradient><linearGradient id="paint73_linear_278_2454" x1="368.413" y1="150.707" x2="651" y2="150.707" gradientUnits="userSpaceOnUse"><stop stop-color="#F6F6F6"/><stop offset="1" stop-color="#CCD5ED"/></linearGradient><linearGradient id="paint74_linear_278_2454" x1="528.317" y1="268.215" x2="521.549" y2="266.956" gradientUnits="userSpaceOnUse"><stop stop-color="#F6F6F6"/><stop offset="1" stop-color="#CCD5ED"/></linearGradient><linearGradient id="paint75_linear_278_2454" x1="532.48" y1="-105.611" x2="287.61" y2="-26.143" gradientUnits="userSpaceOnUse"><stop stop-color="#F6F6F6"/><stop offset="1" stop-color="#CCD5ED"/></linearGradient><linearGradient id="paint76_linear_278_2454" x1="351.447" y1="-36.698" x2="568.846" y2="345.186" gradientUnits="userSpaceOnUse"><stop stop-color="#F6F6F6"/><stop offset="1" stop-color="#CCD5ED"/></linearGradient><linearGradient id="paint77_linear_278_2454" x1="323.127" y1="14.434" x2="526.164" y2="120.248" gradientUnits="userSpaceOnUse"><stop stop-color="#F6F6F6"/><stop offset="1" stop-color="#CCD5ED"/></linearGradient><linearGradient id="paint78_linear_278_2454" x1="309.594" y1="241.748" x2="309.594" y2="261.438" gradientUnits="userSpaceOnUse"><stop stop-color="#F6F6F6"/><stop offset="1" stop-color="#CCD5ED"/></linearGradient><linearGradient id="paint79_linear_278_2454" x1="351.664" y1="265.726" x2="342.577" y2="260.694" gradientUnits="userSpaceOnUse"><stop stop-color="#FAD6C7"/><stop offset="1" stop-color="#E4857F"/></linearGradient><linearGradient id="paint80_linear_278_2454" x1="344.17" y1="266.959" x2="335.083" y2="261.927" gradientUnits="userSpaceOnUse"><stop stop-color="#FAD6C7"/><stop offset="1" stop-color="#E4857F"/></linearGradient><linearGradient id="paint81_linear_278_2454" x1="337.688" y1="194.283" x2="338.99" y2="235.096" gradientUnits="userSpaceOnUse"><stop stop-color="#4790CD"/><stop offset="1" stop-color="#DA62A5"/></linearGradient><linearGradient id="paint82_linear_278_2454" x1="356.047" y1="220.462" x2="353.305" y2="189.712" gradientUnits="userSpaceOnUse"><stop stop-color="#F6F6F6"/><stop offset="1" stop-color="#CCD5ED"/></linearGradient><linearGradient id="paint83_linear_278_2454" x1="351.253" y1="190.099" x2="340.202" y2="209.592" gradientUnits="userSpaceOnUse"><stop stop-color="#4790CD"/><stop offset="1" stop-color="#DA62A5"/></linearGradient><linearGradient id="paint84_linear_278_2454" x1="349.259" y1="192.327" x2="349.304" y2="190.269" gradientUnits="userSpaceOnUse"><stop stop-color="#FAD6C7"/><stop offset="1" stop-color="#E4857F"/></linearGradient><linearGradient id="paint85_linear_278_2454" x1="351.714" y1="189.241" x2="351.472" y2="186.181" gradientUnits="userSpaceOnUse"><stop stop-color="#FAD6C7"/><stop offset="1" stop-color="#E4857F"/></linearGradient><linearGradient id="paint86_linear_278_2454" x1="311.199" y1="196.664" x2="313.281" y2="269.604" gradientUnits="userSpaceOnUse"><stop stop-color="#FAD6C7"/><stop offset="1" stop-color="#E4857F"/></linearGradient><linearGradient id="paint87_linear_278_2454" x1="324.443" y1="195.551" x2="325.82" y2="235.557" gradientUnits="userSpaceOnUse"><stop stop-color="#4790CD"/><stop offset="1" stop-color="#DA62A5"/></linearGradient><linearGradient id="paint88_linear_278_2454" x1="134.007" y1="277.909" x2="223.348" y2="296.874" gradientUnits="userSpaceOnUse"><stop stop-color="#4790CD"/><stop offset="1" stop-color="#DA62A5"/></linearGradient><linearGradient id="paint89_linear_278_2454" x1="168.729" y1="162.578" x2="169.27" y2="173.463" gradientUnits="userSpaceOnUse"><stop stop-color="#4790CD"/><stop offset="1" stop-color="#DA62A5"/></linearGradient><linearGradient id="paint90_linear_278_2454" x1="149.123" y1="261.32" x2="149.423" y2="265.174" gradientUnits="userSpaceOnUse"><stop stop-color="#4790CD"/><stop offset="1" stop-color="#DA62A5"/></linearGradient><linearGradient id="paint91_linear_278_2454" x1="149.123" y1="263.603" x2="149.423" y2="267.456" gradientUnits="userSpaceOnUse"><stop stop-color="#4790CD"/><stop offset="1" stop-color="#DA62A5"/></linearGradient><linearGradient id="paint92_linear_278_2454" x1="149.123" y1="265.885" x2="149.423" y2="269.739" gradientUnits="userSpaceOnUse"><stop stop-color="#4790CD"/><stop offset="1" stop-color="#DA62A5"/></linearGradient><linearGradient id="paint93_linear_278_2454" x1="149.123" y1="268.167" x2="149.423" y2="272.021" gradientUnits="userSpaceOnUse"><stop stop-color="#4790CD"/><stop offset="1" stop-color="#DA62A5"/></linearGradient><linearGradient id="paint94_linear_278_2454" x1="152.092" y1="269.972" x2="152.313" y2="272.691" gradientUnits="userSpaceOnUse"><stop stop-color="#4790CD"/><stop offset="1" stop-color="#DA62A5"/></linearGradient><linearGradient id="paint95_linear_278_2454" x1="136.285" y1="256.461" x2="147.636" y2="286.695" gradientUnits="userSpaceOnUse"><stop stop-color="#4790CD"/><stop offset="1" stop-color="#DA62A5"/></linearGradient><linearGradient id="paint96_linear_278_2454" x1="202.177" y1="211.906" x2="204.625" y2="218.281" gradientUnits="userSpaceOnUse"><stop stop-color="#F6F6F6"/><stop offset="1" stop-color="#CCD5ED"/></linearGradient><linearGradient id="paint97_linear_278_2454" x1="210.356" y1="239.427" x2="229.613" y2="256.249" gradientUnits="userSpaceOnUse"><stop stop-color="#FAD6C7"/><stop offset="1" stop-color="#E4857F"/></linearGradient><linearGradient id="paint98_linear_278_2454" x1="188.348" y1="290.328" x2="188.348" y2="312.193" gradientUnits="userSpaceOnUse"><stop stop-color="#F6F6F6"/><stop offset="1" stop-color="#CCD5ED"/></linearGradient><linearGradient id="paint99_linear_278_2454" x1="231.108" y1="304.376" x2="248.929" y2="294.037" gradientUnits="userSpaceOnUse"><stop stop-color="#FAD6C7"/><stop offset="1" stop-color="#E4857F"/></linearGradient><linearGradient id="paint100_linear_278_2454" x1="241.111" y1="302.658" x2="261.983" y2="283.13" gradientUnits="userSpaceOnUse"><stop stop-color="#FAD6C7"/><stop offset="1" stop-color="#E4857F"/></linearGradient><linearGradient id="paint101_linear_278_2454" x1="223.539" y1="280.213" x2="217.308" y2="276.917" gradientUnits="userSpaceOnUse"><stop stop-color="#FAD6C7"/><stop offset="1" stop-color="#E4857F"/></linearGradient><linearGradient id="paint102_linear_278_2454" x1="240.494" y1="281.995" x2="248.989" y2="245.792" gradientUnits="userSpaceOnUse"><stop stop-color="#F6F6F6"/><stop offset="1" stop-color="#CCD5ED"/></linearGradient><linearGradient id="paint103_linear_278_2454" x1="226.663" y1="273.493" x2="236.257" y2="272.157" gradientUnits="userSpaceOnUse"><stop stop-color="#FAD6C7"/><stop offset="1" stop-color="#E4857F"/></linearGradient><linearGradient id="paint104_linear_278_2454" x1="233.441" y1="281.523" x2="239.912" y2="244.538" gradientUnits="userSpaceOnUse"><stop stop-color="#F6F6F6"/><stop offset="1" stop-color="#CCD5ED"/></linearGradient><linearGradient id="paint105_linear_278_2454" x1="237.305" y1="238.618" x2="239.281" y2="224.058" gradientUnits="userSpaceOnUse"><stop stop-color="#FAD6C7"/><stop offset="1" stop-color="#E4857F"/></linearGradient><linearGradient id="paint106_linear_278_2454" x1="-18.079" y1="334.291" x2="34.979" y2="380.381" gradientUnits="userSpaceOnUse"><stop stop-color="#F6F6F6"/><stop offset="1" stop-color="#CCD5ED"/></linearGradient><linearGradient id="paint107_linear_278_2454" x1="54.444" y1="347.749" x2="101.987" y2="362.515" gradientUnits="userSpaceOnUse"><stop stop-color="#F6F6F6"/><stop offset="1" stop-color="#CCD5ED"/></linearGradient><linearGradient id="paint108_linear_278_2454" x1="21.743" y1="299.219" x2="20.693" y2="341.17" gradientUnits="userSpaceOnUse"><stop stop-color="#F6F6F6"/><stop offset="1" stop-color="#CCD5ED"/></linearGradient><linearGradient id="paint109_linear_278_2454" x1="78.468" y1="332.202" x2="88.716" y2="288.407" gradientUnits="userSpaceOnUse"><stop stop-color="#F6F6F6"/><stop offset="1" stop-color="#CCD5ED"/></linearGradient><linearGradient id="paint110_linear_278_2454" x1="61.023" y1="289.125" x2="51.602" y2="310.909" gradientUnits="userSpaceOnUse"><stop stop-color="#F6F6F6"/><stop offset="1" stop-color="#CCD5ED"/></linearGradient><linearGradient id="paint111_linear_278_2454" x1="-17.958" y1="288.603" x2="14.975" y2="338.388" gradientUnits="userSpaceOnUse"><stop stop-color="#F6F6F6"/><stop offset="1" stop-color="#CCD5ED"/></linearGradient><linearGradient id="paint112_linear_278_2454" x1="56.148" y1="300.852" x2="94.817" y2="321.753" gradientUnits="userSpaceOnUse"><stop stop-color="#F6F6F6"/><stop offset="1" stop-color="#CCD5ED"/></linearGradient><linearGradient id="paint113_linear_278_2454" x1="21.743" y1="267.087" x2="20.693" y2="309.037" gradientUnits="userSpaceOnUse"><stop stop-color="#F6F6F6"/><stop offset="1" stop-color="#CCD5ED"/></linearGradient><linearGradient id="paint114_linear_278_2454" x1="78.467" y1="300.069" x2="88.716" y2="256.275" gradientUnits="userSpaceOnUse"><stop stop-color="#F6F6F6"/><stop offset="1" stop-color="#CCD5ED"/></linearGradient><linearGradient id="paint115_linear_278_2454" x1="61.023" y1="256.992" x2="51.602" y2="278.777" gradientUnits="userSpaceOnUse"><stop stop-color="#F6F6F6"/><stop offset="1" stop-color="#CCD5ED"/></linearGradient><linearGradient id="paint116_linear_278_2454" x1="-17.958" y1="256.47" x2="14.975" y2="306.256" gradientUnits="userSpaceOnUse"><stop stop-color="#F6F6F6"/><stop offset="1" stop-color="#CCD5ED"/></linearGradient><linearGradient id="paint117_linear_278_2454" x1="56.148" y1="268.719" x2="94.817" y2="289.621" gradientUnits="userSpaceOnUse"><stop stop-color="#F6F6F6"/><stop offset="1" stop-color="#CCD5ED"/></linearGradient><linearGradient id="paint118_linear_278_2454" x1="21.744" y1="234.954" x2="20.694" y2="276.905" gradientUnits="userSpaceOnUse"><stop stop-color="#F6F6F6"/><stop offset="1" stop-color="#CCD5ED"/></linearGradient><linearGradient id="paint119_linear_278_2454" x1="78.467" y1="267.937" x2="88.716" y2="224.142" gradientUnits="userSpaceOnUse"><stop stop-color="#F6F6F6"/><stop offset="1" stop-color="#CCD5ED"/></linearGradient><linearGradient id="paint120_linear_278_2454" x1="61.023" y1="224.86" x2="51.602" y2="246.644" gradientUnits="userSpaceOnUse"><stop stop-color="#F6F6F6"/><stop offset="1" stop-color="#CCD5ED"/></linearGradient><linearGradient id="paint121_linear_278_2454" x1="59.499" y1="228.738" x2="51.32" y2="217.2" gradientUnits="userSpaceOnUse"><stop stop-color="#F6F6F6"/><stop offset="1" stop-color="#CCD5ED"/></linearGradient><linearGradient id="paint122_linear_278_2454" x1="-18.079" y1="221.827" x2="34.977" y2="267.918" gradientUnits="userSpaceOnUse"><stop stop-color="#F6F6F6"/><stop offset="1" stop-color="#CCD5ED"/></linearGradient><linearGradient id="paint123_linear_278_2454" x1="54.445" y1="235.285" x2="101.986" y2="250.052" gradientUnits="userSpaceOnUse"><stop stop-color="#F6F6F6"/><stop offset="1" stop-color="#CCD5ED"/></linearGradient><linearGradient id="paint124_linear_278_2454" x1="21.744" y1="186.757" x2="20.694" y2="228.708" gradientUnits="userSpaceOnUse"><stop stop-color="#F6F6F6"/><stop offset="1" stop-color="#CCD5ED"/></linearGradient><linearGradient id="paint125_linear_278_2454" x1="78.467" y1="219.74" x2="88.716" y2="175.945" gradientUnits="userSpaceOnUse"><stop stop-color="#F6F6F6"/><stop offset="1" stop-color="#CCD5ED"/></linearGradient><linearGradient id="paint126_linear_278_2454" x1="59.499" y1="180.541" x2="51.32" y2="169.003" gradientUnits="userSpaceOnUse"><stop stop-color="#F6F6F6"/><stop offset="1" stop-color="#CCD5ED"/></linearGradient><linearGradient id="paint127_linear_278_2454" x1="106.082" y1="248.778" x2="105.665" y2="254.569" gradientUnits="userSpaceOnUse"><stop stop-color="#4790CD"/><stop offset="1" stop-color="#DA62A5"/></linearGradient><linearGradient id="paint128_linear_278_2454" x1="111.771" y1="254.229" x2="114.587" y2="253.813" gradientUnits="userSpaceOnUse"><stop stop-color="#4790CD"/><stop offset="1" stop-color="#DA62A5"/></linearGradient><linearGradient id="paint129_linear_278_2454" x1="107.623" y1="245.301" x2="107.623" y2="248.649" gradientUnits="userSpaceOnUse"><stop stop-color="#4790CD"/><stop offset="1" stop-color="#DA62A5"/></linearGradient><linearGradient id="paint130_linear_278_2454" x1="97.316" y1="253.214" x2="96.899" y2="259.004" gradientUnits="userSpaceOnUse"><stop stop-color="#4790CD"/><stop offset="1" stop-color="#DA62A5"/></linearGradient><linearGradient id="paint131_linear_278_2454" x1="103.005" y1="258.666" x2="105.821" y2="258.251" gradientUnits="userSpaceOnUse"><stop stop-color="#4790CD"/><stop offset="1" stop-color="#DA62A5"/></linearGradient><linearGradient id="paint132_linear_278_2454" x1="98.857" y1="245.301" x2="98.857" y2="248.649" gradientUnits="userSpaceOnUse"><stop stop-color="#4790CD"/><stop offset="1" stop-color="#DA62A5"/></linearGradient><linearGradient id="paint133_linear_278_2454" x1="77.405" y1="296.697" x2="76.988" y2="302.488" gradientUnits="userSpaceOnUse"><stop stop-color="#4790CD"/><stop offset="1" stop-color="#DA62A5"/></linearGradient><linearGradient id="paint134_linear_278_2454" x1="83.095" y1="302.15" x2="85.911" y2="301.734" gradientUnits="userSpaceOnUse"><stop stop-color="#4790CD"/><stop offset="1" stop-color="#DA62A5"/></linearGradient><linearGradient id="paint135_linear_278_2454" x1="78.946" y1="293.22" x2="78.946" y2="296.568" gradientUnits="userSpaceOnUse"><stop stop-color="#4790CD"/><stop offset="1" stop-color="#DA62A5"/></linearGradient><linearGradient id="paint136_linear_278_2454" x1="68.639" y1="301.133" x2="68.221" y2="306.924" gradientUnits="userSpaceOnUse"><stop stop-color="#4790CD"/><stop offset="1" stop-color="#DA62A5"/></linearGradient><linearGradient id="paint137_linear_278_2454" x1="74.328" y1="306.584" x2="77.144" y2="306.169" gradientUnits="userSpaceOnUse"><stop stop-color="#4790CD"/><stop offset="1" stop-color="#DA62A5"/></linearGradient><linearGradient id="paint138_linear_278_2454" x1="70.18" y1="293.22" x2="70.18" y2="296.568" gradientUnits="userSpaceOnUse"><stop stop-color="#4790CD"/><stop offset="1" stop-color="#DA62A5"/></linearGradient><linearGradient id="paint139_linear_278_2454" x1="7.271" y1="250.376" x2="7.688" y2="256.166" gradientUnits="userSpaceOnUse"><stop stop-color="#4790CD"/><stop offset="1" stop-color="#DA62A5"/></linearGradient><linearGradient id="paint140_linear_278_2454" x1="11.249" y1="248.42" x2="8.433" y2="248.004" gradientUnits="userSpaceOnUse"><stop stop-color="#4790CD"/><stop offset="1" stop-color="#DA62A5"/></linearGradient><linearGradient id="paint141_linear_278_2454" x1="11.253" y1="246.274" x2="11.253" y2="249.622" gradientUnits="userSpaceOnUse"><stop stop-color="#4790CD"/><stop offset="1" stop-color="#DA62A5"/></linearGradient><linearGradient id="paint142_linear_278_2454" x1="16.037" y1="254.811" x2="16.454" y2="260.602" gradientUnits="userSpaceOnUse"><stop stop-color="#4790CD"/><stop offset="1" stop-color="#DA62A5"/></linearGradient><linearGradient id="paint143_linear_278_2454" x1="20.016" y1="252.857" x2="17.2" y2="252.441" gradientUnits="userSpaceOnUse"><stop stop-color="#4790CD"/><stop offset="1" stop-color="#DA62A5"/></linearGradient><linearGradient id="paint144_linear_278_2454" x1="20.02" y1="246.274" x2="20.02" y2="249.622" gradientUnits="userSpaceOnUse"><stop stop-color="#4790CD"/><stop offset="1" stop-color="#DA62A5"/></linearGradient><linearGradient id="paint145_linear_278_2454" x1="35.948" y1="298.295" x2="36.365" y2="304.086" gradientUnits="userSpaceOnUse"><stop stop-color="#4790CD"/><stop offset="1" stop-color="#DA62A5"/></linearGradient><linearGradient id="paint146_linear_278_2454" x1="39.926" y1="296.341" x2="37.11" y2="295.925" gradientUnits="userSpaceOnUse"><stop stop-color="#4790CD"/><stop offset="1" stop-color="#DA62A5"/></linearGradient><linearGradient id="paint147_linear_278_2454" x1="39.931" y1="294.194" x2="39.931" y2="297.542" gradientUnits="userSpaceOnUse"><stop stop-color="#4790CD"/><stop offset="1" stop-color="#DA62A5"/></linearGradient><linearGradient id="paint148_linear_278_2454" x1="44.715" y1="302.731" x2="45.132" y2="308.521" gradientUnits="userSpaceOnUse"><stop stop-color="#4790CD"/><stop offset="1" stop-color="#DA62A5"/></linearGradient><linearGradient id="paint149_linear_278_2454" x1="48.693" y1="300.775" x2="45.877" y2="300.36" gradientUnits="userSpaceOnUse"><stop stop-color="#4790CD"/><stop offset="1" stop-color="#DA62A5"/></linearGradient><linearGradient id="paint150_linear_278_2454" x1="48.697" y1="294.193" x2="48.697" y2="297.542" gradientUnits="userSpaceOnUse"><stop stop-color="#4790CD"/><stop offset="1" stop-color="#DA62A5"/></linearGradient><linearGradient id="paint151_linear_278_2454" x1="47.225" y1="395.925" x2="47.145" y2="392.69" gradientUnits="userSpaceOnUse"><stop stop-color="#F6F6F6"/><stop offset="1" stop-color="#CCD5ED"/></linearGradient><linearGradient id="paint152_linear_278_2454" x1="27.056" y1="338.221" x2="-6.585" y2="363.158" gradientUnits="userSpaceOnUse"><stop stop-color="#F6F6F6"/><stop offset="1" stop-color="#CCD5ED"/></linearGradient><linearGradient id="paint153_linear_278_2454" x1="25.363" y1="350.75" x2="47.49" y2="350.75" gradientUnits="userSpaceOnUse"><stop stop-color="#F6F6F6"/><stop offset="1" stop-color="#CCD5ED"/></linearGradient><linearGradient id="paint154_linear_278_2454" x1="10.87" y1="344.259" x2="10.851" y2="353.7" gradientUnits="userSpaceOnUse"><stop stop-color="#4790CD"/><stop offset="1" stop-color="#EA6FAA"/></linearGradient><linearGradient id="paint155_linear_278_2454" x1="35.121" y1="253.044" x2="19.047" y2="255.961" gradientUnits="userSpaceOnUse"><stop stop-color="#4790CD"/><stop offset="1" stop-color="#EA6FAA"/></linearGradient><linearGradient id="paint156_linear_278_2454" x1="19.78" y1="306.104" x2="38.468" y2="346.937" gradientUnits="userSpaceOnUse"><stop stop-color="#4790CD"/><stop offset="1" stop-color="#EA6FAA"/></linearGradient><linearGradient id="paint157_linear_278_2454" x1="34.006" y1="341.296" x2="51.46" y2="345.818" gradientUnits="userSpaceOnUse"><stop stop-color="#4790CD"/><stop offset="1" stop-color="#EA6FAA"/></linearGradient><linearGradient id="paint158_linear_278_2454" x1="352.904" y1="362.825" x2="352.904" y2="386.316" gradientUnits="userSpaceOnUse"><stop stop-color="#F6F6F6"/><stop offset="1" stop-color="#CCD5ED"/></linearGradient><linearGradient id="paint159_linear_278_2454" x1="395.235" y1="329.242" x2="405.13" y2="319.621" gradientUnits="userSpaceOnUse"><stop stop-color="#FAD6C7"/><stop offset="1" stop-color="#E4857F"/></linearGradient><linearGradient id="paint160_linear_278_2454" x1="397.134" y1="388.728" x2="406.959" y2="386.689" gradientUnits="userSpaceOnUse"><stop stop-color="#FAD6C7"/><stop offset="1" stop-color="#E4857F"/></linearGradient><linearGradient id="paint161_linear_278_2454" x1="402.767" y1="365.364" x2="418.235" y2="350.824" gradientUnits="userSpaceOnUse"><stop stop-color="#FAD6C7"/><stop offset="1" stop-color="#E4857F"/></linearGradient><linearGradient id="paint162_linear_278_2454" x1="406.556" y1="356.374" x2="411.923" y2="308.953" gradientUnits="userSpaceOnUse"><stop stop-color="#F6F6F6"/><stop offset="1" stop-color="#CCD5ED"/></linearGradient><linearGradient id="paint163_linear_278_2454" x1="406.857" y1="307.279" x2="404.734" y2="291.637" gradientUnits="userSpaceOnUse"><stop stop-color="#FAD6C7"/><stop offset="1" stop-color="#E4857F"/></linearGradient><linearGradient id="paint164_linear_278_2454" x1="421.617" y1="324.107" x2="420.387" y2="312.276" gradientUnits="userSpaceOnUse"><stop stop-color="#FAD6C7"/><stop offset="1" stop-color="#E4857F"/></linearGradient><linearGradient id="paint165_linear_278_2454" x1="401.829" y1="317.801" x2="401.965" y2="311.762" gradientUnits="userSpaceOnUse"><stop stop-color="#F6F6F6"/><stop offset="1" stop-color="#CCD5ED"/></linearGradient><linearGradient id="paint166_linear_278_2454" x1="249.742" y1="388.967" x2="249.742" y2="410.403" gradientUnits="userSpaceOnUse"><stop stop-color="#F6F6F6"/><stop offset="1" stop-color="#CCD5ED"/></linearGradient><linearGradient id="paint167_linear_278_2454" x1="294.488" y1="420.364" x2="304.381" y2="414.885" gradientUnits="userSpaceOnUse"><stop stop-color="#FAD6C7"/><stop offset="1" stop-color="#E4857F"/></linearGradient><linearGradient id="paint168_linear_278_2454" x1="302.645" y1="421.707" x2="312.537" y2="416.229" gradientUnits="userSpaceOnUse"><stop stop-color="#FAD6C7"/><stop offset="1" stop-color="#E4857F"/></linearGradient><linearGradient id="paint169_linear_278_2454" x1="227.324" y1="331.606" x2="226.47" y2="404.25" gradientUnits="userSpaceOnUse"><stop stop-color="#FAD6C7"/><stop offset="1" stop-color="#E4857F"/></linearGradient><linearGradient id="paint170_linear_278_2454" x1="269.831" y1="336.101" x2="268.413" y2="380.532" gradientUnits="userSpaceOnUse"><stop stop-color="#4790CD"/><stop offset="1" stop-color="#DA62A5"/></linearGradient><linearGradient id="paint171_linear_278_2454" x1="304.712" y1="367.378" x2="307.697" y2="333.902" gradientUnits="userSpaceOnUse"><stop stop-color="#F6F6F6"/><stop offset="1" stop-color="#CCD5ED"/></linearGradient><linearGradient id="paint172_linear_278_2454" x1="295.269" y1="335.125" x2="295.22" y2="332.885" gradientUnits="userSpaceOnUse"><stop stop-color="#FAD6C7"/><stop offset="1" stop-color="#E4857F"/></linearGradient><linearGradient id="paint173_linear_278_2454" x1="295.118" y1="332.091" x2="295.381" y2="328.759" gradientUnits="userSpaceOnUse"><stop stop-color="#FAD6C7"/><stop offset="1" stop-color="#E4857F"/></linearGradient><linearGradient id="paint174_linear_278_2454" x1="265.95" y1="337.883" x2="263.683" y2="417.289" gradientUnits="userSpaceOnUse"><stop stop-color="#FAD6C7"/><stop offset="1" stop-color="#E4857F"/></linearGradient><linearGradient id="paint175_linear_278_2454" x1="286.38" y1="337.462" x2="284.881" y2="381.014" gradientUnits="userSpaceOnUse"><stop stop-color="#4790CD"/><stop offset="1" stop-color="#DA62A5"/></linearGradient><linearGradient id="paint176_linear_278_2454" x1="264.643" y1="308.541" x2="229.459" y2="316.01" gradientUnits="userSpaceOnUse"><stop stop-color="#4790CD"/><stop offset="1" stop-color="#DA62A5"/></linearGradient><linearGradient id="paint177_linear_278_2454" x1="235.093" y1="317.92" x2="231.473" y2="317.768" gradientUnits="userSpaceOnUse"><stop stop-color="#4790CD"/><stop offset="1" stop-color="#DA62A5"/></linearGradient><linearGradient id="paint178_linear_278_2454" x1="234.357" y1="321.32" x2="230.631" y2="320.978" gradientUnits="userSpaceOnUse"><stop stop-color="#4790CD"/><stop offset="1" stop-color="#DA62A5"/></linearGradient><linearGradient id="paint179_linear_278_2454" x1="236.053" y1="317.778" x2="232.406" y2="317.58" gradientUnits="userSpaceOnUse"><stop stop-color="#4790CD"/><stop offset="1" stop-color="#DA62A5"/></linearGradient><linearGradient id="paint180_linear_278_2454" x1="238.044" y1="313.572" x2="234.447" y2="313.454" gradientUnits="userSpaceOnUse"><stop stop-color="#4790CD"/><stop offset="1" stop-color="#DA62A5"/></linearGradient><linearGradient id="paint181_linear_278_2454" x1="254.175" y1="308.142" x2="253.962" y2="312.429" gradientUnits="userSpaceOnUse"><stop stop-color="#4790CD"/><stop offset="1" stop-color="#DA62A5"/></linearGradient></defs></svg>