<svg width="100" height="100" viewBox="0 0 100 100" fill="none" xmlns="http://www.w3.org/2000/svg"><path d="M82.655 82.169H69.532c-2.187 0-4.023-1.445-4.66-3.423h22.442c-.636 1.978-2.472 3.423-4.659 3.423zM69.532 45.442h13.123a4.922 4.922 0 014.916 4.917v25.398H64.616V50.36a4.922 4.922 0 014.916-4.917zm13.123-2.988H69.532c-4.359 0-7.905 3.547-7.905 7.905v26.893c0 4.359 3.546 7.905 7.905 7.905h13.123c4.359 0 7.905-3.546 7.905-7.905V50.36c0-4.36-3.546-7.906-7.905-7.906z" fill="#2770EC"/><path d="M79.223 48.746h-5.901a1.494 1.494 0 110-2.988h5.901a1.495 1.495 0 010 2.988zM76.99 81.785h-1.813a1.494 1.494 0 110-2.988h1.812a1.494 1.494 0 010 2.988zm-34.193-16.49h-1.47a1.495 1.495 0 110-2.989h1.47a1.494 1.494 0 110 2.989z" fill="#2770EC"/><path d="M47.179 74.723h-10.11V68.6h10.11v6.124zm27.91-57.483H9.165c-3.288 0-5.965 2.672-5.965 5.957v39.446c0 3.283 2.677 5.956 5.965 5.956h24.916v6.124h-6.088a1.494 1.494 0 100 2.988h28.265a1.494 1.494 0 100-2.988h-6.091V68.6h8.508a1.494 1.494 0 100-2.989H9.165a2.975 2.975 0 01-2.977-2.967v-.553H58.76a1.494 1.494 0 000-2.988H6.19V23.197a2.976 2.976 0 012.976-2.968H75.09a2.971 2.971 0 012.968 2.968V39.09a1.494 1.494 0 102.989 0V23.197a5.963 5.963 0 00-5.957-5.957z" fill="#2770EC"/><path d="M41.994 39.762a1.029 1.029 0 000 2.056 1.03 1.03 0 001.028-1.028 1.03 1.03 0 00-1.028-1.028zm0 5.044a4.021 4.021 0 01-4.017-4.016 4.02 4.02 0 014.017-4.017 4.021 4.021 0 014.017 4.017 4.022 4.022 0 01-4.017 4.016zm-10.201-5.044a1.029 1.029 0 000 2.056 1.029 1.029 0 000-2.056zm0 5.044a4.021 4.021 0 01-4.016-4.016 4.02 4.02 0 014.016-4.017 4.02 4.02 0 014.016 4.017 4.02 4.02 0 01-4.016 4.016zm20.403-5.044a1.03 1.03 0 00-1.029 1.028 1.03 1.03 0 002.057 0 1.03 1.03 0 00-1.028-1.028zm0 5.044a4.021 4.021 0 01-4.017-4.016 4.02 4.02 0 014.017-4.017 4.02 4.02 0 014.016 4.017 4.021 4.021 0 01-4.016 4.016zm27.982 17.272a.725.725 0 10.001 1.45.725.725 0 000-1.45zm0 4.437a3.717 3.717 0 01-3.713-3.713 3.717 3.717 0 013.713-3.713 3.716 3.716 0 013.712 3.713 3.716 3.716 0 01-3.712 3.713zm-7.882-4.437a.726.726 0 000 1.448.725.725 0 000-1.448zm0 4.437a3.717 3.717 0 01-3.713-3.713 3.717 3.717 0 013.713-3.713 3.716 3.716 0 013.712 3.713 3.716 3.716 0 01-3.712 3.713z" fill="#2770EC"/></svg>