<svg width="148" height="139" viewBox="0 0 148 139" fill="none" xmlns="http://www.w3.org/2000/svg"><path d="M18.156 134.498v2.102c0 1.186 1.07 2.147 2.39 2.147H127.96c1.321 0 2.392-.961 2.392-2.147v-2.102H18.156z" fill="#939598"/><path d="M17.455 133.072H131.13l-14.876-13.663h-81.14l-17.66 13.663z" fill="#AFB1B4"/><path d="M120.161 127.342H29.494l7.17-5.547h77.457l6.04 5.547zm-31.356 4.893H60.818l2.213-3.314h23.91l1.864 3.314z" fill="#C5C6C8"/><path d="M131.131 133.071H17.455v2.862H131.13v-2.862z" fill="#BCBEC0"/><path d="M117.173 118.155c0 1.186-.919 2.147-2.053 2.147H36.26c-1.133 0-2.052-.961-2.052-2.147V65.43c0-1.185.92-2.147 2.052-2.147h78.86c1.134 0 2.053.962 2.053 2.147v52.725z" fill="#E7E8E9"/><path d="M116.244 117.276c0 1.146-.897 2.076-2.006 2.076H37.11c-1.108 0-2.006-.93-2.006-2.076v-50.96c0-1.146.898-2.075 2.006-2.075h77.128c1.109 0 2.006.93 2.006 2.076v50.959z" fill="#D1D3D4"/><path d="M111.263 68.768H39.468v45.092h71.795V68.768z" fill="#F15A29"/><path d="M64.286 113.86H39.468V68.768h58.757a158.642 158.642 0 01-9.535 16.806c-5.26 8.095-11.31 15.64-18.066 22.412a113.972 113.972 0 01-6.338 5.874z" fill="#F68B42"/><path d="M57.355 119.352H37.11c-1.108 0-2.006-.93-2.006-2.075v-50.96c0-1.146.898-2.075 2.006-2.075h63.203a149.007 149.007 0 01-2.12 4.531H39.434v45.092h24.819a131.316 131.316 0 01-4.02 3.319 67.658 67.658 0 01-2.879 2.168z" fill="#E5E6E7"/><path d="M77.574 66.597c0 .643-.498 1.163-1.112 1.163-.614 0-1.111-.52-1.111-1.163s.497-1.163 1.11-1.163c.615 0 1.113.52 1.113 1.163z" fill="#939598"/><path d="M124.46 88.558c0 1.65-1.289 3-2.865 3H76.541c-1.576 0-2.866-1.35-2.866-3v-6.39c0-1.65 1.29-3 2.866-3h45.054c1.576 0 2.865 1.35 2.865 3v6.39z" fill="#fff"/><path d="M124.462 88.559h-.43a2.6 2.6 0 01-.716 1.8 2.375 2.375 0 01-1.72.75H76.542a2.37 2.37 0 01-1.72-.75 2.603 2.603 0 01-.716-1.8v-6.39a2.6 2.6 0 01.716-1.801 2.374 2.374 0 011.72-.75h45.054c.67 0 1.276.286 1.72.75a2.6 2.6 0 01.716 1.8v6.391h.859v-6.39c-.002-1.9-1.48-3.448-3.295-3.45H76.542c-1.816.002-3.294 1.55-3.295 3.45v6.39c.001 1.9 1.48 3.448 3.295 3.45h45.054c1.815-.002 3.293-1.55 3.295-3.45h-.429z" fill="#121F44"/><path d="M80.71 83.237l.96 3.443.873-3.2c.093-.335.162-.564.208-.686a.885.885 0 01.253-.35c.124-.111.294-.167.51-.167.219 0 .39.056.514.167a.94.94 0 01.262.361c.05.13.12.355.21.675l.874 3.2.97-3.443c.066-.249.118-.428.157-.54a.71.71 0 01.2-.293c.093-.084.228-.127.404-.127a.63.63 0 01.458.192c.13.128.195.279.195.452 0 .158-.056.397-.168.717l-1.202 3.691a11.8 11.8 0 01-.243.678.999.999 0 01-.272.372c-.124.11-.294.164-.51.164-.223 0-.398-.059-.525-.175a1.055 1.055 0 01-.284-.43 8.104 8.104 0 01-.2-.66l-.84-3.002-.815 3.002c-.108.418-.224.733-.35.946-.126.212-.347.319-.663.319a.809.809 0 01-.413-.1.81.81 0 01-.283-.281 2.141 2.141 0 01-.2-.435l-.135-.398-1.191-3.691c-.119-.347-.178-.585-.178-.717 0-.166.062-.314.188-.446a.617.617 0 01.465-.198c.244 0 .409.073.495.218.087.145.178.392.275.742zm8.96 0l.96 3.443.874-3.2c.093-.335.162-.564.207-.686a.884.884 0 01.254-.35c.124-.111.294-.167.51-.167.219 0 .39.056.514.167a.93.93 0 01.262.361c.05.13.12.355.21.675l.874 3.2.97-3.443a7.13 7.13 0 01.157-.54.715.715 0 01.2-.293c.093-.084.228-.127.404-.127a.63.63 0 01.458.192c.13.128.194.279.194.452 0 .158-.055.397-.167.717l-1.202 3.691a11.82 11.82 0 01-.243.678 1.01 1.01 0 01-.272.372c-.124.11-.294.164-.51.164-.223 0-.398-.059-.525-.175a1.053 1.053 0 01-.284-.43 8.06 8.06 0 01-.2-.66l-.84-3.002-.815 3.002c-.108.418-.225.733-.35.946-.127.212-.347.319-.663.319a.806.806 0 01-.413-.1.81.81 0 01-.283-.281 2.169 2.169 0 01-.2-.435l-.135-.398-1.191-3.691c-.119-.347-.178-.585-.178-.717 0-.166.062-.314.188-.446a.616.616 0 01.464-.198c.245 0 .41.073.496.218.087.145.178.392.275.742zm9 0l.96 3.443.874-3.2a9.71 9.71 0 01.208-.686.886.886 0 01.253-.35c.124-.111.294-.167.51-.167.219 0 .39.056.514.167a.94.94 0 01.262.361c.05.13.121.355.21.675l.874 3.2.971-3.443c.064-.249.117-.428.156-.54a.715.715 0 01.2-.293c.093-.084.228-.127.404-.127a.63.63 0 01.458.192c.13.128.195.279.195.452 0 .158-.056.397-.168.717l-1.202 3.691c-.104.313-.185.538-.243.678a.999.999 0 01-.272.372c-.124.11-.294.164-.51.164-.223 0-.398-.059-.525-.175a1.052 1.052 0 01-.284-.43 8.342 8.342 0 01-.199-.66l-.841-3.002-.815 3.002c-.108.418-.224.733-.35.946-.126.212-.347.319-.663.319a.809.809 0 01-.413-.1.81.81 0 01-.283-.281 2.147 2.147 0 01-.2-.435l-.135-.398-1.191-3.691c-.119-.347-.178-.585-.178-.717 0-.166.062-.314.188-.446a.616.616 0 01.464-.198c.245 0 .41.073.496.218.087.145.178.392.275.742zm8.162-1.918v8.394h.859v-8.394m18.019 10.987c.784-.183.862-.69.176-1.125l-14.085-8.93c-.687-.435-1.073-.129-.858.68l4.407 16.61c.216.809.703.866 1.084.126l1.402-2.725c.381-.74 1.089-.797 1.574-.127l4.376 6.042a1.42 1.42 0 002.044.294l.547-.432c.639-.508.766-1.471.281-2.141l-4.375-6.043c-.485-.67-.242-1.367.543-1.55l2.884-.678z" fill="#121F44"/><path d="M111.218 108.384c-2.246-4.523-8.052-4.346-9.9-.854-.226-4.216-7.234-6.567-9.437-1.078.744-6.394-7.033-8.745-10.103-4.766-1.15-4.976-8.337-6.874-12.08-.367 1.497-6.326-6.28-11.39-11.405-6.567-7.836-8.622.136-24.457.945-27.841-1.156-.17-1.824-1.123-2.552-1.986-2.092 1.815-8.463 14.659-9.513 17.346-2.419 6.195-5.083 4.326-5.083 4.326-3.384-1.914-11.161 3.874-5.917 10.903-3.517-.878-4.899 5.453-1.08 7.985-5.547 1.267-2.955 9.407 4.33 8.381h71.795v-5.482z" fill="#fff"/><path d="M69.406 65.667c-5.174 6.845-16.608 9.606-16.608 9.606s-.333-14.708 3.817-20.198c4.15-5.491 13.842-4.557 13.842-4.557s4.122 8.304-1.051 15.149z" fill="#FCB116"/><path d="M68.673 62.443c-3.604 4.768-11.552 6.704-11.552 6.704s-.214-10.229 2.677-14.054c2.891-3.824 9.625-3.189 9.625-3.189s2.854 5.77-.75 10.539z" fill="#FFC906"/><path d="M79.38 71.787c-3.551-2.94-3.285-13.12-3.285-13.12S90.466 44.876 91.89 46.054c4.555 3.773-11.087 26.912-12.51 25.734z" fill="#F26521"/><path d="M92.609 47.256c-1.385 4.074-3.325 7.947-5.651 11.517-1.672 2.566-3.359 5.3-5.305 7.65-1.109 1.336-2.34 2.502-3.809 3.22.411.873.916 1.62 1.543 2.138 1.312 1.087 14.72-18.514 13.222-24.525z" fill="#F5801F"/><path d="M48.82 46.466c3.55 2.94 12.953.327 12.953.327s9.517-17.812 8.095-18.99c-4.555-3.772-22.47 17.485-21.047 18.663z" fill="#F26521"/><path d="M68.58 27.356c-3.47 2.346-6.624 5.214-9.407 8.404-2.002 2.294-4.156 4.64-5.892 7.165-.987 1.437-1.789 2.958-2.118 4.62-.907-.218-1.717-.56-2.342-1.08-1.313-1.086 13.826-19.254 19.76-19.11z" fill="#F5801F"/><path d="M75.618 60.726c-.832 1.1-2.18 1.433-3.01.745L59.805 50.87c-.832-.69-.833-2.139-.002-3.24l.214-.281c.83-1.1 2.18-1.432 3.011-.743l12.801 10.6c.832.689.832 2.139.001 3.238l-.213.282z" fill="#F26521"/><path d="M106.149 3.209S88.833.085 71.201 23.412c-8.626 11.413-11.746 24.123-11.746 24.123l8.112 6.718 8.112 6.718s11.099-6.103 19.725-17.516C113.036 20.128 106.15 3.21 106.15 3.21z" fill="#fff"/><path d="M74.886 46.747c-1.59-.594-3.376.955-4.665 1.753-.557.345-1.898 1.278-2.444.401-.977-1.565.176-4.641.63-6.17 1.14-3.832 2.724-7.61 4.29-11.272 3.25-7.591 8.432-13.586 14.886-18.358 3.025-2.236 6.227-4.257 9.577-5.92 2.949-1.462 6.204-2.14 9.043-3.828-.034-.094-.054-.144-.054-.144S88.833.085 71.201 23.412c-8.626 11.413-11.746 24.123-11.746 24.123l16.224 13.436s.291-.16.811-.474c-3.126-3.477-3.934-9.108-1.604-13.75z" fill="#D1D3D4"/><path d="M106.976 18.351c1.532-9.402-.803-15.143-.803-15.143s-5.875-1.058-14.264 2.666l15.067 12.477zM94.29 36.006c-3.383 4.475-9.592 5.234-13.867 1.693-4.277-3.542-5-10.04-1.617-14.516 3.383-4.477 9.591-5.235 13.868-1.693 4.277 3.54 5 10.04 1.617 14.516z" fill="#F26521"/><path d="M92.468 34.503c-2.592 3.429-7.347 4.01-10.623 1.297-1.728-1.431-2.7-3.496-2.85-5.632a8.155 8.155 0 01.053-1.676 7.59 7.59 0 01.151-.817 7.915 7.915 0 01.85-2.146 7.43 7.43 0 01.557-.85c2.591-3.428 7.35-4.006 10.623-1.296 1.626 1.346 2.58 3.251 2.814 5.247a8.275 8.275 0 01-.231 3.131 7.991 7.991 0 01-.604 1.556 7.664 7.664 0 01-.74 1.186z" fill="#00B4A8"/><path d="M93.515 30.843l-14.307-3.167a7.911 7.911 0 01.85-2.146l13.848 3.068a8.21 8.21 0 01-.391 2.245zm.537-.139a8.33 8.33 0 00.017-2.075h.001a8.363 8.363 0 01-.018 2.075zM92.34 33.13l-13.346-2.957a7.966 7.966 0 01.054-1.676l14.16 3.135a8 8 0 01-.867 1.498z" fill="#61C7C8"/><path d="M86.548 37.513c2.232 0 4.443-1.03 5.935-3.005.286-.379.534-.773.74-1.186a7.982 7.982 0 00.7-1.94 8.039 8.039 0 01-1.439 3.127c-1.493 1.975-3.703 3.004-5.936 3.004zM80.81 34.75l-.005-.006.005.006zm13.184-3.734l.01-.062a6.571 6.571 0 00-.01.062z" fill="#96471A"/><path d="M86.547 37.51a7.319 7.319 0 01-4.688-1.709 7.767 7.767 0 01-1.05-1.054l-.005-.006-.006-.008a8.106 8.106 0 01-1.785-4.532 7.923 7.923 0 002.65 4.316 7.32 7.32 0 004.687 1.708c2.232 0 4.443-1.03 5.935-3.005l.07-.093.867.192a7.658 7.658 0 01-.74 1.186c-1.492 1.975-3.703 3.005-5.935 3.005zm7.279-5.747l-.604-.134c.113-.257.213-.519.298-.784l.483.106-.01.062a8.168 8.168 0 01-.167.75zm.23-3.132l-.144-.032c.01-.3.004-.6-.018-.898.071.307.126.618.163.93z" fill="#00867F"/><path d="M93.989 30.95l-.482-.106a8.214 8.214 0 00.39-2.245l.146.032a8.342 8.342 0 01-.054 2.32zm-.745 2.366l-.867-.192c.347-.474.636-.976.866-1.498l.604.134a7.98 7.98 0 01-.603 1.556z" fill="#269096"/><path d="M21.4 27.155v3.524c0 .12.094.219.21.219a.214.214 0 00.21-.219v-3.523a.214.214 0 00-.21-.22.215.215 0 00-.21.22z" fill="#fff"/><path d="M23.272 28.69h-3.337a.215.215 0 00-.21.219c0 .12.095.218.21.218h3.337c.115 0 .21-.098.21-.218a.215.215 0 00-.21-.22zM1.675 73.055v3.523c0 .122.094.22.21.22.115 0 .21-.098.21-.22v-3.523a.215.215 0 00-.21-.22.214.214 0 00-.21.22z" fill="#fff"/><path d="M3.546 74.6H.21a.215.215 0 00-.209.219c0 .12.094.219.21.219h3.336a.215.215 0 00.21-.22.214.214 0 00-.21-.219zm22.5-20.31h4.216a.214.214 0 00.209-.219.214.214 0 00-.21-.22h-4.215a.214.214 0 00-.21.22c0 .12.095.219.21.219zm5.65 0h1.171a.214.214 0 00.21-.219.214.214 0 00-.21-.22h-1.17a.215.215 0 00-.21.22c0 .12.094.219.21.219zm2.221 0h1.171c.115 0 .21-.098.21-.219a.215.215 0 00-.21-.22h-1.171a.215.215 0 00-.21.22c0 .12.094.219.21.219zm-7.052 1.53h4.215c.116 0 .21-.099.21-.22a.215.215 0 00-.21-.219h-4.215a.215.215 0 00-.21.22c0 .12.094.219.21.219zm5.649 0h1.171c.115 0 .21-.099.21-.22a.215.215 0 00-.21-.219h-1.17a.215.215 0 00-.21.22c0 .12.094.219.21.219zm2.221 0h1.17a.214.214 0 00.21-.22.214.214 0 00-.21-.219h-1.17a.215.215 0 00-.21.22c0 .12.095.219.21.219zM5.547 105.95h4.215c.116 0 .21-.098.21-.219a.215.215 0 00-.21-.219H5.547a.215.215 0 00-.21.219c0 .121.094.219.21.219zm5.649 0h1.171c.116 0 .21-.098.21-.219a.215.215 0 00-.21-.219h-1.17a.214.214 0 00-.21.219c0 .121.094.219.21.219zm2.221 0h1.17a.214.214 0 00.21-.219.214.214 0 00-.21-.219h-1.17a.214.214 0 00-.209.219c0 .121.094.219.21.219zm-7.052 1.53h4.215a.215.215 0 00.209-.22.214.214 0 00-.21-.218H6.366a.214.214 0 00-.21.218c0 .121.095.22.21.22zm5.65 0h1.17c.116 0 .21-.099.21-.22a.214.214 0 00-.21-.218h-1.17a.214.214 0 00-.21.218c0 .121.094.22.21.22zm2.22 0h1.171c.116 0 .21-.099.21-.22a.214.214 0 00-.21-.218h-1.17a.214.214 0 00-.21.218c0 .121.094.22.21.22zM92.104.22v3.523c0 .12.094.219.21.219.115 0 .21-.098.21-.22V.22a.216.216 0 00-.21-.219.215.215 0 00-.21.22z" fill="#fff"/><path d="M93.975 1.764h-3.337a.214.214 0 00-.209.218c0 .122.094.22.21.22h3.336c.115 0 .21-.098.21-.22a.214.214 0 00-.21-.218zm38.142 53.935v3.523c0 .121.094.22.21.22a.214.214 0 00.209-.22V55.7a.215.215 0 00-.209-.22.215.215 0 00-.21.22z" fill="#fff"/><path d="M133.988 57.244h-3.337a.215.215 0 00-.209.219c0 .12.094.219.209.219h3.337a.215.215 0 00.209-.22.214.214 0 00-.209-.218zm-11.895-33.356v3.523c0 .121.093.219.209.219.116 0 .21-.098.21-.22v-3.522a.215.215 0 00-.21-.22.214.214 0 00-.209.22z" fill="#fff"/><path d="M123.963 25.432h-3.336a.215.215 0 00-.21.22c0 .12.094.219.21.219h3.336c.116 0 .21-.098.21-.22a.215.215 0 00-.21-.219zm-77.74-12.99h4.215c.115 0 .21-.099.21-.22a.216.216 0 00-.21-.219h-4.215a.215.215 0 00-.21.22c0 .12.094.219.21.219zm5.649 0h1.17a.215.215 0 00.21-.22.215.215 0 00-.21-.219h-1.17a.215.215 0 00-.21.22c0 .12.095.219.21.219zm2.221 0h1.17c.116 0 .21-.099.21-.22a.215.215 0 00-.21-.219h-1.17a.215.215 0 00-.21.22c0 .12.094.219.21.219zm-7.052 1.528h4.214c.116 0 .21-.097.21-.219a.214.214 0 00-.21-.218h-4.214a.214.214 0 00-.21.219c0 .12.094.219.21.219zm5.649 0h1.17a.214.214 0 00.21-.219.214.214 0 00-.21-.218h-1.17a.214.214 0 00-.209.219c0 .12.094.219.21.219zm2.22 0h1.172a.214.214 0 00.209-.219.214.214 0 00-.21-.218h-1.17a.214.214 0 00-.21.219c0 .12.094.219.21.219zm51.663 28.979h4.216a.214.214 0 00.209-.219.214.214 0 00-.209-.219h-4.216a.214.214 0 00-.209.22c0 .12.094.218.209.218zm5.65 0h1.17c.116 0 .21-.098.21-.219a.215.215 0 00-.21-.219h-1.17a.215.215 0 00-.21.22c0 .12.094.218.21.218zm2.221 0h1.17a.214.214 0 00.209-.219.214.214 0 00-.209-.219h-1.17a.215.215 0 00-.21.22c0 .12.094.218.21.218zm-7.052 1.53h4.216a.215.215 0 00.209-.22.214.214 0 00-.209-.218h-4.216a.215.215 0 00-.21.219c0 .12.094.219.21.219zm5.649 0h1.17a.215.215 0 00.209-.22.214.214 0 00-.209-.218h-1.17a.215.215 0 00-.209.219c0 .12.094.219.209.219zm2.221 0h1.17a.215.215 0 00.209-.22.214.214 0 00-.209-.218h-1.17a.215.215 0 00-.21.219c0 .12.094.219.21.219zm13.505 61.915v3.524c0 .121.094.219.209.219.116 0 .21-.098.21-.219v-3.524a.214.214 0 00-.21-.218.214.214 0 00-.209.218z" fill="#fff"/><path d="M130.637 107.939h-3.336a.215.215 0 00-.21.22c0 .12.094.219.21.219h3.336a.215.215 0 00.209-.219.215.215 0 00-.209-.22zm7.144-23.174h4.215a.214.214 0 00.209-.22.214.214 0 00-.209-.218h-4.215a.215.215 0 00-.209.219c0 .121.094.219.209.219zm5.649 0h1.171a.214.214 0 00.209-.22.214.214 0 00-.209-.218h-1.171a.215.215 0 00-.209.219c0 .121.094.219.209.219zm2.221 0h1.171a.214.214 0 00.209-.22.214.214 0 00-.209-.218h-1.171a.215.215 0 00-.21.219c0 .121.094.219.21.219zm-7.052 1.529h4.215a.214.214 0 00.209-.219.214.214 0 00-.209-.219h-4.215a.214.214 0 00-.209.22c0 .12.094.218.209.218zm5.649 0h1.172a.214.214 0 00.209-.219.214.214 0 00-.209-.219h-1.172a.214.214 0 00-.209.22c0 .12.094.218.209.218zm2.221 0h1.172a.214.214 0 00.209-.219.214.214 0 00-.209-.219h-1.172a.214.214 0 00-.209.22c0 .12.093.218.209.218z" fill="#fff"/></svg>