<svg width="90" height="63" viewBox="0 0 90 63" fill="none" xmlns="http://www.w3.org/2000/svg"><path d="M10.521 4.15h68.025c1.522 0 2.833 1.035 3.414 2.512H7.107C7.68 5.185 8.99 4.15 10.52 4.15zM5.117 49.408c.925 0 1.678-.75 1.678-1.674V10.01h75.476v37.945c0 .926.753 1.675 1.679 1.675.925 0 1.67-.75 1.67-1.675V8.337C85.62 4.181 82.45.8 78.546.8H10.52C6.615.8 3.438 4.18 3.438 8.337v39.397c0 .924.754 1.674 1.679 1.674zm74.158 10.085h-68.99c-3.087 0-5.683-2.118-6.411-5.026H56.98v1.691c0 .925.753 1.675 1.678 1.675.926 0 1.67-.75 1.67-1.675v-1.691h2.654v1.691c0 .925.753 1.675 1.678 1.675.925 0 1.67-.75 1.67-1.675v-1.691h2.653v1.691c0 .925.754 1.675 1.679 1.675s1.67-.75 1.67-1.675v-1.691h2.653v1.691c0 .925.753 1.675 1.679 1.675.925 0 1.67-.75 1.67-1.675v-1.691h7.36a6.618 6.618 0 01-6.419 5.026zm8.295-8.376H1.99c-.925 0-1.67.834-1.67 1.759 0 5.495 4.47 9.967 9.965 9.967h68.99c5.495 0 9.965-4.472 9.965-10.052 0-.925-.753-1.674-1.67-1.674z" fill="#2770EC"/><path d="M47.88 30.347a1.057 1.057 0 01-2.113 0 1.058 1.058 0 012.112 0zm-5.461 0a4.408 4.408 0 004.405 4.405 4.408 4.408 0 004.405-4.405 4.408 4.408 0 00-4.405-4.405 4.409 4.409 0 00-4.405 4.405zm-5.973 0c0 .583-.475 1.056-1.056 1.056a1.058 1.058 0 01-1.057-1.056 1.058 1.058 0 012.113 0zm-5.461 0a4.408 4.408 0 004.405 4.405 4.413 4.413 0 004.405-4.405 4.414 4.414 0 00-4.405-4.405 4.409 4.409 0 00-4.405 4.405zm27.81 0c0 .583-.475 1.056-1.056 1.056a1.058 1.058 0 01-1.057-1.056 1.058 1.058 0 012.113 0zm-5.462 0a4.408 4.408 0 004.406 4.405 4.408 4.408 0 004.405-4.405 4.408 4.408 0 00-4.405-4.405 4.409 4.409 0 00-4.405 4.405z" fill="#2770EC"/></svg>