<svg width="90" height="63" viewBox="0 0 90 63" fill="none" xmlns="http://www.w3.org/2000/svg">
<path d="M10.521 4.1497H78.5456C80.0685 4.1497 81.3786 5.18548 81.9599 6.66175H7.10662C7.67977 5.18548 8.98986 4.1497 10.521 4.1497ZM5.11703 49.408C6.04225 49.408 6.79547 48.658 6.79547 47.7336V10.0114H82.2711V47.9563C82.2711 48.8816 83.0244 49.6307 83.9496 49.6307C84.8749 49.6307 85.6199 48.8816 85.6199 47.9563V8.33698C85.6199 4.18082 82.4512 0.800049 78.5456 0.800049H10.521C6.61538 0.800049 3.43848 4.18082 3.43848 8.33698V47.7336C3.43848 48.658 4.1918 49.408 5.11703 49.408V49.408Z" fill="#2770EC"/>
<path d="M79.2755 59.4931H10.2847C7.1979 59.4931 4.60228 57.3749 3.87357 54.4666H56.98V56.1582C56.98 57.0834 57.7333 57.8334 58.6585 57.8334C59.5837 57.8334 60.3288 57.0834 60.3288 56.1582V54.4666H62.9817V56.1582C62.9817 57.0834 63.7349 57.8334 64.6601 57.8334C65.5854 57.8334 66.3305 57.0834 66.3305 56.1582V54.4666H68.9833V56.1582C68.9833 57.0834 69.7367 57.8334 70.6619 57.8334C71.5871 57.8334 72.3322 57.0834 72.3322 56.1582V54.4666H74.9851V56.1582C74.9851 57.0834 75.7383 57.8334 76.6636 57.8334C77.5888 57.8334 78.3339 57.0834 78.3339 56.1582V54.4666H85.6948C84.9824 57.3495 82.3787 59.4931 79.2755 59.4931V59.4931ZM87.5698 51.1169H1.99042C1.06519 51.1169 0.320068 51.9505 0.320068 52.8757C0.320068 58.3714 4.79067 62.8427 10.2847 62.8427H79.2755C84.7696 62.8427 89.2401 58.3714 89.2401 52.7914C89.2401 51.8661 88.4869 51.1169 87.5698 51.1169V51.1169Z" fill="#2770EC"/>
<path d="M47.8799 30.3474C47.8799 30.9296 47.4051 31.4028 46.8238 31.4028C46.2424 31.4028 45.7675 30.9296 45.7675 30.3474C45.7675 29.7653 46.2424 29.292 46.8238 29.292C47.4051 29.292 47.8799 29.7653 47.8799 30.3474ZM42.4187 30.3474C42.4187 32.7768 44.392 34.7525 46.8238 34.7525C49.2556 34.7525 51.2288 32.7768 51.2288 30.3474C51.2288 27.9189 49.2556 25.9424 46.8238 25.9424C44.392 25.9424 42.4187 27.9189 42.4187 30.3474Z" fill="#2770EC"/>
<path d="M36.446 30.3474C36.446 30.9296 35.971 31.4028 35.3897 31.4028C34.8083 31.4028 34.3334 30.9296 34.3334 30.3474C34.3334 29.7653 34.8083 29.292 35.3897 29.292C35.971 29.292 36.446 29.7653 36.446 30.3474ZM30.9846 30.3474C30.9846 32.7768 32.9579 34.7525 35.3897 34.7525C37.8133 34.7525 39.7948 32.7768 39.7948 30.3474C39.7948 27.9189 37.8133 25.9424 35.3897 25.9424C32.9579 25.9424 30.9846 27.9189 30.9846 30.3474Z" fill="#2770EC"/>
<path d="M58.7948 30.3474C58.7948 30.9296 58.3199 31.4028 57.7386 31.4028C57.1572 31.4028 56.6823 30.9296 56.6823 30.3474C56.6823 29.7653 57.1572 29.292 57.7386 29.292C58.3199 29.292 58.7948 29.7653 58.7948 30.3474ZM53.3335 30.3474C53.3335 32.7768 55.3068 34.7525 57.7386 34.7525C60.1704 34.7525 62.1436 32.7768 62.1436 30.3474C62.1436 27.9189 60.1704 25.9424 57.7386 25.9424C55.3068 25.9424 53.3335 27.9189 53.3335 30.3474Z" fill="#2770EC"/>
</svg>
